<svg width="32" height="32" viewBox="0 0 32 32" fill="none" xmlns="http://www.w3.org/2000/svg">
<path d="M6.80334 15.4997V15.9997C6.80334 21.0789 10.9204 25.1968 15.9996 25.197C21.079 25.197 25.1969 21.079 25.1969 15.9997V15.4997H29.8336V15.9997C29.8336 23.6396 23.6396 29.8337 15.9996 29.8337C8.35984 29.8335 2.16663 23.6395 2.16663 15.9997V15.4997H6.80334ZM12.8629 15.4284V15.9284C12.8632 17.6603 14.2679 19.0649 15.9996 19.0651C17.7316 19.0651 19.1361 17.6604 19.1364 15.9284V15.4284H23.7721V15.9284C23.7718 20.2209 20.2923 23.7009 15.9996 23.7009C11.7072 23.7007 8.22843 20.2208 8.22815 15.9284V15.4284H12.8629Z" fill="#FF69B4" stroke="black"/>
</svg>
