<svg width="32" height="32" viewBox="0 0 32 32" fill="none" xmlns="http://www.w3.org/2000/svg">
<path d="M16 13.3333L18.6667 16L16 18.6667L13.3334 16L16 13.3333Z" fill="#FF69B4"/>
<path d="M18.6667 16L16 13.3333L13.3334 16L16 18.6667L18.6667 16ZM16 20.5517L11.448 15.9997L16 11.4477L20.552 15.9997L16 20.5517Z" fill="black"/>
<path fill-rule="evenodd" clip-rule="evenodd" d="M16 29.3333C23.3638 29.3333 29.3334 23.3638 29.3334 16C29.3334 8.63621 23.3638 2.66668 16 2.66668C8.63624 2.66668 2.66671 8.63621 2.66671 16C2.66671 23.3638 8.63624 29.3333 16 29.3333ZM16 25.697C17.3402 25.697 18.6168 25.4251 19.7779 24.9335V7.06648C18.6168 6.5749 17.3402 6.30304 16 6.30304C14.7055 6.30304 13.4702 6.55672 12.3411 7.01708V24.9829C13.4702 25.4433 14.7055 25.697 16 25.697ZM10.4819 23.9749V8.02514C7.95677 9.77569 6.30307 12.6947 6.30307 16C6.30307 19.3053 7.95677 22.2243 10.4819 23.9749ZM25.697 16C25.697 19.2531 24.0951 22.1321 21.6371 23.8911V8.10888C24.0951 9.86792 25.697 12.7469 25.697 16Z" fill="#FF69B4"/>
<path d="M16 1.33334C24.1002 1.33334 30.6667 7.89983 30.6667 16C30.6667 24.1002 24.1002 30.6667 16 30.6667C7.89986 30.6667 1.33337 24.1002 1.33337 16C1.33337 7.89983 7.89986 1.33334 16 1.33334ZM16 2.66668C8.63624 2.66668 2.66671 8.63621 2.66671 16C2.66671 23.3638 8.63624 29.3333 16 29.3333C23.3638 29.3333 29.3334 23.3638 29.3334 16C29.3334 8.63621 23.3638 2.66668 16 2.66668ZM16 6.30304C17.3402 6.30304 18.6168 6.5749 19.7779 7.06648V24.9335C18.6168 25.4251 17.3402 25.697 16 25.697C14.7055 25.697 13.4702 25.4433 12.3411 24.9829V7.01708C13.4702 6.55672 14.7055 6.30304 16 6.30304ZM16 7.63673C15.1915 7.63673 14.4118 7.75191 13.6745 7.96485V24.0339C14.4119 24.2469 15.1914 24.3633 16 24.3633C16.8519 24.3633 17.672 24.2355 18.4441 24V7.99871C17.6721 7.76326 16.8518 7.63673 16 7.63673ZM10.4819 23.9749C7.95677 22.2243 6.30307 19.3053 6.30307 16C6.30307 12.6947 7.95677 9.77569 10.4819 8.02514V23.9749ZM21.6371 8.10888C24.0951 9.86792 25.697 12.7469 25.697 16C25.697 19.2531 24.0951 22.1321 21.6371 23.8911V8.10888ZM9.14848 11.2018C8.19503 12.5606 7.63676 14.2151 7.63676 16C7.63676 17.7845 8.1954 19.4383 9.14848 20.7969V11.2018ZM22.9701 20.6198C23.8498 19.2954 24.3633 17.7082 24.3633 16C24.3633 14.2914 23.8502 12.7035 22.9701 11.3789V20.6198Z" fill="black"/>
</svg>
