<svg width="32" height="32" viewBox="0 0 32 32" fill="none" xmlns="http://www.w3.org/2000/svg">
<path d="M16 13.3333L18.6682 16.0015L16 18.6696L13.3319 16.0015L16 13.3333Z" fill="#FF69B4"/>
<path d="M18.6682 16.0015L16 13.3333L13.3319 16.0015L16 18.6696L18.6682 16.0015ZM16 20.5554L11.4462 16.0016L16 11.4477L20.5539 16.0016L16 20.5554Z" fill="black"/>
<path fill-rule="evenodd" clip-rule="evenodd" d="M16 4.00001L4.00004 16L16 28L28 16L16 4.00001ZM20 12L16 8.00001L12 12V20L16 24L20 20V12ZM21.3334 18.6667V13.3333L24 16L21.3334 18.6667ZM10.6667 18.6667V13.3333L8.00004 16L10.6667 18.6667Z" fill="#FF69B4"/>
<path d="M29.8855 16L16 29.8854L2.11462 16L16 2.11459L29.8855 16ZM4.00004 16L16 28L28 16L16 4.00001L4.00004 16ZM20 12V20L16 24L12 20V12L16 8.00001L20 12ZM13.3334 12.5521V19.4479L16 22.1146L18.6667 19.4479V12.5521L16 9.88543L13.3334 12.5521ZM10.6667 18.6667L8.00004 16L10.6667 13.3333V18.6667ZM24 16L21.3334 18.6667V13.3333L24 16Z" fill="black"/>
</svg>
