<svg width="32" height="32" viewBox="0 0 32 32" fill="none" xmlns="http://www.w3.org/2000/svg">
<path d="M16 13.3333L18.6667 16L16 18.6667L13.3334 16L16 13.3333Z" fill="#FF69B4"/>
<path d="M18.6667 16L16 13.3333L13.3334 16L16 18.6667L18.6667 16ZM16 20.5517L11.448 15.9997L16 11.4477L20.552 15.9997L16 20.5517Z" fill="black"/>
<path fill-rule="evenodd" clip-rule="evenodd" d="M25.697 25.697V6.30304H21.4546V25.697H25.697ZM19.6364 25.697V6.30304H12.3637V25.697H19.6364ZM10.5455 25.697H6.30307L6.30307 6.30304H10.5455V25.697ZM29.3334 2.66668H2.66671L2.66671 29.3333H29.3334V2.66668Z" fill="#FF69B4"/>
<path d="M30.6667 30.6667H1.33337V1.33334H30.6667V30.6667ZM2.66671 29.3333H29.3334V2.66668H2.66671L2.66671 29.3333ZM10.5455 25.697H6.30307L6.30307 6.30304H10.5455V25.697ZM19.6364 6.30304V25.697H12.3637V6.30304H19.6364ZM25.697 6.30304V25.697H21.4546V6.30304H25.697ZM7.63676 24.3633H9.21228V7.63673H7.63676V24.3633ZM13.6967 24.3633H18.3034V7.63673H13.6967V24.3633ZM22.7878 24.3633H24.3633V7.63673H22.7878V24.3633Z" fill="black"/>
</svg>
