<svg width="32" height="32" viewBox="0 0 32 32" fill="none" xmlns="http://www.w3.org/2000/svg">
<path d="M15.9996 2.16669C23.6395 2.16669 29.8334 8.35991 29.8336 15.9997V16.4997H25.1969V15.9997C25.1967 10.9205 21.0789 6.80341 15.9996 6.80341C10.9205 6.80358 6.80352 10.9206 6.80334 15.9997V16.4997H2.16663V15.9997C2.1668 8.36001 8.35995 2.16686 15.9996 2.16669ZM15.9996 8.22821C20.2923 8.22821 23.7719 11.7071 23.7721 15.9997V16.4997H19.1364V15.9997C19.1362 14.2677 17.7317 12.863 15.9996 12.863C14.2677 12.8632 12.8631 14.2678 12.8629 15.9997V16.4997H8.22815V15.9997C8.22832 11.7072 11.7071 8.22839 15.9996 8.22821Z" fill="#FF69B4" stroke="black"/>
</svg>
