<svg width="24" height="24" viewBox="0 0 24 24" fill="none" xmlns="http://www.w3.org/2000/svg">
<path fill-rule="evenodd" clip-rule="evenodd" d="M22 22H2V2H22V22ZM18.9052 3.81818L3.09286 19.6296L4.37926 20.9151L20.2617 5.03267L19.0472 3.81818H18.9052ZM10.1818 17.6836V20.1818H13.8182V16.5455H11.32L10.1818 17.6836ZM16.5455 20.1818H20.1818V16.5455H16.5455V20.1818ZM3.81818 13.8182H6.33327L7.45455 12.6969V10.1818H3.81818V13.8182ZM16.5455 11.32V13.8182H20.1818V10.1818H17.6836L16.5455 11.32ZM10.1818 7.45455H12.6969L13.8182 6.33327V3.81818H10.1818V7.45455ZM3.81818 7.45455H7.45455V3.81818H3.81818V7.45455Z" fill="#FF69B4"/>
</svg>
