<svg width="32" height="32" viewBox="0 0 32 32" fill="none" xmlns="http://www.w3.org/2000/svg">
<path d="M29.8336 2.16669V29.8337H2.16663V2.16669H29.8336ZM4.83069 26.1716L5.83752 27.1794L26.3082 6.70966L25.3004 5.70282L4.83069 26.1716ZM22.5602 26.4089H26.4088V22.5602H22.5602V26.4089ZM14.0758 23.7849V26.4089H17.9244V22.5602H15.3004L14.0758 23.7849ZM22.5602 15.3005V17.9245H26.4088V14.0759H23.7848L22.5602 15.3005ZM5.59045 17.9245H8.23694L9.43909 16.7224V14.0759H5.59045V17.9245ZM14.0758 9.43915H16.7223L17.9244 8.237V5.59052H14.0758V9.43915ZM5.59045 9.43915H9.43909V5.59052H5.59045V9.43915Z" fill="#FF69B4" stroke="black"/>
</svg>
