<svg width="32" height="32" viewBox="0 0 32 32" fill="none" xmlns="http://www.w3.org/2000/svg">
<path d="M29.8336 2.16669V29.8337H2.16663V2.16669H29.8336ZM4.83069 26.1716L5.83752 27.1794L26.3082 6.70966L25.3014 5.70282L4.83069 26.1716ZM22.5602 26.4089H26.4088V22.5602H22.5602V26.4089ZM20.1364 17.7243V20.1364H17.7242L17.5123 20.3483H20.1364V26.4089H20.3483V20.3483H26.4088V20.1364H20.3483V17.5124L20.1364 17.7243ZM14.0758 23.7849V26.4089H17.9244V22.5602H15.3004L14.0758 23.7849ZM11.651 26.2106V26.4089H11.8639V25.9977L11.651 26.2106ZM5.59045 20.3483H5.81311L6.02502 20.1364H5.59045V20.3483ZM22.5602 15.3005V17.9245H26.4088V14.0759H23.7848L22.5602 15.3005ZM5.59045 17.9245H8.23694L9.43909 16.7224V14.0759H5.59045V17.9245ZM11.651 11.6511H5.59045V11.864H11.651V14.5104L11.8639 14.2975V11.864H14.2975L14.5104 11.6511H11.8639V5.59052H11.651V11.6511ZM25.9977 11.864H26.4088V11.6511H26.2106L25.9977 11.864ZM14.0758 9.43915H16.7223L17.9244 8.237V5.59052H14.0758V9.43915ZM5.59045 9.43915H9.43909V5.59052H5.59045V9.43915ZM20.1364 6.02509L20.3483 5.81317V5.59052H20.1364V6.02509Z" fill="#FF69B4" stroke="black"/>
</svg>
