<svg width="32" height="32" viewBox="0 0 32 32" fill="none" xmlns="http://www.w3.org/2000/svg">
<path d="M29.9059 8.45673L29.5524 8.81024L27.7125 10.6511H29.8336V21.3493H21.3492V29.8337H10.651V27.7116L8.45667 29.9059L2.09338 23.5427L2.4469 23.1891L4.28772 21.3493H2.16663V10.6511H10.651V2.16669H21.3492V4.2868L23.5426 2.09344L29.9059 8.45673ZM14.0758 24.2878V26.4089H17.9244V22.5612H15.8024L14.0758 24.2878ZM7.27795 23.5427L8.45667 24.7204L24.7203 8.45673L23.5426 7.27802L7.27795 23.5427ZM22.5612 15.8024V17.9245H26.4088V14.0759H24.2877L22.5612 15.8024ZM5.59143 17.9245H7.71252L9.43909 16.1979V14.0759H5.59143V17.9245ZM14.0758 9.43915H16.1979L17.9244 7.71259V5.59149H14.0758V9.43915Z" fill="#FF69B4" stroke="black"/>
</svg>
