<svg width="32" height="32" viewBox="0 0 32 32" fill="none" xmlns="http://www.w3.org/2000/svg">
<path fill-rule="evenodd" clip-rule="evenodd" d="M3.21293 8.22863L5.09835 10.114L7.53975 7.67264L9.20417 9.33706C7.13577 11.1886 5.83409 13.8791 5.83409 16.8736H8.59186C8.59186 12.8121 11.8844 9.51957 15.9459 9.51957C20.0074 9.51957 23.2999 12.8121 23.2999 16.8736H26.0577C26.0577 13.9067 24.7799 11.2382 22.7446 9.38846L24.4604 7.67271L26.9018 10.1141L28.7872 8.2287L24.4604 3.90187L20.5128 7.84943C19.141 7.15382 17.5892 6.76181 15.9459 6.76181C14.3313 6.76181 12.8051 7.14022 11.4512 7.8132L7.53975 3.9018L3.21293 8.22863Z" fill="#FF69B4"/>
<path d="M30.6726 8.22863L26.9017 11.9995L25.5489 10.6466C26.713 12.4385 27.3912 14.5769 27.3913 16.8732V18.2065H21.9668V16.8732C21.9666 13.5483 19.2709 10.8524 15.946 10.8523C12.621 10.8523 9.92542 13.5482 9.92517 16.8732V18.2065H4.50069V16.8732C4.50078 14.6973 5.11057 12.6637 6.16475 10.9318L6.04106 11.0568L5.09835 11.9995L1.32751 8.22863L7.53975 2.01639L11.7507 6.22733C13.0515 5.71439 14.4663 5.42785 15.946 5.42785C17.4549 5.42786 18.8965 5.72497 20.2181 6.25727L24.4603 2.01639L30.6726 8.22863ZM20.5128 7.84943C19.141 7.15382 17.5892 6.76181 15.9459 6.76181C14.3313 6.76181 12.8051 7.14022 11.4512 7.8132L7.53975 3.9018L3.21293 8.22863L5.09835 10.114L7.53975 7.67264L9.20417 9.33706C7.13577 11.1886 5.83409 13.8791 5.83409 16.8736H8.59186C8.59186 12.8121 11.8844 9.51957 15.9459 9.51957C20.0074 9.51957 23.2999 12.8121 23.2999 16.8736H26.0577C26.0577 13.9067 24.7799 11.2382 22.7446 9.38846L24.4604 7.67271L26.9018 10.1141L28.7872 8.2287L24.4604 3.90187L20.5128 7.84943Z" fill="black"/>
<path d="M15.9358 15.0422L18.6024 17.7089L15.9358 20.3755L13.2691 17.7089L15.9358 15.0422Z" fill="#FF69B4"/>
<path d="M18.6024 17.7089L15.9358 15.0422L13.2691 17.7089L15.9358 20.3755L18.6024 17.7089ZM15.9358 22.2606L11.3838 17.7086L15.9358 13.1566L20.4878 17.7086L15.9358 22.2606Z" fill="black"/>
</svg>
