<svg width="32" height="32" viewBox="0 0 32 32" fill="none" xmlns="http://www.w3.org/2000/svg">
<path fill-rule="evenodd" clip-rule="evenodd" d="M3.68742 8.26389L5.57284 10.1493L8.03247 7.68836L11.3698 11.0913L5.76687 16.6943H9.17792L16 9.8722L22.8221 16.6943H26.2332L20.6303 11.0915L23.9676 7.68967L26.4272 10.1493L28.3126 8.26389L23.9506 3.9006L18.7443 9.20543L16 6.46115L13.2557 9.20544L8.0494 3.9006L3.68742 8.26389Z" fill="#FF69B4"/>
<path d="M30.1978 8.26389L26.427 12.0347L23.9765 9.5842L22.5064 11.0816L29.4517 18.0282H22.2695L15.9999 11.7574L9.73039 18.0282H2.5481L9.49211 11.0816L8.02336 9.5829L5.57284 12.0347L1.802 8.26389L8.05851 2.00607L13.2629 7.31076L15.9999 4.57508L18.7356 7.31076L23.9413 2.00607L30.1978 8.26389ZM18.7443 9.20543L16 6.46115L13.2557 9.20544L8.0494 3.9006L3.68742 8.26389L5.57284 10.1493L8.03247 7.68836L11.3698 11.0913L5.76687 16.6943H9.17792L16 9.8722L22.8221 16.6943H26.2332L20.6303 11.0915L23.9676 7.68967L26.4272 10.1493L28.3126 8.26389L23.9506 3.9006L18.7443 9.20543Z" fill="black"/>
<path d="M16.0015 14.6667L18.6696 17.3348L16.0015 20.003L13.3333 17.3348L16.0015 14.6667Z" fill="#FF69B4"/>
<path d="M18.6696 17.3348L16.0015 14.6667L13.3333 17.3348L16.0015 20.003L18.6696 17.3348ZM16.0015 21.8887L11.4476 17.3349L16.0015 12.7811L20.5553 17.3349L16.0015 21.8887Z" fill="black"/>
</svg>
