<svg width="32" height="32" viewBox="0 0 32 32" fill="none" xmlns="http://www.w3.org/2000/svg">
<path fill-rule="evenodd" clip-rule="evenodd" d="M3.63322 8.27947L5.51864 10.1649L8.00301 7.68051L11.63 11.3075L5.71853 17.219H9.1457L16 10.3647L22.8544 17.219H26.2816L20.3701 11.3075L23.9971 7.68051L26.4814 10.1649L28.3669 8.27947L23.9971 3.90968L18.4846 9.42209L16 6.93748L13.5154 9.42209L8.00301 3.90968L3.63322 8.27947Z" fill="#FF69B4"/>
<path d="M30.253 8.27947L26.4809 12.0503L23.9965 9.56593L22.2556 11.3068L29.5004 18.5529H22.3025L16.0004 12.2495L9.69832 18.5529H2.4991L9.74259 11.3068L8.00171 9.56593L5.51864 12.0503L1.7478 8.27947L8.00301 2.02426L13.5147 7.53468L16.0004 5.0516L18.4848 7.53598L23.9965 2.02426L30.253 8.27947ZM18.4846 9.42209L16 6.93748L13.5154 9.42209L8.00301 3.90968L3.63322 8.27947L5.51864 10.1649L8.00301 7.68051L11.63 11.3075L5.71853 17.219H9.1457L16 10.3647L22.8544 17.219H26.2816L20.3701 11.3075L23.9971 7.68051L26.4814 10.1649L28.3669 8.27947L23.9971 3.90968L18.4846 9.42209Z" fill="black"/>
<path d="M16 15.219L18.6667 17.8857L16 20.5523L13.3334 17.8857L16 15.219Z" fill="#FF69B4"/>
<path d="M18.6667 17.8857L16 15.219L13.3334 17.8857L16 20.5523L18.6667 17.8857ZM16 22.4374L11.448 17.8854L16 13.3334L20.552 17.8854L16 22.4374Z" fill="black"/>
</svg>
