<svg width="32" height="32" viewBox="0 0 32 32" fill="none" xmlns="http://www.w3.org/2000/svg">
<path d="M30.6667 14.6667V17.3333H1.33337V14.6667H30.6667Z" fill="#FF69B4"/>
<path d="M14.6667 1.33334L17.3334 1.33334L17.3334 30.6667H14.6667L14.6667 1.33334Z" fill="#FF69B4"/>
<path d="M24 16C24 20.4183 20.4183 24 16 24C11.5818 24 8.00004 20.4183 8.00004 16C8.00004 11.5817 11.5818 8.00001 16 8.00001C20.4183 8.00001 24 11.5817 24 16Z" fill="black"/>
<path d="M16 8.00001C20.4183 8.00001 24 11.5817 24 16C24 20.4183 20.4183 24 16 24C11.5818 24 8.00004 20.4183 8.00004 16C8.00004 11.5817 11.5818 8.00001 16 8.00001ZM16 10.6667C13.0545 10.6667 10.6667 13.0545 10.6667 16C10.6667 18.9455 13.0545 21.3333 16 21.3333C18.9456 21.3333 21.3334 18.9455 21.3334 16C21.3334 13.0545 18.9456 10.6667 16 10.6667Z" fill="#FF69B4"/>
<path d="M24 16C24 11.5817 20.4183 8.00001 16 8.00001C11.5818 8.00001 8.00004 11.5817 8.00004 16C8.00004 20.4183 11.5818 24 16 24C20.4183 24 24 20.4183 24 16ZM20.3334 16C20.3334 13.6068 18.3933 11.6667 16 11.6667C13.6068 11.6667 11.6667 13.6068 11.6667 16C11.6667 18.3932 13.6068 20.3333 16 20.3333V21.3333C13.0545 21.3333 10.6667 18.9455 10.6667 16C10.6667 13.0545 13.0545 10.6667 16 10.6667C18.9456 10.6667 21.3334 13.0545 21.3334 16C21.3334 18.9455 18.9456 21.3333 16 21.3333V20.3333C18.3933 20.3333 20.3334 18.3932 20.3334 16ZM25 16C25 20.9706 20.9706 25 16 25C11.0295 25 7.00004 20.9706 7.00004 16C7.00004 11.0294 11.0295 7.00001 16 7.00001C20.9706 7.00001 25 11.0294 25 16Z" fill="black"/>
<path d="M16 13.3333L18.6667 16L16 18.6667L13.3334 16L16 13.3333Z" fill="#FF69B4"/>
<path d="M18.6667 16L16 13.3333L13.3334 16L16 18.6667L18.6667 16ZM16 20.0803L11.9194 15.9997L16 11.9191L20.0806 15.9997L16 20.0803Z" fill="black"/>
</svg>
