<svg width="32" height="32" viewBox="0 0 32 32" fill="none" xmlns="http://www.w3.org/2000/svg">
<path d="M30.6667 14.6667V17.3333L1.33337 17.3333L1.33337 14.6667L30.6667 14.6667Z" fill="#FF69B4"/>
<path d="M14.6667 1.33334L17.3334 1.33334L17.3334 30.6667H14.6667L14.6667 1.33334Z" fill="#FF69B4"/>
<path fill-rule="evenodd" clip-rule="evenodd" d="M16 8.00001L24 16L16 24L8.00004 16L16 8.00001ZM16 10.6667L21.3334 16L16 21.3333L10.6667 16L16 10.6667Z" fill="#FF69B4"/>
<path d="M25.8855 16L16 25.8854L6.11462 16L16 6.11459L25.8855 16ZM8.00004 16L16 24L24 16L16 8.00001L8.00004 16ZM21.3334 16L16 21.3333L10.6667 16L16 10.6667L21.3334 16ZM12.5521 16L16 19.4479L19.448 16L16 12.5521L12.5521 16Z" fill="black"/>
<path d="M16 13.3333L18.6667 16L16 18.6667L13.3334 16L16 13.3333Z" fill="#FF69B4"/>
<path d="M18.6667 16L16 13.3333L13.3334 16L16 18.6667L18.6667 16ZM16 20.5517L11.448 15.9997L16 11.4477L20.552 15.9997L16 20.5517Z" fill="black"/>
</svg>
