<svg width="32" height="32" viewBox="0 0 32 32" fill="none" xmlns="http://www.w3.org/2000/svg">
<path d="M30.6667 14.6667V17.3333L1.33337 17.3333L1.33337 14.6667L30.6667 14.6667Z" fill="#FF69B4"/>
<path d="M14.6667 1.33334L17.3334 1.33334L17.3334 30.6667H14.6667L14.6667 1.33334Z" fill="#FF69B4"/>
<path d="M8.00004 8.00001H24V24H8.00004V8.00001Z" fill="black"/>
<path fill-rule="evenodd" clip-rule="evenodd" d="M21.3334 21.3333V10.6667H10.6667L10.6667 21.3333H21.3334ZM24 8.00001H8.00004V24H24V8.00001Z" fill="#FF69B4"/>
<path d="M6.66671 25.3333L6.66671 6.66668L25.3334 6.66668V25.3333H6.66671ZM8.00004 8.00001V24H24V8.00001H8.00004ZM21.3334 21.3333H10.6667L10.6667 10.6667H21.3334V21.3333ZM12 12L12 20H20V12L12 12Z" fill="black"/>
<path d="M16 13.3333L18.6667 16L16 18.6667L13.3334 16L16 13.3333Z" fill="#FF69B4"/>
<path d="M18.6667 16L16 13.3333L13.3334 16L16 18.6667L18.6667 16ZM16 20.0803L11.9194 15.9997L16 11.9191L20.0806 15.9997L16 20.0803Z" fill="black"/>
</svg>
