<svg width="32" height="32" viewBox="0 0 32 32" fill="none" xmlns="http://www.w3.org/2000/svg">
<path d="M15.9996 2.16669C23.6395 2.16669 29.8334 8.35991 29.8336 15.9997C29.8336 23.6396 23.6396 29.8337 15.9996 29.8337C8.35984 29.8335 2.16663 23.6395 2.16663 15.9997C2.1668 8.36001 8.35995 2.16686 15.9996 2.16669ZM10.8287 8.39423C8.39804 10.0501 6.80345 12.8386 6.80334 15.9997C6.80334 21.0789 10.9204 25.1968 15.9996 25.197C16.9066 25.197 17.7817 25.0614 18.609 24.8161L8.87854 12.3073L8.25061 11.4997H13.4176L10.8287 8.39423ZM15.9996 6.80341C15.452 6.80342 14.9159 6.85136 14.3951 6.94305L20.5641 14.3464L21.2467 15.1667H15.7487L21.8883 23.0622C23.9102 21.3745 25.1969 18.838 25.1969 15.9997C25.1967 10.9205 21.0789 6.80341 15.9996 6.80341Z" fill="#FF69B4" stroke="black"/>
</svg>
