<svg width="32" height="32" viewBox="0 0 32 32" fill="none" xmlns="http://www.w3.org/2000/svg">
<path d="M17.8334 2.16669V5.78094C18.7633 6.00594 19.6269 6.39817 20.392 6.92352L22.3129 5.00458L22.6664 4.65106L25.2592 7.24384L24.9056 7.59735L22.8451 9.65594C23.1543 10.2313 23.3923 10.8495 23.5492 11.4997H27.1664V15.1667H23.5316C23.404 15.6735 23.226 16.1598 23.0043 16.6218L25.2592 18.8766L24.9056 19.2302L23.0199 21.1149L22.6664 21.4684L20.6693 19.4714C19.838 20.0974 18.8773 20.5597 17.8334 20.8122V22.1667H19.1664V24.0807L19.141 24.1579L17.8334 28.0807V31.1667H14.1664V27.9089L14.1986 27.8239L15.4535 24.4997H14.1664V20.8112C13.1146 20.5566 12.1472 20.09 11.3119 19.4567L9.67908 21.0915L9.32556 21.446L8.97205 21.0915L7.0863 19.2067L6.73279 18.8532L7.0863 18.4997L8.98279 16.6003C8.76612 16.145 8.59454 15.6652 8.46912 15.1667H4.83337V11.4997H8.45056C8.60534 10.8576 8.83837 10.246 9.14197 9.67645L6.73279 7.26727L9.32556 4.6745L11.5873 6.93622C12.3575 6.4041 13.2287 6.00863 14.1664 5.78192V2.16669H17.8334ZM16.0004 10.197C14.279 10.197 12.8817 11.5838 12.8646 13.3015C12.8861 15.0153 14.2819 16.3981 16.0004 16.3981C17.7184 16.398 19.1127 15.0154 19.1342 13.3015C19.1171 11.5837 17.7213 10.1971 16.0004 10.197Z" fill="#FF69B4" stroke="black"/>
</svg>
