<svg width="32" height="32" viewBox="0 0 32 32" fill="none" xmlns="http://www.w3.org/2000/svg">
<path d="M15.9996 2.16669C23.6395 2.16669 29.8334 8.35991 29.8336 15.9997C29.8336 23.6396 23.6396 29.8337 15.9996 29.8337C8.35984 29.8335 2.16663 23.6395 2.16663 15.9997C2.1668 8.36001 8.35995 2.16686 15.9996 2.16669ZM9.13733 9.8786C7.68608 11.5045 6.80343 13.6488 6.80334 15.9997C6.80334 20.4506 9.96614 24.1588 14.1666 25.0085V15.9138L9.13733 9.8786ZM17.8336 15.9138V25.0085C22.0339 24.1587 25.1969 20.4504 25.1969 15.9997C25.1968 13.6484 24.3126 11.5045 22.861 9.8786L17.8336 15.9138ZM15.9996 12.5515L16.0436 12.4997H15.9557L15.9996 12.5515ZM15.9996 6.80341C13.8181 6.80348 11.8155 7.56466 10.2389 8.83368H21.7614C20.1847 7.56451 18.1813 6.80341 15.9996 6.80341Z" fill="#FF69B4" stroke="black"/>
</svg>
