<svg width="32" height="32" viewBox="0 0 32 32" fill="none" xmlns="http://www.w3.org/2000/svg">
<path d="M16.4004 2.36682L20.4004 7.69983L21 8.49963H17.833V19.4996H21.833V22.1666H22.833V12.7965L23.583 13.2301L30.25 17.0787L30.6826 17.3287L30.4326 17.7614L29.0996 20.0719L28.8496 20.5045L28.417 20.2545L26.5 19.1471V24.8336H29.833V28.4996H22.833V25.8336H21.833V28.4996H10.167V25.8336H9.16699V28.4996H2.16699V24.8336H5.5V19.1471L3.58301 20.2545L3.15039 20.5045L2.90039 20.0719L1.56738 17.7614L1.31738 17.3287L1.75 17.0787L8.41699 13.2301L9.16699 12.7965V22.1666H10.167V19.4996H14.167V8.49963H11L11.5996 7.69983L15.5996 2.36682L16 1.83362L16.4004 2.36682ZM13.833 24.8336H18.167V23.1666H13.833V24.8336Z" fill="#FF69B4" stroke="black"/>
</svg>
