<svg width="32" height="32" viewBox="0 0 32 32" fill="none" xmlns="http://www.w3.org/2000/svg">
<path d="M27.861 7.41699L29.7477 9.30273L30.1022 9.65625L29.7477 10.0098L29.5905 10.167H29.8336V13.833H25.9244L24.2574 15.5H29.8336V19.167H20.5914L9.99377 29.7637L9.64026 30.1172L9.28674 29.7637L7.40198 27.8779L7.04846 27.5244L7.40198 27.1709L27.1539 7.41699L27.5074 7.06348L27.861 7.41699ZM27.1666 20.833V27.167H20.8336V20.833H27.1666ZM26.3297 5.88574L5.86877 26.3467L3.276 23.7539L7.86292 19.167H2.16663V15.5H11.5299L13.1969 13.833H2.16663V10.167H3.49963V4.83301H9.83362V10.167H10.1666V4.83301H16.4996V10.167H16.8629L23.7369 3.29297L26.3297 5.88574Z" fill="#FF69B4" stroke="black"/>
</svg>
