<svg width="32" height="32" viewBox="0 0 32 32" fill="none" xmlns="http://www.w3.org/2000/svg">
<path d="M11.1666 20.8336V29.8336H2.16663V20.8336H11.1666ZM29.8336 16.8336V29.8336H12.8336V20.8336H19.4996V16.8336H29.8336ZM23.1666 24.4996H16.4996V26.1666H26.1666V20.4996H23.1666V24.4996ZM5.83362 26.1666H7.49963V24.4996H5.83362V26.1666ZM17.8336 2.16663V16.4996H2.16663V2.16663H17.8336ZM29.8336 2.16663V13.8336H19.4996V2.16663H29.8336ZM5.83362 12.8336H14.1666V5.83362H5.83362V12.8336ZM23.1666 10.1666H26.1666V5.83362H23.1666V10.1666Z" fill="#FF69B4"/>
<path d="M11.1666 20.8336V29.8336H2.16663V20.8336H11.1666ZM29.8336 16.8336V29.8336H12.8336V20.8336H19.4996V16.8336H29.8336ZM23.1666 24.4996H16.4996V26.1666H26.1666V20.4996H23.1666V24.4996ZM5.83362 26.1666H7.49963V24.4996H5.83362V26.1666ZM17.8336 2.16663V16.4996H2.16663V2.16663H17.8336ZM29.8336 2.16663V13.8336H19.4996V2.16663H29.8336ZM5.83362 12.8336H14.1666V5.83362H5.83362V12.8336ZM23.1666 10.1666H26.1666V5.83362H23.1666V10.1666Z" fill="#FF69B4"/>
<path d="M11.1666 20.8336V29.8336H2.16663V20.8336H11.1666ZM29.8336 16.8336V29.8336H12.8336V20.8336H19.4996V16.8336H29.8336ZM23.1666 24.4996H16.4996V26.1666H26.1666V20.4996H23.1666V24.4996ZM5.83362 26.1666H7.49963V24.4996H5.83362V26.1666ZM17.8336 2.16663V16.4996H2.16663V2.16663H17.8336ZM29.8336 2.16663V13.8336H19.4996V2.16663H29.8336ZM5.83362 12.8336H14.1666V5.83362H5.83362V12.8336ZM23.1666 10.1666H26.1666V5.83362H23.1666V10.1666Z" fill="#FF69B4"/>
<path d="M11.1666 20.8336V29.8336H2.16663V20.8336H11.1666ZM29.8336 16.8336V29.8336H12.8336V20.8336H19.4996V16.8336H29.8336ZM23.1666 24.4996H16.4996V26.1666H26.1666V20.4996H23.1666V24.4996ZM5.83362 26.1666H7.49963V24.4996H5.83362V26.1666ZM17.8336 2.16663V16.4996H2.16663V2.16663H17.8336ZM29.8336 2.16663V13.8336H19.4996V2.16663H29.8336ZM5.83362 12.8336H14.1666V5.83362H5.83362V12.8336ZM23.1666 10.1666H26.1666V5.83362H23.1666V10.1666Z" stroke="black"/>
</svg>
