<svg width="32" height="32" viewBox="0 0 32 32" fill="none" xmlns="http://www.w3.org/2000/svg">
<path d="M27.7848 2.31311L29.6696 4.19885L30.0231 4.55237L29.6696 4.90588L26.9821 7.59143C28.7689 9.92172 29.8335 12.8364 29.8336 15.9996C29.8336 19.1628 28.7688 22.0775 26.9821 24.4078L30.0231 27.4489L29.6696 27.8024L27.7848 29.6891L27.4313 30.0436L27.0778 29.6891L24.3844 26.9967C22.058 28.7734 19.1531 29.8336 15.9996 29.8336C12.8367 29.8335 9.92178 28.7697 7.59143 26.983L4.88733 29.6891L4.53381 30.0426L1.94006 27.4489L2.29358 27.0953L5.00159 24.3854C3.22502 22.0587 2.16663 19.1528 2.16663 15.9996C2.1667 12.8464 3.22489 9.94051 5.00159 7.61389L1.94006 4.55237L2.29358 4.19885L4.1803 2.31311L4.53381 1.95959L7.59045 5.01624C9.92096 3.22948 12.8367 2.1667 15.9996 2.16663C19.1533 2.16663 22.0604 3.22447 24.3873 5.00159L27.0778 2.31311L27.4313 1.95959L27.7848 2.31311ZM10.9137 23.6598C12.3707 24.6295 14.1178 25.1968 15.9996 25.1969C17.8718 25.1969 19.6106 24.635 21.0631 23.6744L19.986 22.5973C18.8203 23.2957 17.4572 23.7008 15.9996 23.7008C14.5324 23.7007 13.16 23.2918 11.9889 22.5846L10.9137 23.6598ZM8.32288 10.9352C7.36282 12.3875 6.80341 14.1274 6.80334 15.9996C6.80334 17.8718 7.36352 19.6116 8.32385 21.0641L9.38342 20.0026C8.66542 18.8393 8.24419 17.4731 8.22913 16.0094L8.22815 15.9371L8.22717 15.9235H8.22815C8.24212 14.4759 8.65222 13.1222 9.3551 11.9664L8.32288 10.9352ZM15.5436 19.0309C15.6924 19.0527 15.8446 19.065 15.9996 19.0651C16.1433 19.0651 16.2849 19.054 16.4235 19.0348L15.9821 18.5934L15.5436 19.0309ZM18.5739 15.9996L19.0797 16.5055C19.1126 16.3311 19.1321 16.1519 19.1344 15.9684L19.1285 15.8053C19.1218 15.6955 19.1092 15.5874 19.0914 15.4811L18.5739 15.9996ZM12.902 15.5133C12.8789 15.6617 12.8664 15.8136 12.8649 15.9684C12.8671 16.1409 12.8835 16.3097 12.9127 16.4742L13.3873 15.9996L12.902 15.5133ZM15.9996 12.8629C15.8226 12.8629 15.649 12.8775 15.4801 12.9059L15.9811 13.4069L16.4869 12.901C16.3283 12.8762 16.1654 12.8629 15.9996 12.8629ZM15.9996 6.80334C14.1177 6.80341 12.3696 7.36899 10.9127 8.3385L11.944 9.36975C13.1249 8.64594 14.5139 8.22821 15.9996 8.22815C17.4757 8.22815 18.8561 8.64106 20.0319 9.35608L21.0641 8.32385C19.6116 7.36352 17.8718 6.80334 15.9996 6.80334ZM23.7711 15.9713C23.7714 15.9785 23.7721 15.9884 23.7721 15.9996V16.0045C23.7578 17.4804 23.3282 18.8566 22.6002 20.026L23.6588 21.0846C24.6285 19.6277 25.1969 17.8812 25.1969 15.9996C25.1968 14.1178 24.6295 12.3707 23.6598 10.9137L22.6285 11.9449C23.34 13.1054 23.757 14.4662 23.7711 15.9235V15.9713Z" fill="#FF69B4" stroke="black"/>
</svg>
