<svg width="32" height="32" viewBox="0 0 32 32" fill="none" xmlns="http://www.w3.org/2000/svg">
<path d="M16 29.3333C23.3638 29.3333 29.3334 23.3638 29.3334 16H25.697C25.697 21.3555 21.3555 25.697 16 25.697C10.6446 25.697 6.30307 21.3555 6.30307 16H2.66671C2.66671 23.3638 8.63624 29.3333 16 29.3333Z" fill="#FF69B4"/>
<path d="M6.30307 16H2.66671C2.66671 23.3638 8.63624 29.3333 16 29.3333C23.3638 29.3333 29.3334 23.3638 29.3334 16H25.697C25.697 21.3555 21.3555 25.697 16 25.697V24.3633C20.6192 24.3633 24.3633 20.6191 24.3633 16V14.6667H30.6667V16C30.6667 24.1002 24.1002 30.6667 16 30.6667C7.89986 30.6667 1.33337 24.1002 1.33337 16V14.6667H7.63676V16C7.63676 20.6191 11.3809 24.3633 16 24.3633V25.697C10.8118 25.697 6.57469 21.6224 6.31515 16.4987L6.30307 16Z" fill="black"/>
<path d="M16 13.3333L18.6667 16L16 18.6667L13.3334 16L16 13.3333Z" fill="#FF69B4"/>
<path d="M18.6667 16L16 13.3333L13.3334 16L16 18.6667L18.6667 16ZM16 20.5517L11.448 15.9997L16 11.4477L20.552 15.9997L16 20.5517Z" fill="black"/>
</svg>
