<svg width="32" height="32" viewBox="0 0 32 32" fill="none" xmlns="http://www.w3.org/2000/svg">
<path d="M16 13.3333L18.6667 16L16 18.6667L13.3333 16L16 13.3333Z" fill="#FF69B4"/>
<path d="M18.6667 16L16 13.3333L13.3333 16L16 18.6667L18.6667 16ZM16 20.5517L11.448 15.9997L16 11.4477L20.552 15.9997L16 20.5517Z" fill="black"/>
<path d="M16 13.3333L18.6667 16L16 18.6667L13.3333 16L16 13.3333Z" fill="#FF69B4"/>
<path d="M18.6667 16L16 13.3333L13.3333 16L16 18.6667L18.6667 16ZM16 20.5517L11.448 15.9997L16 11.4477L20.552 15.9997L16 20.5517Z" fill="black"/>
<path d="M24 16L16 24L8 16H4L16 28L28 16H24Z" fill="#FF69B4"/>
<path d="M8.55208 14.6667L16 22.1146L23.4479 14.6667H31.2188L16 29.8854L0.78125 14.6667H8.55208ZM16 28L28 16H24L16 24L8 16H4L16 28Z" fill="black"/>
</svg>
