<svg width="32" height="32" viewBox="0 0 32 32" fill="none" xmlns="http://www.w3.org/2000/svg">
<path d="M25.697 16V25.697H6.30307L6.30307 16L2.66671 16L2.66671 29.3333L29.3334 29.3333V16L25.697 16Z" fill="#FF69B4"/>
<path d="M6.30307 16L6.30307 25.697H25.697V16L29.3334 16V29.3333L2.66671 29.3333L2.66671 16L6.30307 16ZM24.3633 14.6667V24.3633L7.63676 24.3633L7.63676 14.6667L1.33337 14.6667L1.33337 30.6667L30.6667 30.6667V14.6667L24.3633 14.6667Z" fill="black"/>
<path d="M16 13.1886L18.6667 15.8553L16 18.522L13.3334 15.8553L16 13.1886Z" fill="#FF69B4"/>
<path d="M18.6667 15.8553L16 13.1886L13.3334 15.8553L16 18.522L18.6667 15.8553ZM16 20.407L11.448 15.855L16 11.303L20.552 15.855L16 20.407Z" fill="black"/>
</svg>
