<svg width="24" height="24" viewBox="0 0 24 24" fill="none" xmlns="http://www.w3.org/2000/svg">
<path fill-rule="evenodd" clip-rule="evenodd" d="M8 22H2V16H8V22ZM4 20H6V18H4V20Z" fill="#FF69B4"/>
<path fill-rule="evenodd" clip-rule="evenodd" d="M8 22H2V16H8V22ZM4 20H6V18H4V20Z" fill="#FF69B4"/>
<path fill-rule="evenodd" clip-rule="evenodd" d="M8 22H2V16H8V22ZM4 20H6V18H4V20Z" fill="#FF69B4"/>
<path fill-rule="evenodd" clip-rule="evenodd" d="M22 22H10V16H15V13H22V22ZM17 18H12V20H20V15H17V18Z" fill="#FF69B4"/>
<path fill-rule="evenodd" clip-rule="evenodd" d="M22 22H10V16H15V13H22V22ZM17 18H12V20H20V15H17V18Z" fill="#FF69B4"/>
<path fill-rule="evenodd" clip-rule="evenodd" d="M22 22H10V16H15V13H22V22ZM17 18H12V20H20V15H17V18Z" fill="#FF69B4"/>
<path fill-rule="evenodd" clip-rule="evenodd" d="M13 12H2V2H13V12ZM4 10H11V4H4V10Z" fill="#FF69B4"/>
<path fill-rule="evenodd" clip-rule="evenodd" d="M13 12H2V2H13V12ZM4 10H11V4H4V10Z" fill="#FF69B4"/>
<path fill-rule="evenodd" clip-rule="evenodd" d="M13 12H2V2H13V12ZM4 10H11V4H4V10Z" fill="#FF69B4"/>
<path fill-rule="evenodd" clip-rule="evenodd" d="M22 10H15V2H22V10ZM17 8H20V4H17V8Z" fill="#FF69B4"/>
<path fill-rule="evenodd" clip-rule="evenodd" d="M22 10H15V2H22V10ZM17 8H20V4H17V8Z" fill="#FF69B4"/>
<path fill-rule="evenodd" clip-rule="evenodd" d="M22 10H15V2H22V10ZM17 8H20V4H17V8Z" fill="#FF69B4"/>
</svg>
