<svg width="24" height="24" viewBox="0 0 24 24" fill="none" xmlns="http://www.w3.org/2000/svg">
<path fill-rule="evenodd" clip-rule="evenodd" d="M22 22H2V2H22V22ZM10.1816 20.1816H13.8184V16.5459H10.1816V20.1816ZM16.5459 20.1816H20.1816V16.5459H16.5459V20.1816ZM3.81836 20.1816H7.4541V16.5459H3.81836V20.1816ZM10.1816 13.8184H13.8184V10.1816H10.1816V13.8184ZM16.5459 13.8184H20.1816V10.1816H16.5459V13.8184ZM3.81836 13.8184H7.4541V10.1816H3.81836V13.8184ZM10.1816 7.4541H13.8184V3.81836H10.1816V7.4541ZM16.5459 7.4541H20.1816V3.81836H16.5459V7.4541ZM3.81836 7.4541H7.4541V3.81836H3.81836V7.4541Z" fill="#FF69B4"/>
</svg>
