<svg width="24" height="24" viewBox="0 0 24 24" fill="none" xmlns="http://www.w3.org/2000/svg">
<path fill-rule="evenodd" clip-rule="evenodd" d="M14.7273 14.7273H9.27273V9.27273H14.7273V14.7273ZM10.1818 13.8182H13.8182V10.1818H10.1818V13.8182Z" fill="#FF69B4"/>
<path fill-rule="evenodd" clip-rule="evenodd" d="M22 22H2V2H22V22ZM3.81818 20.1818H7.45455V16.5455H3.81818V20.1818ZM8.36364 8.36364H3.81818V9.27273H8.36364V14.7273H3.81818V15.6364H8.36364V20.1818H9.27273V15.6364H14.7273V20.1818H15.6364V15.6364H20.1818V14.7273H15.6364V9.27273H20.1818V8.36364H15.6364V3.81818H14.7273V8.36364H9.27273V3.81818H8.36364V8.36364ZM10.1818 20.1818H13.8182V16.5455H10.1818V20.1818ZM16.5455 20.1818H20.1818V16.5455H16.5455V20.1818ZM3.81818 13.8182H7.45455V10.1818H3.81818V13.8182ZM16.5455 13.8182H20.1818V10.1818H16.5455V13.8182ZM3.81818 7.45455H7.45455V3.81818H3.81818V7.45455ZM10.1818 7.45455H13.8182V3.81818H10.1818V7.45455ZM16.5455 7.45455H20.1818V3.81818H16.5455V7.45455Z" fill="#FF69B4"/>
</svg>
