<svg width="32" height="32" viewBox="0 0 32 32" fill="none" xmlns="http://www.w3.org/2000/svg">
<path d="M29.3334 16C29.3334 8.6362 23.3638 2.66666 16 2.66666C8.63624 2.66666 2.66671 8.6362 2.66671 16H6.30307C6.30307 10.6445 10.6446 6.30302 16 6.30302C21.3555 6.30302 25.697 10.6445 25.697 16H29.3334Z" fill="#FF69B4"/>
<path d="M16 1.33333C24.1002 1.33333 30.6667 7.89982 30.6667 16V17.3333H24.3633V16C24.3633 11.3809 20.6192 7.63671 16 7.63671C11.3809 7.63671 7.63676 11.3809 7.63676 16V17.3333H1.33337V16C1.33337 7.89982 7.89986 1.33333 16 1.33333ZM29.3334 16C29.3334 8.6362 23.3638 2.66666 16 2.66666C8.63624 2.66666 2.66671 8.6362 2.66671 16H6.30307C6.30307 10.6445 10.6446 6.30302 16 6.30302L16.4987 6.3151C21.6225 6.57465 25.697 10.8118 25.697 16H29.3334Z" fill="black"/>
<path d="M16 13.3333L18.6667 16L16 18.6667L13.3334 16L16 13.3333Z" fill="#FF69B4"/>
<path d="M18.6667 16L16 13.3333L13.3334 16L16 18.6667L18.6667 16ZM16 20.5517L11.448 15.9997L16 11.4477L20.552 15.9997L16 20.5517Z" fill="black"/>
</svg>
