<svg width="32" height="32" viewBox="0 0 32 32" fill="none" xmlns="http://www.w3.org/2000/svg">
<path d="M16 13.3333L18.6667 16L16 18.6667L13.3333 16L16 13.3333Z" fill="#FF69B4"/>
<path d="M18.6667 16L16 13.3333L13.3333 16L16 18.6667L18.6667 16ZM16 20.5517L11.448 15.9997L16 11.4477L20.552 15.9997L16 20.5517Z" fill="black"/>
<path d="M8 16L16 8L24 16H28L16 4L4 16L8 16Z" fill="#FF69B4"/>
<path d="M23.4479 17.3333L16 9.88541L8.55208 17.3333H0.78125L16 2.11458L31.2188 17.3333H23.4479ZM16 4L4 16L8 16L16 8L24 16H28L16 4Z" fill="black"/>
</svg>
