<svg width="32" height="32" viewBox="0 0 32 32" fill="none" xmlns="http://www.w3.org/2000/svg">
<path d="M16 13.7436L18.4616 16.2051L16 18.6667L13.5385 16.2051L16 13.7436Z" fill="#FF69B4"/>
<path d="M18.4616 16.2051L16 13.7436L13.5385 16.2051L16 18.6667L18.4616 16.2051ZM16 20.5532L11.6524 16.2056L16 11.858L20.3476 16.2056L16 20.5532Z" fill="black"/>
<path d="M25.697 16V6.30303H6.30307L6.30307 16H2.66671L2.66671 2.66666L29.3334 2.66666V16H25.697Z" fill="#FF69B4"/>
<path d="M6.30307 16L6.30307 6.30303H25.697V16H29.3334V2.66666L2.66671 2.66666L2.66671 16H6.30307ZM24.3633 17.3333V7.63671L7.63676 7.63671L7.63676 17.3333H1.33337L1.33337 1.33333L30.6667 1.33333V17.3333H24.3633Z" fill="black"/>
</svg>
