<svg width="32" height="32" viewBox="0 0 32 32" fill="none" xmlns="http://www.w3.org/2000/svg">
<path d="M16 13.3333L18.6667 16L16 18.6667L13.3334 16L16 13.3333Z" fill="#FF69B4"/>
<path d="M18.6667 16L16 13.3333L13.3334 16L16 18.6667L18.6667 16ZM16 20.5517L11.448 15.9997L16 11.4477L20.552 15.9997L16 20.5517Z" fill="black"/>
<path d="M25.697 16V6.30303H6.30307L6.30307 16H2.66671L2.66671 2.66666L29.3334 2.66666V16H25.697Z" fill="#FF69B4"/>
<path d="M6.30307 16L6.30307 6.30303H25.697V16H29.3334V2.66666L2.66671 2.66666L2.66671 16H6.30307ZM24.3633 17.3333V7.63671L7.63676 7.63671L7.63676 17.3333H1.33337L1.33337 1.33333L30.6667 1.33333V17.3333H24.3633Z" fill="black"/>
</svg>
