<svg width="32" height="32" viewBox="0 0 32 32" fill="none" xmlns="http://www.w3.org/2000/svg">
<path d="M11.6761 16.4006H13.4194L15.9863 23.7376L18.5532 16.4006H20.2965L16.6864 26.3937H15.2862L11.6761 16.4006ZM10.7358 16.4006H12.4723L12.788 23.5523V26.3937H10.7358V16.4006ZM19.5004 16.4006H21.2437V26.3937H19.1847V23.5523L19.5004 16.4006Z" fill="#FF69B4"/>
<path d="M14.3659 15.0669L15.9857 19.6984L17.6068 15.0669H22.5769V27.7271H17.8516V27.0916L17.6224 27.7271H16.0026L15.9857 27.7752L15.9688 27.7271H14.3503L14.1211 27.0916V27.7271H9.40238V15.0669H14.3659ZM12.788 26.3937V23.5523L12.5821 18.912L15.2862 26.3937H16.6864L19.3894 18.912L19.1847 23.5523V26.3937H21.2437V16.4006H18.5532L15.9863 23.7376L13.4194 16.4006H10.7358V26.3937H12.788Z" fill="black"/>
<path d="M29.3334 16C29.3334 8.63621 23.3638 2.66668 16 2.66668C8.63624 2.66668 2.66671 8.63621 2.66671 16H6.30307C6.30307 10.6445 10.6446 6.30304 16 6.30304C21.3555 6.30304 25.697 10.6445 25.697 16H29.3334Z" fill="#FF69B4"/>
<path d="M16 1.33334C24.1002 1.33334 30.6667 7.89983 30.6667 16V17.3333H24.3633V16C24.3633 11.3809 20.6192 7.63673 16 7.63673C11.3809 7.63673 7.63676 11.3809 7.63676 16V17.3333H1.33337V16C1.33337 7.89983 7.89986 1.33334 16 1.33334ZM29.3334 16C29.3334 8.63621 23.3638 2.66668 16 2.66668C8.63624 2.66668 2.66671 8.63621 2.66671 16H6.30307C6.30307 10.6445 10.6446 6.30304 16 6.30304L16.4987 6.31511C21.6225 6.57466 25.697 10.8118 25.697 16H29.3334Z" fill="black"/>
</svg>
