<svg width="32" height="32" viewBox="0 0 32 32" fill="none" xmlns="http://www.w3.org/2000/svg">
<path d="M8 16.9085L16 8.90852L24 16.9085H28L16 4.90852L4 16.9085L8 16.9085Z" fill="#FF69B4"/>
<path d="M23.4479 18.2419L16 10.7939L8.55208 18.2419H0.78125L16 3.0231L31.2188 18.2419H23.4479ZM16 4.90852L4 16.9085L8 16.9085L16 8.90852L24 16.9085H28L16 4.90852Z" fill="black"/>
<path d="M11.6761 17.6023H13.4194L15.9863 24.9392L18.5532 17.6023H20.2965L16.6863 27.5954H15.2862L11.6761 17.6023ZM10.7358 17.6023H12.4722L12.7879 24.7539V27.5954H10.7358V17.6023ZM19.5003 17.6023H21.2436V27.5954H19.1846V24.7539L19.5003 17.6023Z" fill="#FF69B4"/>
<path d="M14.3659 16.2685L15.9857 20.9001L17.6068 16.2685H22.5768V28.9287H17.8516V28.2933L17.6224 28.9287H16.0026L15.9857 28.9769L15.9688 28.9287H14.3503L14.1211 28.2933V28.9287H9.40234V16.2685H14.3659ZM12.7879 27.5954V24.7539L12.582 20.1136L15.2862 27.5954H16.6863L19.3893 20.1136L19.1846 24.7539V27.5954H21.2436V17.6023H18.5532L15.9863 24.9392L13.4194 17.6023H10.7358V27.5954H12.7879Z" fill="black"/>
</svg>
