<svg width="32" height="32" viewBox="0 0 32 32" fill="none" xmlns="http://www.w3.org/2000/svg">
<path d="M8 16L16 8.00001L24 16H28L16 4.00001L4 16L8 16Z" fill="#FF69B4"/>
<path d="M23.4479 17.3333L16 9.88543L8.55208 17.3333H0.78125L16 2.11459L31.2188 17.3333H23.4479ZM16 4.00001L4 16L8 16L16 8.00001L24 16H28L16 4.00001Z" fill="black"/>
<path d="M11.6761 16.6736H13.4194L15.9863 24.0105L18.5532 16.6736H20.2965L16.6863 26.6667H15.2862L11.6761 16.6736ZM10.7358 16.6736H12.4722L12.7879 23.8252V26.6667H10.7358V16.6736ZM19.5003 16.6736H21.2436V26.6667H19.1846V23.8252L19.5003 16.6736Z" fill="#FF69B4"/>
<path d="M14.3659 15.3399L15.9857 19.9714L17.6068 15.3399H22.5768V28H17.8516V27.3646L17.6224 28H16.0026L15.9857 28.0482L15.9688 28H14.3503L14.1211 27.3646V28H9.40234V15.3399H14.3659ZM12.7879 26.6667V23.8252L12.582 19.1849L15.2862 26.6667H16.6863L19.3893 19.1849L19.1846 23.8252V26.6667H21.2436V16.6736H18.5532L15.9863 24.0105L13.4194 16.6736H10.7358V26.6667H12.7879Z" fill="black"/>
</svg>
