<svg width="32" height="32" viewBox="0 0 32 32" fill="none" xmlns="http://www.w3.org/2000/svg">
<path d="M17.0021 7.34023V17.3333H14.9499V7.34023H17.0021ZM20.0769 7.34023V8.95313H11.9232V7.34023H20.0769Z" fill="#FF69B4"/>
<path d="M20.0769 7.34023H11.9232V8.95313L14.9505 8.95351L14.9499 17.3333H17.0021L17.0026 8.95351L20.0769 8.95313V7.34023ZM21.4102 10.2868H18.3359V18.6671H13.6172V10.2868H10.5899V6.0069H21.4102V10.2868Z" fill="black"/>
<path d="M16 28C23.3638 28 29.3334 22.0305 29.3334 14.6667H25.697C25.697 20.0222 21.3555 24.3636 16 24.3636C10.6446 24.3636 6.30307 20.0222 6.30307 14.6667H2.66671C2.66671 22.0305 8.63624 28 16 28Z" fill="#FF69B4"/>
<path d="M6.30307 14.6667H2.66671C2.66671 22.0305 8.63624 28 16 28C23.3638 28 29.3334 22.0305 29.3334 14.6667H25.697C25.697 20.0222 21.3555 24.3636 16 24.3636V23.0299C20.6192 23.0299 24.3633 19.2858 24.3633 14.6667V13.3333H30.6667V14.6667C30.6667 22.7668 24.1002 29.3333 16 29.3333C7.89986 29.3333 1.33337 22.7668 1.33337 14.6667V13.3333H7.63676V14.6667C7.63676 19.2858 11.3809 23.0299 16 23.0299V24.3636C10.8118 24.3636 6.57469 20.2891 6.31515 15.1654L6.30307 14.6667Z" fill="black"/>
</svg>
