<svg width="32" height="32" viewBox="0 0 32 32" fill="none" xmlns="http://www.w3.org/2000/svg">
<path d="M24 16L16 24L8 16H4L16 28L28 16H24Z" fill="#FF69B4"/>
<path d="M8.55208 14.6667L16 22.1146L23.4479 14.6667H31.2188L16 29.8854L0.78125 14.6667H8.55208ZM16 28L28 16H24L16 24L8 16H4L16 28Z" fill="black"/>
<path d="M17.0021 7.34023V17.3333H14.9499V7.34023H17.0021ZM20.0769 7.34023V8.95312H11.9231V7.34023H20.0769Z" fill="#FF69B4"/>
<path d="M20.0769 7.34023H11.9231V8.95312L14.9505 8.95311L14.9499 17.3333H17.0021L17.0026 8.95311L20.0769 8.95312V7.34023ZM21.4102 10.2864H18.3359V18.6667H13.6172V10.2864H10.5898V6.0065H21.4102V10.2864Z" fill="black"/>
</svg>
