<svg width="32" height="32" viewBox="0 0 32 32" fill="none" xmlns="http://www.w3.org/2000/svg">
<path fill-rule="evenodd" clip-rule="evenodd" d="M16 29.4444C23.4252 29.4444 29.4445 23.4252 29.4445 16C29.4445 8.57484 23.4252 2.55556 16 2.55556C8.57488 2.55556 2.5556 8.57484 2.5556 16C2.5556 23.4252 8.57488 29.4444 16 29.4444ZM16 25.7778C21.4002 25.7778 25.7778 21.4001 25.7778 16C25.7778 10.5999 21.4002 6.22222 16 6.22222C10.5999 6.22222 6.22226 10.5999 6.22226 16C6.22226 21.4001 10.5999 25.7778 16 25.7778Z" fill="#FF69B4"/>
<path d="M16 1.33334C24.1002 1.33334 30.6667 7.89983 30.6667 16C30.6667 24.1002 24.1002 30.6667 16 30.6667C7.89986 30.6667 1.33337 24.1002 1.33337 16C1.33337 7.89983 7.89986 1.33334 16 1.33334ZM16 2.55556C8.57488 2.55556 2.5556 8.57484 2.5556 16C2.5556 23.4252 8.57488 29.4444 16 29.4444C23.4252 29.4444 29.4445 23.4252 29.4445 16C29.4445 8.57484 23.4252 2.55556 16 2.55556ZM16 6.22222C21.4002 6.22222 25.7778 10.5999 25.7778 16C25.7778 21.4001 21.4002 25.7778 16 25.7778C10.5999 25.7778 6.22226 21.4001 6.22226 16C6.22226 10.5999 10.5999 6.22222 16 6.22222ZM16 7.44445C11.2749 7.44445 7.44449 11.2749 7.44449 16C7.44449 20.7251 11.2749 24.5556 16 24.5556C20.7251 24.5556 24.5556 20.7251 24.5556 16C24.5556 11.2749 20.7251 7.44445 16 7.44445Z" fill="black"/>
<path d="M16 13.5556L18.4445 16L16 18.4444L13.5556 16L16 13.5556Z" fill="#FF69B4"/>
<path d="M18.4445 16L16 13.5556L13.5556 16L16 18.4444L18.4445 16ZM16 20.1724L11.8274 15.9997L16 11.8271L20.1727 15.9997L16 20.1724Z" fill="black"/>
</svg>
