<svg width="32" height="32" viewBox="0 0 32 32" fill="none" xmlns="http://www.w3.org/2000/svg">
<path d="M16 13.1833L18.8167 16L16 18.8167L13.1833 16L16 13.1833Z" fill="#FF69B4"/>
<path d="M18.8167 16L16 13.1833L13.1833 16L16 18.8167L18.8167 16ZM16 20.8078L11.1919 15.9997L16 11.1916L20.8082 15.9997L16 20.8078Z" fill="black"/>
<path fill-rule="evenodd" clip-rule="evenodd" d="M16 3.32483L28.6752 16L16 28.6752L3.32487 16L16 3.32483ZM16 7.54989L24.4502 16L16 24.4501L7.54993 16L16 7.54989Z" fill="#FF69B4"/>
<path d="M30.6667 16L16 30.6667L1.33337 16L16 1.33334L30.6667 16ZM3.32487 16L16 28.6752L28.6752 16L16 3.32483L3.32487 16ZM24.4502 16L16 24.4501L7.54993 16L16 7.54989L24.4502 16ZM9.54143 16L16 22.4586L22.4587 16L16 9.54139L9.54143 16Z" fill="black"/>
</svg>
