<svg width="32" height="32" viewBox="0 0 32 32" fill="none" xmlns="http://www.w3.org/2000/svg">
<path fill-rule="evenodd" clip-rule="evenodd" d="M25.7778 25.7778L25.7778 6.22223H6.22226L6.22226 25.7778H25.7778ZM29.4445 2.55556L2.5556 2.55556L2.5556 29.4444L29.4445 29.4445L29.4445 2.55556Z" fill="#FF69B4"/>
<path d="M1.33337 30.6667L1.33338 1.33334L30.6667 1.33334L30.6667 30.6667L1.33337 30.6667ZM2.5556 2.55556L2.5556 29.4444L29.4445 29.4445L29.4445 2.55556L2.5556 2.55556ZM25.7778 25.7778H6.22226L6.22226 6.22223H25.7778L25.7778 25.7778ZM7.44449 7.44445L7.44449 24.5556H24.5556V7.44445L7.44449 7.44445Z" fill="black"/>
<path d="M16 13.5556L18.4445 16L16 18.4444L13.5556 16L16 13.5556Z" fill="#FF69B4"/>
<path d="M18.4445 16L16 13.5556L13.5556 16L16 18.4444L18.4445 16ZM16 20.1724L11.8274 15.9997L16 11.8271L20.1727 15.9997L16 20.1724Z" fill="black"/>
</svg>
