<svg width="32" height="32" viewBox="0 0 32 32" fill="none" xmlns="http://www.w3.org/2000/svg">
<path d="M29.8336 2.16669V29.8337H2.16663V2.16669H29.8336ZM22.5612 26.4089H26.4088V22.5612H22.5612V26.4089ZM14.0758 26.4089H17.9244V22.5612H14.0758V26.4089ZM5.59143 26.4089H9.43909V22.5612H5.59143V26.4089ZM22.5612 17.9245H26.4088V14.0759H22.5612V17.9245ZM14.0758 17.9245H17.9244V14.0759H14.0758V17.9245ZM5.59143 17.9245H9.43909V14.0759H5.59143V17.9245ZM22.5612 9.43915H26.4088V5.59149H22.5612V9.43915ZM14.0758 9.43915H17.9244V5.59149H14.0758V9.43915ZM5.59143 9.43915H9.43909V5.59149H5.59143V9.43915Z" fill="#FF69B4" stroke="black"/>
</svg>
