<svg width="32" height="32" viewBox="0 0 32 32" fill="none" xmlns="http://www.w3.org/2000/svg">
<path d="M29.8336 2.16669V29.8337H2.16663V2.16669H29.8336ZM22.5602 26.4089H26.4088V22.5602H22.5602V26.4089ZM11.651 11.6511H5.59045V11.864H11.651V20.1364H5.59045V20.3483H11.651V26.4089H11.8639V20.3483H20.1364V26.4089H20.3483V20.3483H26.4088V20.1364H20.3483V11.864H26.4088V11.6511H20.3483V5.59052H20.1364V11.6511H11.8639V5.59052H11.651V11.6511ZM14.0758 26.4089H17.9244V22.5602H14.0758V26.4089ZM5.59045 26.4089H9.43909V22.5602H5.59045V26.4089ZM20.1364 11.864V20.1364H11.8639V11.864H20.1364ZM22.5602 17.9245H26.4088V14.0759H22.5602V17.9245ZM14.0758 17.9245H17.9244V14.0759H14.0758V17.9245ZM5.59045 17.9245H9.43909V14.0759H5.59045V17.9245ZM22.5602 9.43915H26.4088V5.59052H22.5602V9.43915ZM14.0758 9.43915H17.9244V5.59052H14.0758V9.43915ZM5.59045 9.43915H9.43909V5.59052H5.59045V9.43915Z" fill="#FF69B4" stroke="black"/>
</svg>
