<svg width="32" height="32" viewBox="0 0 32 32" fill="none" xmlns="http://www.w3.org/2000/svg">
<path d="M15.9996 2.16669C23.6395 2.16669 29.8334 8.35991 29.8336 15.9997C29.8336 23.6396 23.6396 29.8337 15.9996 29.8337C8.35984 29.8335 2.16663 23.6395 2.16663 15.9997C2.1668 8.36001 8.35995 2.16686 15.9996 2.16669ZM15.9996 6.80341C10.9205 6.80358 6.80352 10.9206 6.80334 15.9997C6.80334 21.0789 10.9204 25.1968 15.9996 25.197C21.079 25.197 25.1969 21.079 25.1969 15.9997C25.1967 10.9205 21.0789 6.80341 15.9996 6.80341ZM15.9996 12.863C14.2784 12.8632 12.8818 14.2508 12.8649 15.9684C12.8865 17.6821 14.2814 19.065 15.9996 19.0651C17.7177 19.0651 19.1127 17.6824 19.1344 15.9684L19.1285 15.8083C19.0296 14.1651 17.667 12.863 15.9996 12.863ZM23.7711 15.9714C23.7714 15.9785 23.7721 15.9884 23.7721 15.9997V16.0046C23.7307 20.2619 20.2667 23.7009 15.9996 23.7009C11.7341 23.7007 8.27291 20.2645 8.22913 16.0095L8.22815 15.9372L8.22717 15.9235H8.22815C8.26925 11.666 11.7326 8.22838 15.9996 8.22821C20.2669 8.22821 23.73 11.666 23.7711 15.9235V15.9714Z" fill="#FF69B4" stroke="black"/>
</svg>
