<svg width="24" height="24" viewBox="0 0 24 24" fill="none" xmlns="http://www.w3.org/2000/svg">
  <path d="M12 6.16669C12.8947 6.16669 13.7423 6.3681 14.5 6.72805V3.66669H5.74999C4.5994 3.66669 3.66666 4.59943 3.66666 5.75002V9.91669H6.54968C7.38837 7.72388 9.51233 6.16669 12 6.16669Z" fill="#898989"/>
  <path d="M18.25 20.3334H15.75V16.4684C17.0237 15.3984 17.8333 13.7938 17.8333 12C17.8333 10.2063 17.0237 8.60165 15.75 7.53159V3.66669H18.25C19.4006 3.66669 20.3333 4.59943 20.3333 5.75002V18.25C20.3333 19.4006 19.4006 20.3334 18.25 20.3334Z" fill="#898989"/>
  <path d="M3.66666 11.1667H6.22573C6.1868 11.4389 6.16666 11.7171 6.16666 12C6.16666 14.327 7.5292 16.3358 9.49999 17.272V20.3334H5.74999C4.5994 20.3334 3.66666 19.4006 3.66666 18.25V11.1667Z" fill="#898989"/>
  <path d="M14.5 20.3334H10.75V17.6991C11.1527 17.787 11.5709 17.8334 12 17.8334C12.8947 17.8334 13.7423 17.6319 14.5 17.272V20.3334Z" fill="#898989"/>
  <path d="M14.5598 15.3927L12.0804 12.9132L9.55054 15.443L8.66666 14.5591L11.1965 12.0293L8.66729 9.50011L9.55117 8.61623L12.0804 11.1454L14.5592 8.66659L15.4431 9.55048L12.9643 12.0293L15.4437 14.5088L14.5598 15.3927Z" fill="#898989"/>
</svg>
