<svg width="24" height="24" viewBox="0 0 24 24" fill="none" xmlns="http://www.w3.org/2000/svg">
  <path d="M11 9H13L12.75 14.4999L11.25 14.5L11 9Z" fill="currentColor"/>
  <path d="M12 17.5C12.5523 17.5 13 17.0523 13 16.5C13 15.9477 12.5523 15.5 12 15.5C11.4477 15.5 11 15.9477 11 16.5C11 17.0523 11.4477 17.5 12 17.5Z" fill="currentColor"/>
  <path fill-rule="evenodd" clip-rule="evenodd" d="M11.1738 3.46897C11.5461 2.80722 12.491 2.78538 12.8934 3.42923L21 18.5C21.4163 19.166 20.9813 20 20.1959 20H3.70999C2.94517 20 2.62508 19.1666 3.00004 18.5L11.1738 3.46897ZM4.56492 18.5L12 5L19.5 18.5L4.56492 18.5Z" fill="currentColor"/>
</svg>
