<svg width="24" height="24" viewBox="0 0 24 24" fill="none" xmlns="http://www.w3.org/2000/svg">
  <path d="M21.8159 4.93204C21.3845 4.11013 20.4043 3.81467 19.6257 4.2686L14.8702 7.00027L5.7217 4.08595C5.60173 4.03223 5.47154 4 5.33115 4C4.79 4 4.3535 4.45931 4.3535 5.02874C4.3535 5.32689 4.47603 5.59549 4.66747 5.78351L4.67513 5.78888C4.71597 5.82917 4.76192 5.86409 4.81042 5.89632L9.81098 9.90653L6.93164 11.5584L3.16144 10.7258C3.05933 10.6774 2.94702 10.6532 2.8296 10.6532C2.37268 10.6532 2 11.0427 2 11.5262C2 11.7464 2.07658 11.9452 2.20421 12.0983L2.20676 12.101C2.25781 12.1628 2.31652 12.2165 2.38289 12.2595L4.30245 14H9.2443L21.2467 7.02982C21.9512 6.61617 22.209 5.67875 21.8159 4.93204Z" fill="currentColor"/>
  <path d="M12.75 15H11.25V16.75H9.5V18.25H11.25V20H12.75V18.25H14.5V16.75H12.75V15Z" fill="currentColor"/>
</svg>
