<svg width="24" height="24" viewBox="0 0 24 24" fill="none" xmlns="http://www.w3.org/2000/svg">
  <path d="M2 14C2 13.1716 2.67157 12.5 3.5 12.5H6.5C7.32843 12.5 8 13.1716 8 14V17C8 17.8284 7.32843 18.5 6.5 18.5H3.5C2.67157 18.5 2 17.8284 2 17V14Z" fill="#898989"/>
  <path d="M16 14C16 13.1716 16.6716 12.5 17.5 12.5H20.5C21.3284 12.5 22 13.1716 22 14V17C22 17.8284 21.3284 18.5 20.5 18.5H17.5C16.6716 18.5 16 17.8284 16 17V14Z" fill="#898989"/>
  <path d="M9 14C9 13.1716 9.67157 12.5 10.5 12.5H13.5C14.3284 12.5 15 13.1716 15 14V17C15 17.8284 14.3284 18.5 13.5 18.5H10.5C9.67157 18.5 9 17.8284 9 17V14Z" fill="#898989"/>
  <path d="M9 7C9 6.17157 9.67157 5.5 10.5 5.5H13.5C14.3284 5.5 15 6.17157 15 7V10C15 10.8284 14.3284 11.5 13.5 11.5H10.5C9.67157 11.5 9 10.8284 9 10V7Z" fill="#898989"/>
  <path d="M13.5 15L12 17L10.5 15H13.5Z" fill="#222222"/>
  <path d="M6 17L4 15.5L6 14V17Z" fill="#222222"/>
  <path d="M18 14L20 15.5L18 17V14Z" fill="#222222"/>
  <path d="M10.5 9.5L12 7.5L13.5 9.5L10.5 9.5Z" fill="#222222"/>
</svg>
