<svg width="24" height="24" viewBox="0 0 24 24" fill="none" xmlns="http://www.w3.org/2000/svg">
  <path d="M20 9L19 11H16L15 9L16 8H17V7H18V8H19L20 9ZM21 19.5V20H3C3 20 3 21 3 19.5C3 18 4.5 18 4.5 18L16 18V12H19V18C19 18 18 18 19.5 18C21 18 21 19.5 21 19.5Z" fill="currentColor"/>
  <path d="M17.8619 3.65243C17.5384 3.07709 16.8032 2.87027 16.2193 3.18802L12.6527 5.10019L5.79128 3.06017C5.7013 3.02256 5.60366 3 5.49836 3C5.0925 3 4.76513 3.32152 4.76513 3.72012C4.76513 3.92882 4.85702 4.11684 5.00061 4.24846L5.00635 4.25222C5.03698 4.28042 5.07144 4.30486 5.10782 4.32742L8.85823 7.13457L6.69873 8.29089L3.87108 7.70803C3.7945 7.67419 3.71026 7.65727 3.6222 7.65727C3.27951 7.65727 3 7.9299 3 8.26833C3 8.42251 3.05743 8.56164 3.15316 8.66882L3.15507 8.6707C3.19336 8.71394 3.23739 8.75154 3.28717 8.78163L4.72684 10H8.43322L17.435 5.12087C17.9634 4.83132 18.1567 4.17513 17.8619 3.65243Z" fill="currentColor"/>
</svg>
