<svg width="24" height="24" viewBox="0 0 24 24" fill="none" xmlns="http://www.w3.org/2000/svg">
  <path fill-rule="evenodd" clip-rule="evenodd" d="M17.259 7.70714L12.8733 12.3107H11.797L11.8126 11.25L16.1983 6.64648L17.259 7.70714Z" fill="#898989"/>
  <path fill-rule="evenodd" clip-rule="evenodd" d="M18.818 1.95264L22 5.13462L19.0813 8.05327L16.269 7.683L15.8994 4.87122L18.818 1.95264ZM18.818 4.07396L17.483 5.40896L17.6062 6.34611L18.5438 6.46955L19.8787 5.13462L18.818 4.07396Z" fill="#898989"/>
  <path fill-rule="evenodd" clip-rule="evenodd" d="M22 5.13462L18.818 1.95264L15.8994 4.87122L16.1406 6.70696L11.8126 11.25L11.797 12.3107H12.8733L17.1689 7.80151L19.0813 8.05327L22 5.13462ZM17.483 5.40896L18.818 4.07396L19.8787 5.13462L18.5438 6.46955L17.6062 6.34611L17.483 5.40896Z" fill="#898989"/>
  <path d="M14.8836 4.44875C13.9886 4.10463 13.0164 3.91602 12.0002 3.91602C7.56188 3.91602 3.96387 7.51402 3.96387 11.9524C3.96387 16.3908 7.56188 19.9888 12.0002 19.9888C16.4386 19.9888 20.0366 16.3908 20.0366 11.9524C20.0366 10.9268 19.8445 9.94605 19.4943 9.04421L17.7716 8.88113C18.2599 9.79676 18.5366 10.8423 18.5366 11.9524C18.5366 15.5623 15.6102 18.4888 12.0002 18.4888C8.3903 18.4888 5.46387 15.5623 5.46387 11.9524C5.46387 8.34245 8.3903 5.41602 12.0002 5.41602C13.1087 5.41602 14.1527 5.69194 15.0674 6.17884L14.8836 4.44875Z" fill="#898989"/>
  <path d="M14.1128 7.38604C13.4617 7.07954 12.7344 6.9082 11.967 6.9082C9.18121 6.9082 6.92285 9.16656 6.92285 11.9524C6.92285 14.7382 9.18121 16.9966 11.967 16.9966C14.7529 16.9966 17.0112 14.7382 17.0112 11.9524C17.0112 11.2146 16.8528 10.5138 16.5682 9.8822L15.4081 11.1C15.4755 11.373 15.5112 11.6585 15.5112 11.9524C15.5112 13.9098 13.9244 15.4966 11.967 15.4966C10.0096 15.4966 8.42285 13.9098 8.42285 11.9524C8.42285 9.99499 10.0096 8.4082 11.967 8.4082C12.3245 8.4082 12.6695 8.46111 12.9948 8.55953L14.1128 7.38604Z" fill="#898989"/>
  <path d="M13.9455 9.01139L14.9906 7.91443C15.3926 8.21595 15.7481 8.5761 16.0445 8.9822L14.9854 10.0938C14.7197 9.66322 14.3644 9.29374 13.9455 9.01139Z" fill="#898989"/>
  <path d="M17.1047 7.86929C16.7913 7.47793 16.4337 7.12341 16.0397 6.81323L16.1406 6.70696L15.9069 4.92781C16.5195 5.2692 17.0827 5.6884 17.5833 6.17203L17.6062 6.34611L17.7805 6.3692C18.2643 6.86991 18.6835 7.4333 19.025 8.04599L17.1689 7.80151L17.1047 7.86929Z" fill="#898989"/>
</svg>
