<svg width="24" height="24" viewBox="0 0 24 24" fill="none" xmlns="http://www.w3.org/2000/svg">
  <path d="M18.3 4.8H14.538C14.16 3.756 13.17 3 12 3C10.83 3 9.84 3.756 9.462 4.8H5.7C4.71 4.8 3.9 5.61 3.9 6.6V19.2C3.9 20.19 4.71 21 5.7 21H18.3C19.29 21 20.1 20.19 20.1 19.2V6.6C20.1 5.61 19.29 4.8 18.3 4.8ZM12.9 18.3H11.1V16.5H12.9V18.3ZM12.9 14.7H11.1V9.3H12.9V14.7ZM12 6.6C11.505 6.6 11.1 6.195 11.1 5.7C11.1 5.205 11.505 4.8 12 4.8C12.495 4.8 12.9 5.205 12.9 5.7C12.9 6.195 12.495 6.6 12 6.6Z" fill="#898989"/>
</svg>
