<svg width="24" height="24" viewBox="0 0 24 24" fill="none" xmlns="http://www.w3.org/2000/svg">
  <path d="M3.9 10.5625H4.8V16.1875H3.9C3.78177 16.1876 3.66468 16.1635 3.55542 16.1164C3.44616 16.0694 3.34689 16.0003 3.26329 15.9132C3.17969 15.8262 3.1134 15.7227 3.06822 15.6089C3.02304 15.4951 2.99986 15.3732 3 15.25V11.5C2.99986 11.3768 3.02304 11.2549 3.06822 11.1411C3.1134 11.0273 3.17969 10.9238 3.26329 10.8368C3.34689 10.7497 3.44616 10.6806 3.55542 10.6336C3.66468 10.5865 3.78177 10.5624 3.9 10.5625ZM18.3 9.15625V17.125C18.2995 17.6221 18.1097 18.0988 17.7723 18.4503C17.4348 18.8018 16.9772 18.9995 16.5 19H7.5C7.02275 18.9995 6.56519 18.8018 6.22773 18.4503C5.89026 18.0988 5.70047 17.6221 5.7 17.125V9.15625C5.6999 8.84844 5.75804 8.54362 5.87108 8.25922C5.98411 7.97482 6.14984 7.7164 6.3588 7.49875C6.56775 7.28109 6.81582 7.10845 7.08885 6.9907C7.36187 6.87295 7.6545 6.8124 7.95 6.8125H11.1V4.9375C11.1 4.68886 11.1948 4.4504 11.3636 4.27459C11.5324 4.09877 11.7613 4 12 4C12.2387 4 12.4676 4.09877 12.6364 4.27459C12.8052 4.4504 12.9 4.68886 12.9 4.9375V6.8125H16.05C16.3455 6.8124 16.6381 6.87295 16.9112 6.9907C17.1842 7.10845 17.4323 7.28109 17.6412 7.49875C17.8502 7.7164 18.0159 7.97482 18.1289 8.25922C18.242 8.54362 18.3001 8.84844 18.3 9.15625ZM10.425 11.5C10.425 11.2682 10.359 11.0417 10.2354 10.8489C10.1118 10.6562 9.93609 10.506 9.73052 10.4173C9.52495 10.3286 9.29875 10.3054 9.08052 10.3506C8.86229 10.3959 8.66184 10.5075 8.5045 10.6714C8.34717 10.8352 8.24002 11.0441 8.19662 11.2714C8.15321 11.4987 8.17549 11.7343 8.26064 11.9485C8.34578 12.1626 8.48998 12.3456 8.67498 12.4744C8.85999 12.6031 9.0775 12.6719 9.3 12.6719C9.44774 12.6719 9.59404 12.6416 9.73053 12.5827C9.86703 12.5238 9.99105 12.4375 10.0955 12.3287C10.2 12.2198 10.2829 12.0907 10.3394 11.9485C10.3959 11.8063 10.425 11.6539 10.425 11.5ZM15.6354 15.25C15.6354 15.25 14.3196 14.3016 12 14.3016C9.68042 14.3016 8.4 15.25 8.4 15.25V16.1875C8.4 16.1875 9.20836 15.25 12 15.25C14.7916 15.25 15.6354 16.1875 15.6354 16.1875V15.25ZM15.825 11.5C15.825 11.2682 15.759 11.0417 15.6354 10.8489C15.5118 10.6562 15.3361 10.506 15.1305 10.4173C14.925 10.3286 14.6988 10.3054 14.4805 10.3506C14.2623 10.3959 14.0618 10.5075 13.9045 10.6714C13.7472 10.8352 13.64 11.0441 13.5966 11.2714C13.5532 11.4987 13.5755 11.7343 13.6606 11.9485C13.7458 12.1626 13.89 12.3456 14.075 12.4744C14.26 12.6031 14.4775 12.6719 14.7 12.6719C14.8477 12.6719 14.994 12.6416 15.1305 12.5827C15.267 12.5238 15.3911 12.4375 15.4955 12.3287C15.6 12.2198 15.6829 12.0907 15.7394 11.9485C15.7959 11.8063 15.825 11.6539 15.825 11.5ZM21 11.5V15.25C21.0001 15.3732 20.977 15.4951 20.9318 15.6089C20.8866 15.7227 20.8203 15.8262 20.7367 15.9132C20.6531 16.0003 20.5538 16.0694 20.4446 16.1164C20.3353 16.1635 20.2182 16.1876 20.1 16.1875H19.2V10.5625H20.1C20.2182 10.5624 20.3353 10.5865 20.4446 10.6336C20.5538 10.6806 20.6531 10.7497 20.7367 10.8368C20.8203 10.9238 20.8866 11.0273 20.9318 11.1411C20.977 11.2549 21.0001 11.3768 21 11.5Z" fill="currentColor"/>
</svg>
