<svg width="24" height="24" viewBox="0 0 24 24" fill="none" xmlns="http://www.w3.org/2000/svg">
  <path fill-rule="evenodd" clip-rule="evenodd" d="M5 6.45455L12 3L19 6.45455V10.6364C19 15.4295 16.3 19.9118 12 21C7.7 19.9118 5 15.4295 5 10.6364V6.45455ZM7 14.0385L11.2308 12.7692V15.3077L10.0769 16.5769V17L12 16.5769L13.9231 17V16.5769L12.7692 15.3077V12.7692L17 14.0385V13.1923L12.7692 10.2308V7.69231C12.7692 7.11058 12.3846 6 12 6C11.6154 6 11.2308 7.11058 11.2308 7.69231V10.2308L7 13.1923V14.0385Z" fill="currentColor"/>
</svg>
