<svg width="24" height="25" viewBox="0 0 24 25" fill="none" xmlns="http://www.w3.org/2000/svg">
  <path d="M4 18.5V17H6V10.5C6 9.11667 6.41667 7.88733 7.25 6.812C8.08333 5.73733 9.91667 5.03333 11.25 4.7V3.5H12.75V4.7C14.0833 5.03333 15.9167 5.73733 16.75 6.812C17.5833 7.88733 18 9.11667 18 10.5V17H20V18.5H4Z" fill="#898989"/>
  <path d="M10.588 20.913C10.9793 21.3043 11.45 21.5 12 21.5C12.55 21.5 13.021 21.3043 13.413 20.913C13.8043 20.521 14 20.05 14 19.5H10C10 20.05 10.196 20.521 10.588 20.913Z" fill="#898989"/>
</svg>
