<svg width="24" height="24" viewBox="0 0 24 24" fill="none" xmlns="http://www.w3.org/2000/svg">
  <path d="M10.7343 4.55701C11.6439 4.29147 14.6278 3.78907 17.9798 3.33681C20.4462 3.004 21.0981 2.94122 20.9885 3.04708C20.9536 3.08078 20.0724 3.3947 19.0303 3.74449C16.5239 4.58582 14.0719 5.59606 13.4828 6.02997C12.5878 6.68933 12.4701 8.15659 13.1973 9.59218C13.5365 10.2616 13.653 10.3623 14.5777 10.7855C15.1332 11.0396 16.3476 11.5022 17.2763 11.8131C18.205 12.1242 19.025 12.4362 19.0985 12.5065C19.1821 12.5864 18.5621 12.6343 17.4451 12.6343C16.4623 12.6343 15.6581 12.6659 15.6581 12.7043C15.6581 12.7429 15.9646 13.1862 16.3391 13.6896C16.7136 14.1929 17.0717 14.6907 17.1347 14.7957C17.2635 15.0099 17.2826 15.0193 16.0873 14.2852C14.9465 13.5846 13.1491 12.8083 12.3514 12.6716C11.3934 12.5074 10.622 12.6892 10.0652 13.2104C9.30273 13.9242 9.10587 15.2102 9.59864 16.2585C9.88978 16.8778 10.9203 18.3922 12.1096 19.9486C12.528 20.496 12.8451 20.9679 12.8145 20.9976C12.7272 21.082 9.93579 18.9485 8.30945 17.5543C5.99657 15.5718 4.5419 13.7161 4.5419 12.7479C4.5419 12.1746 4.88397 11.617 5.43921 11.2857C6.29108 10.7773 6.22635 10.5739 4.89368 9.57017C4.50672 9.27867 4.02225 8.87045 3.81709 8.66294C3.61193 8.45542 3.34275 8.28569 3.21907 8.28569C2.78441 8.28569 3.00209 8.0476 3.82286 7.62511C4.81389 7.11496 5.60539 7.07174 6.65257 7.47032C7.4777 7.78437 8.09993 7.81903 8.31986 7.563C8.40457 7.46448 8.54725 7.05163 8.63688 6.64571C8.8547 5.65979 9.64184 4.87582 10.7343 4.55701Z" fill="currentColor"/>
</svg>
