<svg xmlns="http://www.w3.org/2000/svg" width="24" height="24" viewBox="0 0 24 24" fill="none">
  <path d="M11.25 5.5L11.25 3H12.75L12.75 5.5L11.25 5.5Z" fill="#898989"/>
  <path fill-rule="evenodd" clip-rule="evenodd" d="M17 12C17 14.7614 14.7614 17 12 17C9.23858 17 7 14.7614 7 12C7 9.23858 9.23858 7 12 7C14.7614 7 17 9.23858 17 12ZM15.5 12C15.5 13.933 13.933 15.5 12 15.5C10.067 15.5 8.5 13.933 8.5 12C8.5 10.067 10.067 8.5 12 8.5C13.933 8.5 15.5 10.067 15.5 12Z" fill="#898989"/>
  <path d="M3 12.75H5.5V11.25H3V12.75Z" fill="#898989"/>
  <path d="M21 12.75H18.5V11.25H21V12.75Z" fill="#898989"/>
  <path d="M11.25 18.5V21H12.75V18.5H11.25Z" fill="#898989"/>
  <path d="M17.8091 5.13068L16.1684 6.77481L17.2301 7.83437L18.8709 6.19024L17.8091 5.13068Z" fill="#898989"/>
  <path d="M6.7784 7.84365L5.11705 6.206L6.17006 5.13775L7.83141 6.7754L6.7784 7.84365Z" fill="#898989"/>
  <path d="M16.1684 17.1952L17.8091 18.8393L18.8709 17.7797L17.2301 16.1356L16.1684 17.1952Z" fill="#898989"/>
  <path d="M5.11705 17.764L6.7784 16.1263L7.83141 17.1946L6.17006 18.8322L5.11705 17.764Z" fill="#898989"/>
</svg>
