<svg width="18" height="18" viewBox="0 0 18 18" fill="none" xmlns="http://www.w3.org/2000/svg">
  <path d="M8.25 2.5L8.25 0H9.75L9.75 2.5L8.25 2.5Z" fill="#898989"/>
  <path fill-rule="evenodd" clip-rule="evenodd" d="M14 9C14 11.7614 11.7614 14 9 14C6.23858 14 4 11.7614 4 9C4 6.23858 6.23858 4 9 4C11.7614 4 14 6.23858 14 9ZM12.5 9C12.5 10.933 10.933 12.5 9 12.5C7.067 12.5 5.5 10.933 5.5 9C5.5 7.067 7.067 5.5 9 5.5C10.933 5.5 12.5 7.067 12.5 9Z" fill="#898989"/>
  <path d="M0 9.75H2.5V8.25H0V9.75Z" fill="#898989"/>
  <path d="M18 9.75H15.5V8.25H18V9.75Z" fill="#898989"/>
  <path d="M8.25 15.5V18H9.75V15.5H8.25Z" fill="#898989"/>
  <path d="M14.8091 2.13068L13.1684 3.77481L14.2301 4.83437L15.8709 3.19024L14.8091 2.13068Z" fill="#898989"/>
  <path d="M3.7784 4.84365L2.11705 3.206L3.17006 2.13775L4.83141 3.7754L3.7784 4.84365Z" fill="#898989"/>
  <path d="M13.1684 14.1952L14.8091 15.8393L15.8709 14.7797L14.2301 13.1356L13.1684 14.1952Z" fill="#898989"/>
  <path d="M2.11705 14.764L3.7784 13.1263L4.83141 14.1946L3.17006 15.8322L2.11705 14.764Z" fill="#898989"/>
</svg>
