<svg width="24" height="24" viewBox="0 0 24 24" fill="none" xmlns="http://www.w3.org/2000/svg">
  <path fill-rule="evenodd" clip-rule="evenodd" d="M6.49997 2.99994L13 2.99994L19 8.99994C19 8.99994 19 18.4999 19 19.4999C19 20.4999 18.5 20.9999 17.5 20.9999C16.5 20.9999 6.49997 20.9999 6.49997 20.9999C5.49997 20.9999 4.99997 20.4999 4.99997 19.4999C4.99997 18.4999 4.99997 5.49994 4.99997 4.49994C4.99997 3.49994 5.49997 2.99994 6.49997 2.99994ZM17.5 19.4999V9.49994L12.5 4.49994H6.49997L6.31247 19.3124L17.5 19.4999Z" fill="#898989"/>
  <path d="M15.25 10.3494H14.345C14.12 9.95038 13.81 9.60762 13.435 9.34672L13.9 8.87095C14.095 8.67143 14.095 8.34913 13.9 8.14962C13.705 7.9501 13.39 7.9501 13.195 8.14962L12.46 8.90164C12.23 8.84537 11.995 8.81467 11.75 8.81467C11.505 8.81467 11.27 8.84537 11.045 8.90164L10.305 8.14962C10.11 7.9501 9.79498 7.9501 9.59999 8.14962C9.40499 8.34913 9.40499 8.67143 9.59999 8.87095L10.06 9.34672C9.68999 9.60762 9.37999 9.95038 9.15499 10.3494H8.24999C7.97499 10.3494 7.74999 10.5796 7.74999 10.861C7.74999 11.1424 7.97499 11.3726 8.24999 11.3726H8.79499C8.76999 11.5414 8.74999 11.7102 8.74999 11.8842V12.3957H8.24999C7.97499 12.3957 7.74999 12.626 7.74999 12.9073C7.74999 13.1887 7.97499 13.4189 8.24999 13.4189H8.74999V13.9305C8.74999 14.1044 8.76999 14.2732 8.79499 14.4421H8.24999C7.97499 14.4421 7.74999 14.6723 7.74999 14.9537C7.74999 15.235 7.97499 15.4652 8.24999 15.4652H9.15499C9.67499 16.381 10.64 17 11.75 17C12.86 17 13.825 16.381 14.345 15.4652H15.25C15.525 15.4652 15.75 15.235 15.75 14.9537C15.75 14.6723 15.525 14.4421 15.25 14.4421H14.705C14.73 14.2732 14.75 14.1044 14.75 13.9305V13.4189H15.25C15.525 13.4189 15.75 13.1887 15.75 12.9073C15.75 12.626 15.525 12.3957 15.25 12.3957H14.75V11.8842C14.75 11.7102 14.73 11.5414 14.705 11.3726H15.25C15.525 11.3726 15.75 11.1424 15.75 10.861C15.75 10.5796 15.525 10.3494 15.25 10.3494ZM12.25 14.4421H11.25C10.975 14.4421 10.75 14.2119 10.75 13.9305C10.75 13.6491 10.975 13.4189 11.25 13.4189H12.25C12.525 13.4189 12.75 13.6491 12.75 13.9305C12.75 14.2119 12.525 14.4421 12.25 14.4421ZM12.25 12.3957H11.25C10.975 12.3957 10.75 12.1655 10.75 11.8842C10.75 11.6028 10.975 11.3726 11.25 11.3726H12.25C12.525 11.3726 12.75 11.6028 12.75 11.8842C12.75 12.1655 12.525 12.3957 12.25 12.3957Z" fill="#898989"/>
</svg>
