<svg width="24" height="24" viewBox="0 0 24 24" fill="none" xmlns="http://www.w3.org/2000/svg">
  <path fill-rule="evenodd" clip-rule="evenodd" d="M5.63604 18.364C9.15076 21.8787 14.8492 21.8787 18.364 18.364C21.8787 14.8492 21.8787 9.15076 18.364 5.63604C14.8492 2.12132 9.15076 2.12132 5.63604 5.63604C2.12132 9.15076 2.12132 14.8492 5.63604 18.364ZM13.4142 12L16.9497 15.5355L15.5355 16.9497L12 13.4142L8.46447 16.9497L7.05025 15.5355L10.5858 12L7.05025 8.46447L8.46447 7.05025L12 10.5858C12 10.5858 14.8991 7.68665 15.5355 7.05025L16.879 8.39375C16.2426 9.03015 13.4142 12 13.4142 12Z" fill="#898989"/>
</svg>
