<svg width="24" height="24" viewBox="0 0 24 24" fill="none" xmlns="http://www.w3.org/2000/svg">
  <path fill-rule="evenodd" clip-rule="evenodd" d="M7.23607 4C6.47853 4 5.786 4.42798 5.44722 5.10559L3.21115 9.5777C3.0723 9.85541 3 10.1616 3 10.4721V19H6V17H18V19H21V10.4721C21 10.1616 20.9277 9.85541 20.7888 9.5777L18.5528 5.10559C18.214 4.42798 17.5215 4 16.7639 4H7.23607ZM7 6H17L19 10H5L7 6ZM8 13.5C8 14.3284 7.32843 15 6.5 15C5.67157 15 5 14.3284 5 13.5C5 12.6716 5.67157 12 6.5 12C7.32843 12 8 12.6716 8 13.5ZM17.5 15C18.3284 15 19 14.3284 19 13.5C19 12.6716 18.3284 12 17.5 12C16.6716 12 16 12.6716 16 13.5C16 14.3284 16.6716 15 17.5 15Z" fill="currentColor"/>
</svg>
