<svg width="24" height="24" viewBox="0 0 24 24" fill="none" xmlns="http://www.w3.org/2000/svg">
  <path d="M5.5 10H8.5V19.5C8.5 19.5 7.83 19.5 7 19.5C6.17 19.5 5.5 19.5 5.5 19.5V10ZM7 4.5C7.83 4.5 8.5 4.50001 8.5 4.50001V8.5H5.5V4.50001C5.5 4.50001 6.17 4.5 7 4.5ZM15.5 16H18.5V19.5C18.5 19.5 17.83 19.5 17 19.5C16.17 19.5 15.5 19.5 15.5 19.5V16ZM10.5 13H13.5V19.5C13.5 19.5 12.83 19.5 12 19.5C11.17 19.5 10.5 19.5 10.5 19.5V13ZM12 8.5C12.83 8.5 13.5 8.5 13.5 8.5V11.5H10.5V8.5C10.5 8.5 11.17 8.5 12 8.5ZM18.5 14.5H15.5V12.5C15.5 12.5 16.17 12.5 17 12.5C17.83 12.5 18.5 12.5 18.5 12.5V14.5Z" fill="#898989"/>
</svg>
