<svg width="24" height="24" viewBox="0 0 24 24" fill="none" xmlns="http://www.w3.org/2000/svg">
  <path fill-rule="evenodd" clip-rule="evenodd" d="M16.6667 6H7.33333C6.6 6 6 6.6 6 7.33333V16.6667C6 17.4 6.6 18 7.33333 18H16.6667C17.4 18 18 17.4 18 16.6667V7.33333C18 6.6 17.4 6 16.6667 6ZM9.62157 14.6516C11.0359 16.066 12.4448 14.6571 12.4448 14.6571L16.6872 10.4142L15.273 9L11.0301 13.2427L8.90886 11.1214L7.5 12.5303C7.91626 12.9403 8.08755 13.1125 8.4401 13.4669C8.69096 13.7191 9.0336 14.0635 9.62157 14.6516Z" fill="#898989"/>
</svg>
