<svg width="24" height="24" viewBox="0 0 24 24" fill="none" xmlns="http://www.w3.org/2000/svg">
  <path fill-rule="evenodd" clip-rule="evenodd" d="M18.5 4H5.5C4 4 4 5.5 4 5.5V18.5C4 18.5 4 20 5.5 20H18.5C18.5 20 20 20 20 18.5V5.5C20 5.5 20 4 18.5 4ZM8.82867 15.7729C10.243 17.1874 11.6519 15.7784 11.6519 15.7784L18.0156 9.41421L16.6014 8L10.2372 14.364L7.40886 11.5356L6 12.9445C6.44594 13.3837 6.88775 13.8271 7.50271 14.4441C7.87024 14.8129 8.29961 15.2438 8.82867 15.7729Z" fill="#898989"/>
</svg>
