<svg width="25" height="24" viewBox="0 0 25 24" fill="none" xmlns="http://www.w3.org/2000/svg">
  <path d="M5.12598 12V4.5H20.126V18.5H11.626V20H20.126C20.126 20 21.626 20 21.626 18.5V4.5C21.626 4.5 21.626 3 20.126 3H5.12598C5.12598 3 3.62598 3 3.62598 4.5V12H5.12598Z" fill="#898989"/>
  <path d="M9.62598 17C9.62598 15.34 8.28598 14 6.62598 14C4.96598 14 3.62598 15.34 3.62598 17C3.62598 18.66 4.96598 20 6.62598 20C8.28598 20 9.62598 18.66 9.62598 17Z" fill="#898989"/>
  <path d="M9.62598 14H15.4594L13.626 12L16.626 9L14.626 7L11.626 10L9.62598 8.16667V14Z" fill="#898989"/>
</svg>
