<svg width="24" height="24" viewBox="0 0 24 24" fill="none" xmlns="http://www.w3.org/2000/svg">
  <path d="M15.509 22.875H8.51221V20.8792H15.509V22.875Z" fill="currentColor"/>
  <path d="M10.1082 14.9092V17.1174H8.51221V14.9092H10.1082Z" fill="currentColor"/>
  <path d="M12.8086 14.9092V17.1174H11.2134V14.9092H12.8086Z" fill="currentColor"/>
  <path d="M15.5098 14.9092V17.1174H13.9138V14.9092H15.5098Z" fill="currentColor"/>
  <path d="M10.1082 11.5957V13.804H8.51221V11.5957H10.1082Z" fill="currentColor"/>
  <path d="M12.8086 11.5957V13.804H11.2134V11.5957H12.8086Z" fill="currentColor"/>
  <path d="M15.5098 11.5957V13.804H13.9138V11.5957H15.5098Z" fill="currentColor"/>
  <path d="M10.1082 8.28296V10.4905H8.51221V8.28296H10.1082Z" fill="currentColor"/>
  <path d="M12.8086 8.28296V10.4905H11.2134V8.28296H12.8086Z" fill="currentColor"/>
  <path d="M15.5098 8.28296V10.4905H13.9138V8.28296H15.5098Z" fill="currentColor"/>
  <path fill-rule="evenodd" clip-rule="evenodd" d="M12 1.125C12.6481 1.125 13.3162 1.4691 13.9153 1.93066C14.5338 2.39214 15.1426 3.01049 15.6826 3.65845C16.2129 4.3066 16.6939 5.00455 17.0376 5.63306C17.2045 5.94723 17.3525 6.24145 17.4507 6.51636L17.4932 6.63647C17.5913 6.90149 17.6074 7.0565 17.6074 7.29199V21.4138C17.6074 21.4433 17.5877 21.473 17.5876 21.5024C17.5778 21.5319 17.5777 21.5612 17.5679 21.5808C17.5581 21.6005 17.5389 21.6205 17.5291 21.6401C17.5192 21.6598 17.4996 21.6894 17.48 21.709C17.4604 21.7286 17.4403 21.738 17.4207 21.7478C17.3913 21.7674 17.3621 21.787 17.3328 21.7969H17.3225C17.0878 21.878 16.8508 21.9514 16.6143 22.0195V19.7739H7.40771V22.0254C7.16378 21.9556 6.91938 21.8805 6.67749 21.7969H6.66724C6.63797 21.787 6.61821 21.7674 6.58887 21.7478C6.56936 21.7381 6.54978 21.7284 6.53027 21.709C6.5107 21.6894 6.50072 21.6598 6.4812 21.6401C6.46161 21.6107 6.44197 21.5909 6.43213 21.5713C6.41254 21.5419 6.41235 21.5223 6.41235 21.4929C6.40253 21.4635 6.39258 21.4338 6.39258 21.4043V7.28247C6.39259 7.04682 6.46139 6.77194 6.55957 6.50684C6.65777 6.23186 6.79516 5.93706 6.97192 5.6228C7.31562 4.99434 7.78683 4.29703 8.3269 3.64893C8.86703 3.00078 9.47628 2.38197 10.095 1.92041C10.694 1.46873 11.3617 1.12502 12 1.125ZM7.40771 7.17773V18.2219H16.6143V7.17773H7.40771Z" fill="currentColor"/>
</svg>
