<svg width="24" height="24" viewBox="0 0 24 24" fill="none" xmlns="http://www.w3.org/2000/svg">
  <path fill-rule="evenodd" clip-rule="evenodd" d="M3 5.58333C3 4.1566 4.1566 3 5.58333 3H18.4167C19.8434 3 21 4.1566 21 5.58333V14.75C21 16.1767 19.8434 17.3333 18.4167 17.3333H15.0231L15.4272 18.9499L16.197 19.7197C16.4115 19.9342 16.4757 20.2568 16.3596 20.537C16.2435 20.8173 15.97 21 15.6667 21H8.33333C8.02999 21 7.75651 20.8173 7.64042 20.537C7.52434 20.2568 7.5885 19.9342 7.803 19.7197L8.57278 18.9499L8.97692 17.3333H5.58333C4.1566 17.3333 3 16.1767 3 14.75V5.58333ZM4.5 13.6667V14.75C4.5 15.3483 4.98502 15.8333 5.58333 15.8333H9.92068C9.93148 15.8331 9.94232 15.8331 9.95319 15.8333H14.0468C14.0577 15.8331 14.0685 15.8331 14.0793 15.8333H18.4167C19.015 15.8333 19.5 15.3483 19.5 14.75V13.6667H4.5ZM19.5 12.1667H4.5V5.58333C4.5 4.98502 4.98503 4.5 5.58333 4.5H18.4167C19.015 4.5 19.5 4.98503 19.5 5.58333V12.1667ZM13.4769 17.3333H10.5231L9.98142 19.5H14.0186L13.4769 17.3333Z" fill="#898989"/>
</svg>
