<svg width="24" height="25" viewBox="0 0 24 25" fill="none" xmlns="http://www.w3.org/2000/svg">
  <path d="M13.9445 4.89863C14.5338 4.30937 15.182 4.3683 15.8891 5.0754C16.5962 5.78251 18.7175 7.90383 19.4246 8.61094C20.1317 9.31804 20.1907 9.96622 19.6014 10.5555C19.0121 11.1447 16.9497 13.2071 16.9497 13.2071L11.2929 7.55028C11.2929 7.55028 13.3553 5.48788 13.9445 4.89863Z" fill="#898989"/>
  <path d="M10.0555 20.1014C9.4662 20.6907 8.81802 20.6318 8.11091 19.9246C7.4038 19.2175 5.28248 17.0962 4.57538 16.3891C3.86827 15.682 3.80935 15.0338 4.3986 14.4446C4.98786 13.8553 7.05025 11.7929 7.05025 11.7929L12.7071 17.4498C12.7071 17.4498 10.6447 19.5122 10.0555 20.1014Z" fill="#898989"/>
  <path fill-rule="evenodd" clip-rule="evenodd" d="M2.98444 20.455L6.51998 16.9194L7.58064 17.9801L4.0451 21.5156L2.98444 20.455Z" fill="#898989"/>
  <path fill-rule="evenodd" clip-rule="evenodd" d="M7.2271 13.3839L8.64132 11.9697L9.70198 13.0304L8.28776 14.4446L7.2271 13.3839Z" fill="#898989"/>
  <path fill-rule="evenodd" clip-rule="evenodd" d="M10.0555 16.2123L11.4697 14.7981L12.5303 15.8588L11.1161 17.273L10.0555 16.2123Z" fill="#898989"/>
  <path fill-rule="evenodd" clip-rule="evenodd" d="M4.75207 4.19145L20.3084 19.7478L19.2478 20.8085L3.69141 5.25211L4.75207 4.19145Z" fill="#898989"/>
  <path fill-rule="evenodd" clip-rule="evenodd" d="M16.4193 7.0199L19.9548 3.48438L21.0155 4.54504L17.4799 8.08056L16.4193 7.0199Z" fill="#898989"/>
</svg>
