<svg width="24" height="25" viewBox="0 0 24 25" fill="none" xmlns="http://www.w3.org/2000/svg">
  <path d="M13.7678 5.07536C14.4749 4.36826 15.182 4.36826 15.8891 5.07536C16.5962 5.78247 18.7175 7.90379 19.4246 8.6109C20.1317 9.318 20.1317 10.0251 19.4246 10.7322C18.7175 11.4393 16.2426 13.9142 16.2426 13.9142L10.5858 8.25734C10.5858 8.25734 13.0607 5.78247 13.7678 5.07536Z" fill="#898989"/>
  <path d="M10.2322 19.9246C9.52513 20.6317 8.81802 20.6317 8.11091 19.9246C7.40381 19.2175 5.28249 17.0962 4.57538 16.3891C3.86827 15.682 3.86827 14.9749 4.57538 14.2677C5.28249 13.5606 7.75736 11.0858 7.75736 11.0858L13.4142 16.7426C13.4142 16.7426 10.9393 19.2175 10.2322 19.9246Z" fill="#898989"/>
  <path fill-rule="evenodd" clip-rule="evenodd" d="M2.98439 20.4549L6.51992 16.9194L7.58058 17.9801L4.04505 21.5156L2.98439 20.4549Z" fill="#898989"/>
  <path fill-rule="evenodd" clip-rule="evenodd" d="M7.93414 12.6768L10.409 10.2019L11.4697 11.2625L8.9948 13.7374L7.93414 12.6768Z" fill="#898989"/>
  <path fill-rule="evenodd" clip-rule="evenodd" d="M10.7626 15.5052L13.2374 13.0303L14.2981 14.091L11.8232 16.5658L10.7626 15.5052Z" fill="#898989"/>
  <path fill-rule="evenodd" clip-rule="evenodd" d="M16.4194 7.0199L19.955 3.48438L21.0156 4.54504L17.4801 8.08056L16.4194 7.0199Z" fill="#898989"/>
</svg>
