<svg width="24" height="24" viewBox="0 0 24 24" fill="none" xmlns="http://www.w3.org/2000/svg">
  <path d="M6.49999 8.5L4.99999 3L5.99999 3L9.49999 8.5H12.5C13.1875 8.5 14.5 9 14.5 9.5C14.5 10 13.1875 10.5 12.5 10.5H9.49999L5.99999 16H4.99999L6.49999 10.5H3.99999L2.99997 12H1.99999L2.49999 9.5L1.99997 7H2.99997L3.99999 8.5H6.49999Z" fill="currentColor"/>
  <path d="M17 15.5L18.5 21H17.5L14 15.5H11C10.3125 15.5 8.99999 15 8.99999 14.5C8.99999 14 10.3125 13.5 11 13.5H14L17.5 8H18.5L17 13.5H20L21.5 12H22L21.5 14.5L22 17H21.5L20 15.5H17Z" fill="currentColor"/>
</svg>
