<svg width="24" height="24" viewBox="0 0 24 24" fill="none" xmlns="http://www.w3.org/2000/svg">
  <path d="M21.14 17.58C21.29 17.12 21.33 16.59 21.48 16.13C21.54 15.63 20.52 15.83 20.43 15.52C20.4 15.41 20.41 15.15 20.4 15.02C20.37 14.77 20.31 14.52 20.24 14.29C20.21 14.18 20.03 13.78 20.04 13.71C20.06 13.44 20.93 13.2 20.72 12.84L19.64 11.51C19.64 11.51 19.56 11.49 19.52 11.49C19.49 11.49 19.45 11.49 19.42 11.51C19.3 11.56 19.05 11.83 18.91 11.93C18.82 11.99 18.78 12.03 18.72 12.03C18.68 12.03 18.64 12.01 18.56 11.97C18.25 11.8 18 11.59 17.66 11.45C17.5 11.38 17.08 11.29 16.98 11.21C16.8 11.07 16.95 10.45 16.89 10.24C16.87 10.18 16.77 10.12 16.71 10.11C16.62 10.11 16.52 10.11 16.43 10.11C16.11 10.11 15.77 10.08 15.45 10.08C15.33 10.08 15.2 10.08 15.08 10.09C14.98 10.09 14.86 10.14 14.84 10.25C14.8 10.46 14.91 11.05 14.77 11.19C14.71 11.25 14.04 11.46 13.88 11.53C13.77 11.58 13.62 11.66 13.51 11.72C13.38 11.8 13.15 12.02 12.99 12.02C12.97 12.02 12.95 12.02 12.93 12.01C12.76 11.94 12.47 11.59 12.29 11.5C12.26 11.49 12.24 11.48 12.21 11.48C12.16 11.48 12.12 11.5 12.07 11.52L11 12.83C10.78 13.19 11.67 13.44 11.68 13.71C11.51 14.14 11.39 14.54 11.32 15C11.3 15.14 11.32 15.53 11.23 15.61C11.13 15.72 10.55 15.75 10.37 15.84C10.3 15.87 10.28 15.93 10.28 16C10.27 16.17 10.42 16.68 10.46 16.88C10.49 17.02 10.63 17.65 10.69 17.72C10.73 17.76 10.79 17.78 10.86 17.78C11.08 17.78 11.42 17.63 11.64 17.63C11.7 17.63 11.75 17.64 11.79 17.67C11.98 18.01 12.19 18.35 12.46 18.64C12.58 18.78 12.81 18.94 12.91 19.06C13.15 19.36 12.51 19.87 12.68 20.13C12.71 20.18 12.93 20.27 13 20.31C13.4 20.51 13.82 20.68 14.21 20.89C14.24 20.9 14.28 20.91 14.32 20.91C14.34 20.91 14.35 20.91 14.37 20.91C14.57 20.87 14.7 20.19 14.88 20.08C14.9 20.07 14.94 20.06 14.99 20.06C15.15 20.06 15.43 20.12 15.55 20.13C15.66 20.13 15.78 20.13 15.91 20.13C16.04 20.13 16.17 20.13 16.28 20.12C16.39 20.12 16.67 20.04 16.8 20.04C16.82 20.04 16.84 20.04 16.85 20.04C17.04 20.1 17.2 20.81 17.35 20.88C17.38 20.89 17.41 20.9 17.44 20.9C17.48 20.9 17.53 20.9 17.56 20.87C17.96 20.6 18.64 20.44 19.02 20.17C19.34 19.94 18.63 19.36 18.81 19.09C19.09 18.85 19.36 18.58 19.59 18.27C19.69 18.13 19.93 17.68 20.03 17.62C20.06 17.6 20.09 17.6 20.13 17.6C20.32 17.6 20.63 17.76 20.85 17.76C20.97 17.76 21.07 17.71 21.12 17.57L21.14 17.58ZM18.09 16.83C17.66 17.72 16.77 18.19 15.88 18.19C15.17 18.19 14.45 17.89 13.96 17.26C12.77 15.72 13.76 13.46 15.7 13.31C15.77 13.31 15.83 13.31 15.9 13.31C17.67 13.31 18.88 15.21 18.09 16.84V16.83Z" fill="#898989"/>
  <path fill-rule="evenodd" clip-rule="evenodd" d="M11.86 20.67C11.58 20.24 11.66 19.81 11.79 19.5H9.99L10.22 18.57C10.12 18.5 10.03 18.43 9.98 18.37C9.78 18.15 9.72 17.93 9.55 17.18L9.53 17.1L9.49 16.95C9.38 16.51 9.3 16.2 9.32 15.93C9.32 15.9 9.33 15.87 9.34 15.83H5.59C4.99 15.83 4.51 15.35 4.51 14.75V13.67H10.27C9.83 13.07 10.05 12.54 10.19 12.3L10.22 12.25L10.26 12.2L10.28 12.17H4.5V5.58C4.5 4.98 4.99 4.5 5.58 4.5H18.41C19.01 4.5 19.49 4.99 19.49 5.58V10.48C19.68 10.48 19.87 10.52 20.04 10.6L20.25 10.7L20.39 10.88L20.98 11.62V5.58C20.98 4.15 19.82 3 18.4 3H5.58C4.16 3 3 4.16 3 5.58V14.75C3 16.18 4.16 17.33 5.58 17.33H8.97L8.57 18.95L7.8 19.72C7.59 19.93 7.52 20.26 7.64 20.54C7.76 20.82 8.03 21 8.33 21H12.18C12.06 20.92 11.94 20.82 11.85 20.67H11.86Z" fill="#898989"/>
</svg>
