<svg width="22" height="22" viewBox="0 0 22 22" fill="none" xmlns="http://www.w3.org/2000/svg">
  <path d="M3.5 12C3.5 14.0711 4.33947 15.9461 5.6967 17.3033L4.63604 18.364C3.00736 16.7353 2 14.4853 2 12C2 7.02944 6.02944 3 11 3C15.9706 3 20 7.02944 20 12C20 14.4853 18.9926 16.7353 17.364 18.364L16.3033 17.3033C17.6605 15.9461 18.5 14.0711 18.5 12C18.5 7.85786 15.1421 4.5 11 4.5C6.85786 4.5 3.5 7.85786 3.5 12Z" fill="#898989"/>
  <path d="M13.9168 14.9168L14.8891 15.8891C15.8844 14.8938 16.5 13.5188 16.5 12C16.5 8.96243 14.0376 6.5 11 6.5C7.96243 6.5 5.5 8.96243 5.5 12C5.5 13.5188 6.11561 14.8938 7.11091 15.8891L8.08318 14.9168C7.33671 14.1703 6.875 13.1391 6.875 12C6.875 9.72183 8.72183 7.875 11 7.875C13.2782 7.875 15.125 9.72183 15.125 12C15.125 13.1391 14.6633 14.1703 13.9168 14.9168Z" fill="#898989"/>
  <path d="M11 14C12.1046 14 13 13.1046 13 12C13 10.8954 12.1046 10 11 10C9.89543 10 9 10.8954 9 12C9 13.1046 9.89543 14 11 14Z" fill="#898989"/>
</svg>
