<svg width="24" height="24" viewBox="0 0 24 24" fill="none" xmlns="http://www.w3.org/2000/svg">
  <path d="M12 2C6.78001 2 2.54001 4.05 2.54001 6.58V17.42C2.54001 19.95 6.78001 22 12 22C17.22 22 21.46 19.95 21.46 17.42V6.58C21.46 4.05 17.22 2 12 2ZM19.89 15.07V17.42C19.89 17.96 19.21 18.63 18.07 19.2C16.5 19.98 14.29 20.43 12.01 20.43C9.73001 20.43 7.51001 19.98 5.95001 19.2C4.81001 18.63 4.13001 17.96 4.13001 17.42V14.53L4.59001 14.81C6.41001 15.93 9.12001 16.58 12.02 16.58C14.92 16.58 17.63 15.94 19.45 14.81L19.91 14.53V15.07H19.89ZM19.89 9.65V12C19.89 12.54 19.21 13.21 18.07 13.78C16.5 14.56 14.29 15.01 12.01 15.01C9.73001 15.01 7.51001 14.56 5.95001 13.78C4.81001 13.21 4.13001 12.54 4.13001 12V9.11L4.59001 9.39C6.41001 10.51 9.12001 11.16 12.02 11.16C14.92 11.16 17.63 10.52 19.45 9.39L19.91 9.11V9.65H19.89ZM18.06 8.36C16.49 9.14 14.28 9.59 12 9.59C9.72001 9.59 7.50001 9.14 5.94001 8.36C4.80001 7.79 4.12001 7.12 4.12001 6.58C4.12001 6.04 4.80001 5.37 5.94001 4.8C7.51001 4.02 9.72001 3.57 12 3.57C14.28 3.57 16.5 4.02 18.06 4.8C19.2 5.37 19.88 6.04 19.88 6.58C19.88 7.12 19.2 7.79 18.06 8.36Z" fill="#898989"/>
</svg>
