<svg width="24" height="24" viewBox="0 0 24 24" fill="none" xmlns="http://www.w3.org/2000/svg">
  <path d="M19.626 13C20.726 13 21.626 13.9 21.626 15C21.626 16.1 20.726 17 19.626 17C18.526 17 17.626 16.1 17.626 15C17.626 13.9 18.526 13 19.626 13ZM10.626 15C10.626 16.1 11.526 17 12.626 17C13.726 17 14.626 16.1 14.626 15C14.626 13.9 13.726 13 12.626 13C11.526 13 10.626 13.9 10.626 15ZM3.62598 15C3.62598 16.1 4.52598 17 5.62598 17C6.72598 17 7.62598 16.1 7.62598 15C7.62598 13.9 6.72598 13 5.62598 13C4.52598 13 3.62598 13.9 3.62598 15ZM7.62598 9C7.62598 7.9 6.72598 7 5.62598 7C4.52598 7 3.62598 7.9 3.62598 9C3.62598 10.1 4.52598 11 5.62598 11C6.72598 11 7.62598 10.1 7.62598 9ZM10.626 9C10.626 10.1 11.526 11 12.626 11C13.726 11 14.626 10.1 14.626 9C14.626 7.9 13.726 7 12.626 7C11.526 7 10.626 7.9 10.626 9ZM17.626 9C17.626 10.1 18.526 11 19.626 11C20.726 11 21.626 10.1 21.626 9C21.626 7.9 20.726 7 19.626 7C18.526 7 17.626 7.9 17.626 9Z" fill="#898989"/>
</svg>
