<svg width="24" height="24" viewBox="0 0 24 24" fill="none" xmlns="http://www.w3.org/2000/svg">
  <path d="M3 10L3 19.25C3 20.35 3.65 21 4.75 21L16 21L16 19.5L4.5 19.5L4.5 10L3 10ZM6 4.75L6 16.25C6 17.35 6.65 18 7.75 18L19.25 18C20.35 18 21 17.35 21 16.25L21 4.75C21 3.65 20.35 3 19.25 3L7.75 3C6.65 3 6 3.65 6 4.75ZM19.5 4.5L19.5 16.5L7.5 16.5L7.5 4.5L19.5 4.5Z" fill="#898989"/>
  <path d="M17.5 9.5L17.5 11.5L14.5 11.5L14.5 14.5L12.5 14.5L12.5 11.5L9.5 11.5L9.5 9.5L12.5 9.5L12.5 6.5L14.5 6.5L14.5 9.5L17.5 9.5Z" fill="#898989"/>
</svg>
