<svg width="24" height="24" viewBox="0 0 24 24" fill="none" xmlns="http://www.w3.org/2000/svg">
  <path fill-rule="evenodd" clip-rule="evenodd" d="M9.48026 6.84231C8.83356 5.36289 8.28333 4.97413 7.83741 4.99617C6.97876 5.0386 6.22649 5.74164 5.64886 7.14427C5.08089 8.5234 4.8 10.3352 4.8 11.9783H3C3 10.1301 3.3097 8.01969 4.01137 6.31589C4.70336 4.63557 5.89975 3.09494 7.75724 3.00315C9.42744 2.92061 10.446 4.47594 11.1002 5.97247C11.7756 7.51766 12.3046 9.55566 12.8082 11.4959C12.8203 11.5423 12.8323 11.5886 12.8443 11.6348C13.3733 13.672 13.8799 15.5967 14.5109 17.019C15.1734 18.5121 15.7724 19.0011 16.3061 19.005C17.0624 19.0104 17.7941 18.3041 18.3813 16.7372C18.94 15.2463 19.2 13.3696 19.2 11.9783H21C21 13.5795 20.7099 15.7246 20.0436 17.5025C19.4058 19.2044 18.2377 21.0139 16.2944 20.9999C14.6195 20.9879 13.5803 19.4424 12.8957 17.8994C12.1796 16.2855 11.6301 14.1723 11.1145 12.1866L11.1096 12.1676C10.5814 10.1333 10.0877 8.23182 9.48026 6.84231Z" fill="#898989"/>
</svg>
