<svg width="24" height="24" viewBox="0 0 24 24" fill="none" xmlns="http://www.w3.org/2000/svg">
<path fill-rule="evenodd" clip-rule="evenodd" d="M5.5 20L18.5 20C20 20 20 18.5 20 18.5L20 5.5C20 5.5 20 4 18.5 4L5.5 4C5.5 4 4 4 4 5.5L4 18.5C4 18.5 4 20 5.5 20ZM8.5 5.5L5.5 5.5L5.5 18.5H8.5L8.5 5.5ZM10 18.5L18.5 18.5L18.5 5.5L10 5.5L10 18.5Z" fill="white"/>
<path d="M11.8142 12.5747L14.7944 12.5747L13.6118 13.7573C13.387 13.9821 13.387 14.351 13.6118 14.5758C13.8366 14.8006 14.1998 14.8006 14.4246 14.5758L16.5929 12.4075C16.8177 12.1827 16.8177 11.8195 16.5929 11.5947L14.4246 9.42638C14.1998 9.20157 13.8366 9.20157 13.6118 9.42638C13.387 9.65119 13.387 10.0144 13.6118 10.2392L14.7944 11.4218L11.8142 11.4218C11.4972 11.4218 11.2378 11.6812 11.2378 11.9982C11.2378 12.3153 11.4972 12.5747 11.8142 12.5747Z" fill="white"/>
</svg>
