<svg width="24" height="24" viewBox="0 0 24 24" fill="none" xmlns="http://www.w3.org/2000/svg">
  <path d="M9 18C9 19.6569 7.65685 21 6 21C4.34315 21 3 19.6569 3 18C3 16.3431 4.34315 15 6 15C7.65685 15 9 16.3431 9 18Z" fill="#898989"/>
  <path d="M12.5868 19H14.9593C14.9679 18.8344 14.9722 18.6677 14.9722 18.5C14.9722 13.2686 10.7314 9.02778 5.5 9.02778C5.33228 9.02778 5.16558 9.03214 5 9.04075V11.4132C5.16518 11.4017 5.33191 11.3958 5.5 11.3958C9.42352 11.3958 12.6042 14.5765 12.6042 18.5C12.6042 18.6681 12.5983 18.8348 12.5868 19Z" fill="#898989"/>
  <path d="M18.4072 19H20.9921C20.9973 18.834 21 18.6673 21 18.5C21 9.93959 14.0604 3 5.5 3C5.3327 3 5.16602 3.00265 5 3.00791V5.59283C5.16588 5.58652 5.33257 5.58333 5.5 5.58333C12.6337 5.58333 18.4167 11.3663 18.4167 18.5C18.4167 18.6674 18.4135 18.8341 18.4072 19Z" fill="#898989"/>
</svg>
