<svg width="24" height="24" viewBox="0 0 24 24" fill="none" xmlns="http://www.w3.org/2000/svg">
  <path d="M10.0267 11.244L8.76444 12.522C8.03286 11.7814 7.48725 10.8741 7.17333 9.876L8.89778 9.435C9.18222 10.236 9.58222 10.785 10.0267 11.244ZM11.1111 6.6L7.55556 3L4 6.6H6.68444C6.70222 7.329 6.75556 7.986 6.85333 8.553L8.57778 8.112C8.51556 7.68 8.47111 7.167 8.46222 6.6H11.1111ZM20 6.6L16.4444 3L12.8889 6.6H15.5467C15.4578 9.912 14.4089 10.875 13.2889 11.892C12.8444 12.288 12.3911 12.72 12 13.287C11.6978 12.846 11.3511 12.495 10.9956 12.171L9.74222 13.44C10.5689 14.205 11.1111 14.826 11.1111 16.5V21H12.8889V16.5C12.8889 14.682 13.52 14.106 14.48 13.233C15.7067 12.117 17.2178 10.731 17.3244 6.6H20Z" fill="#898989"/>
</svg>
