<svg width="24" height="24" viewBox="0 0 24 24" fill="none" xmlns="http://www.w3.org/2000/svg">
  <path d="M16.626 21.0001V19.5001H20.126V16.0001H21.626V18.0001C21.626 18.3511 21.626 19.0001 21.626 19.5001C21.626 20.9999 20.126 20.9999 20.126 20.9999L16.626 21.0001ZM8.62598 21.0001H6.62598C6.27498 21.0001 5.62609 20.9999 5.12609 20.9999C3.62598 20.9999 3.62598 19.5001 3.62598 19.5001V16.0001H5.12598V19.5001H8.62598V21.0001ZM16.626 3.00007H18.626C18.977 3.00007 19.626 2.99982 20.126 2.99994C21.626 2.99991 21.626 4.49994 21.626 4.49994V8.00007H20.126V4.50007H16.626V3.00007ZM8.62598 3.00007V4.50007H5.12598V8.00007H3.62598V4.50007C3.62598 4.50007 3.62587 3.00003 5.12609 3.00002C5.62609 2.9999 6.27498 3.00007 6.62598 3.00007H8.62598Z" fill="#898989"/>
  <path d="M13.376 16.4961L16.626 14.5V10.5L13.3729 12.0158L13.376 16.4961ZM12.626 10.5L16.126 9L12.626 7.0001L8.62596 9L12.626 10.5ZM8.62596 14.5L11.8775 16.4961V12.0041L8.62596 10.5V14.5ZM17.466 7.99556C17.8945 8.28 18.126 8.66222 18.126 9.16889V14.7867C18.126 15.2933 17.8945 15.6756 17.466 15.96L13.2688 18.359C12.8402 18.6434 12.4117 18.6434 11.9831 18.359L7.78596 15.96C7.35739 15.6756 7.12596 15.2933 7.12596 14.7867V9.16889C7.12596 8.66222 7.35739 8.28 7.78596 7.99556L11.9831 5.66899C12.1974 5.55343 12.4117 5.5001 12.626 5.5001C12.8402 5.5001 13.0545 5.55343 13.2688 5.66899L17.466 7.99556Z" fill="#898989"/>
</svg>
