<svg xmlns="http://www.w3.org/2000/svg" width="24" height="24" viewBox="0 0 24 24" fill="none">
  <path d="M17.9952 13.7424C18.3597 14.2784 18.2846 15.0611 17.8129 15.49L14.1032 18.8351C13.6422 19.2533 13.0632 19.4784 12.4735 19.4677H11.4979L7.97046 19.4141C7.90613 19.4141 7.8418 19.3819 7.79892 19.3176L4.89337 15.0826C4.81832 14.9753 4.83976 14.8145 4.92553 14.7395L6.42655 13.3885C6.88758 12.9811 7.44511 12.756 8.02407 12.756H12.5057C13.1061 12.756 13.5886 13.3135 13.5886 13.9997C13.5886 14.6859 13.1061 15.2327 12.5057 15.2327H10.6723C10.3721 15.2327 10.1362 15.5114 10.1362 15.8545C10.1362 16.1976 10.3721 16.4764 10.6723 16.4764H12.8595C13.0525 16.4764 13.2348 16.4013 13.3956 16.2726L16.462 13.5279C16.9337 13.1098 17.6092 13.2063 17.9737 13.7424H17.9952ZM16.1725 4.68261C16.1296 4.629 16.0653 4.58611 16.0009 4.58611L12.4735 4.54323H11.4979C10.9082 4.52178 10.3292 4.74694 9.86819 5.16508L6.15851 8.51022C5.68676 8.93908 5.61171 9.71103 5.97625 10.2578C6.34078 10.7939 7.02696 10.8904 7.48799 10.4723L10.5544 7.72754C10.7045 7.58816 10.8975 7.51311 11.0904 7.51311H13.2777C13.5779 7.51311 13.8137 7.79187 13.8137 8.13496C13.8137 8.47805 13.5671 8.75681 13.2777 8.75681H11.4443C10.8439 8.75681 10.3614 9.31433 10.3614 9.9898C10.3614 10.676 10.8439 11.2335 11.4443 11.2335H15.9259C16.5049 11.2335 17.0731 11.0083 17.5234 10.6009L19.0244 9.25001C19.1209 9.16423 19.1316 9.01413 19.0566 8.90691L16.151 4.67189L16.1725 4.68261ZM20.9436 7.23435L18.1131 3.09581C18.038 2.9886 17.8987 2.96715 17.8129 3.05293L17.1374 3.66406C17.0409 3.74983 17.0302 3.89993 17.1053 4.00715L19.9465 8.14568C20.0215 8.2529 20.1609 8.27434 20.2467 8.18857L20.9221 7.57744C21.0186 7.49166 21.0294 7.34156 20.9543 7.23435H20.9436ZM4.05708 15.8545C3.98203 15.7473 3.84265 15.7258 3.75688 15.8116L3.08142 16.4228C2.98492 16.5085 2.9742 16.6586 3.04925 16.7658L5.89047 20.9044C5.96553 21.0116 6.10491 21.033 6.19068 20.9473L6.86614 20.3361C6.96263 20.2504 6.97336 20.1003 6.8983 19.993L4.05708 15.8545Z" fill="#898989"/>
</svg>
