<svg width="25" height="24" viewBox="0 0 25 24" fill="none" xmlns="http://www.w3.org/2000/svg">
  <path d="M16.0844 6H13.4C13.15 6 12.9094 6.09372 12.725 6.2624C11.7005 7.2001 9.64375 9.08638 9.64375 9.08638C9.125 9.5737 9.13438 10.3515 9.57812 10.8357C9.975 11.27 10.8094 11.3855 11.3313 10.9201C11.3313 10.9201 13.0083 9.38939 13.8406 8.62717C14.0437 8.44286 14.3625 8.45536 14.5469 8.65841C14.7344 8.86146 14.7188 9.17697 14.5156 9.3644L13.7 10.111C15.2321 11.3543 18.4969 14.0002 18.4969 14.0002V7.99927L16.7906 6.29364C16.6062 6.10621 16.35 6 16.0844 6ZM19.5 8.00552V14.9999C19.5 15.5528 19.9469 15.9995 20.5 15.9995H22.5V8.00552H19.5ZM21 14.9999C20.725 14.9999 20.5 14.7749 20.5 14.5C20.5 14.2251 20.725 14.0002 21 14.0002C21.275 14.0002 21.5 14.2251 21.5 14.5C21.5 14.7749 21.275 14.9999 21 14.9999ZM2.5 15.9964H4.5C5.05312 15.9964 5.5 15.5497 5.5 14.9967V8.00552H2.5V15.9964ZM4 14.0002C4.275 14.0002 4.5 14.2251 4.5 14.5C4.5 14.7749 4.275 14.9999 4 14.9999C3.725 14.9999 3.5 14.7749 3.5 14.5C3.5 14.222 3.725 14.0002 4 14.0002ZM17.6219 14.5813L12.9563 10.7951L12.0188 11.6542C11.0906 12.5008 9.66875 12.4195 8.84062 11.5167C8 10.5983 8.06563 9.17697 8.97813 8.33978L11.5344 6H8.91563C8.65 6 8.39687 6.10621 8.20937 6.29364L6.5 7.99927V14.9936H7.07188L9.9 17.5521C10.7563 18.2487 12.0156 18.1175 12.7125 17.2615L12.7188 17.2553L13.2781 17.7395C13.775 18.1456 14.5094 18.0675 14.9125 17.5708L15.8938 16.365L16.0625 16.5024C16.4906 16.8492 17.1219 16.7867 17.4688 16.3556L17.7656 15.9901C18.1156 15.559 18.05 14.9311 17.6219 14.5813Z" fill="#898989"/>
</svg>
