<svg width="18" height="18" viewBox="0 0 18 18" fill="none" xmlns="http://www.w3.org/2000/svg">
  <path d="M14.9952 10.7424C15.3597 11.2784 15.2846 12.0611 14.8129 12.49L11.1032 15.8351C10.6422 16.2533 10.0632 16.4784 9.47353 16.4677H8.49787L4.97046 16.4141C4.90613 16.4141 4.8418 16.3819 4.79892 16.3176L1.89337 12.0826C1.81832 11.9753 1.83976 11.8145 1.92553 11.7395L3.42655 10.3885C3.88758 9.98112 4.44511 9.75597 5.02407 9.75597H9.5057C10.1061 9.75597 10.5886 10.3135 10.5886 10.9997C10.5886 11.6859 10.1061 12.2327 9.5057 12.2327H7.6723C7.3721 12.2327 7.13622 12.5114 7.13622 12.8545C7.13622 13.1976 7.3721 13.4764 7.6723 13.4764H9.85951C10.0525 13.4764 10.2348 13.4013 10.3956 13.2726L13.462 10.5279C13.9337 10.1098 14.6092 10.2063 14.9737 10.7424H14.9952ZM13.1725 1.68261C13.1296 1.629 13.0653 1.58611 13.0009 1.58611L9.47353 1.54323H8.49787C7.90818 1.52178 7.32921 1.74694 6.86819 2.16508L3.15851 5.51022C2.68676 5.93908 2.61171 6.71103 2.97625 7.25783C3.34078 7.79391 4.02696 7.89041 4.48799 7.47227L7.55437 4.72754C7.70447 4.58816 7.89746 4.51311 8.09045 4.51311H10.2777C10.5779 4.51311 10.8137 4.79187 10.8137 5.13496C10.8137 5.47805 10.5671 5.75681 10.2777 5.75681H8.44426C7.84385 5.75681 7.36138 6.31433 7.36138 6.9898C7.36138 7.67598 7.84385 8.2335 8.44426 8.2335H12.9259C13.5049 8.2335 14.0731 8.00835 14.5234 7.60093L16.0244 6.25001C16.1209 6.16423 16.1316 6.01413 16.0566 5.90691L13.151 1.67189L13.1725 1.68261ZM17.9436 4.23435L15.1131 0.095812C15.038 -0.0114039 14.8987 -0.0328471 14.8129 0.0529256L14.1374 0.664056C14.0409 0.749829 14.0302 0.899931 14.1053 1.00715L16.9465 5.14568C17.0215 5.2529 17.1609 5.27434 17.2467 5.18857L17.9221 4.57744C18.0186 4.49166 18.0294 4.34156 17.9543 4.23435H17.9436ZM1.05708 12.8545C0.982031 12.7473 0.84265 12.7258 0.756877 12.8116L0.0814171 13.4228C-0.0150772 13.5085 -0.0257988 13.6586 0.0492523 13.7658L2.89047 17.9044C2.96553 18.0116 3.10491 18.033 3.19068 17.9473L3.86614 17.3361C3.96263 17.2504 3.97336 17.1003 3.8983 16.993L1.05708 12.8545Z" fill="#898989"/>
</svg>
