<svg width="24" height="24" viewBox="0 0 24 24" fill="none" xmlns="http://www.w3.org/2000/svg">
  <path d="M19.2089 5.11547C19.0877 5.15486 18.9819 5.19567 18.8728 5.22314C18.7024 5.26619 18.5543 5.34791 18.4103 5.44721C16.9547 6.45127 15.497 7.45238 14.0399 8.45431C14.0076 8.47648 13.9759 8.49936 13.9419 8.52342C13.9419 8.71659 13.9426 8.90893 13.9417 9.10116C13.9408 9.29645 13.7611 9.39917 13.589 9.3027C13.5239 9.26626 13.501 9.20493 13.5004 9.13394C13.4997 9.05221 13.5003 8.97049 13.5003 8.88157H13.2925L13.3358 9.0521L13.2763 9.05269C13.2763 9.06637 13.274 9.53148 13.274 9.53148L13.3412 9.53231C13.3433 9.60507 13.3417 10.1517 13.3417 10.1517C13.3417 10.1517 13.3372 10.178 13.3419 10.3227C13.3535 10.6051 13.2582 11.0281 13.3032 11.0939C14.2927 12.5406 15.3833 14.1416 16.3702 15.5899C16.3961 15.6278 16.4155 15.6717 16.4299 15.7154C16.4767 15.857 16.5201 15.9998 16.5641 16.1424C16.5721 16.168 16.5771 16.1945 16.5851 16.2276C16.4377 16.3283 16.2924 16.4276 16.1387 16.5325C16.124 16.5008 16.1126 16.4766 16.1012 16.4517C16.0983 16.4453 16.096 16.4385 16.0945 16.4317C16.0186 16.0889 15.8436 15.7981 15.6444 15.5123C14.8828 14.4193 14.1322 13.3188 13.3773 12.2211C13.3574 12.1922 13.3365 12.164 13.3051 12.1363C13.2941 12.3015 13.3103 12.4664 13.3083 12.6418C13.147 12.6589 12.9924 12.6753 12.8309 12.6925V12.859C12.7567 12.9061 12.6869 12.9487 12.6188 12.9939C12.5058 13.0687 12.4549 13.1715 12.45 13.3102C12.4174 14.2097 12.3791 15.1089 12.3435 16.0082C12.3173 16.6718 12.2921 17.3356 12.2666 17.9993C12.2544 18.3212 12.2427 18.6431 12.2301 18.9811C12.2766 18.9896 12.3228 18.9981 12.3828 19.0091C12.3715 18.8419 12.3921 18.6943 12.5018 18.5461V19.0157C12.5922 19.0271 12.6728 19.0389 12.7537 19.0473C13.25 19.098 13.7464 19.1482 14.2428 19.198C14.4023 19.2139 14.4371 19.2402 14.4717 19.3982C14.515 19.5966 14.5119 19.7967 14.4759 19.9958C14.4579 20.0959 14.439 20.1105 14.3368 20.1188C13.855 20.1579 13.3733 20.196 12.8915 20.2349C12.8335 20.2397 12.7758 20.2479 12.7031 20.2562C12.754 20.3548 12.7945 20.4438 12.8445 20.5269C12.8865 20.597 12.8899 20.6623 12.8648 20.739C12.8247 20.8615 12.7945 20.9872 12.7535 21.1349C12.6695 20.9775 12.5965 20.8411 12.5235 20.7046C12.5143 20.7063 12.5145 20.7062 12.5053 20.7078C12.5029 20.7247 12.4992 20.7416 12.4987 20.7584C12.4916 21.0571 12.4846 21.3557 12.4783 21.6543C12.4752 21.7974 12.4616 21.8419 12.3586 21.9999C12.3496 21.4651 12.3802 20.9511 12.3825 20.4517C12.3341 20.4426 12.2973 20.4359 12.2534 20.4277C12.242 20.566 12.2365 20.7063 12.2173 20.8448C12.1909 21.035 12.1569 21.2245 12.1198 21.4129C12.11 21.4629 12.1015 21.5361 12.0336 21.5385C11.9683 21.5409 11.9474 21.473 11.9342 21.4221C11.8766 21.2024 11.8247 20.9813 11.7655 20.7386C11.5931 20.6596 11.5843 20.476 11.5748 20.2821C11.5338 20.2753 11.493 20.2652 11.4516 20.2619C10.9111 20.2191 10.3704 20.1773 9.82994 20.1348C9.76331 20.1296 9.69692 20.1201 9.63029 20.1176C9.57321 20.1154 9.54243 20.0861 9.53194 20.0345C9.48417 19.8004 9.48111 19.5667 9.54361 19.3344C9.56708 19.2469 9.6264 19.2104 9.71543 19.202C10.0479 19.1706 10.3799 19.135 10.7121 19.101C11.0404 19.0673 11.3686 19.0338 11.6968 18.9995C11.7194 18.997 11.7414 18.9881 11.7629 18.9823C11.7629 18.8726 11.7664 18.7668 11.7623 18.6613C11.7336 17.9033 11.7035 17.1454 11.6733 16.3875C11.6375 15.4881 11.601 14.5888 11.5653 13.6896C11.5605 13.5678 11.5555 13.4459 11.5547 13.3242C11.5535 13.1516 11.4852 13.0176 11.3274 12.9434C11.2442 12.8939 11.3202 12.942 11.2011 12.8703C11.2023 12.8569 11.2049 12.7163 11.2035 12.6926C11.0431 12.6761 10.8839 12.6597 10.7117 12.642C10.7194 12.4612 10.7268 12.2866 10.7342 12.1108C10.6839 12.0833 10.6398 12.0592 10.5873 12.0304C10.6796 11.8111 10.7367 11.6358 10.7408 11.5896C10.7461 11.5309 10.7188 11.4682 10.7056 11.4015C10.6656 11.187 10.6349 10.694 10.6226 10.4743C10.621 10.4474 10.6175 10.4207 10.6129 10.3735C9.74244 10.9674 8.87742 11.5575 8.00993 12.1495C8.00486 12.153 7.99979 12.1564 7.99483 12.1599C7.30789 12.6302 6.62095 13.1006 5.93412 13.5712C5.91797 13.5821 5.90358 13.5987 5.88577 13.6043C5.69555 13.6645 5.50474 13.723 5.30768 13.7838C5.20461 13.6337 5.10519 13.4887 5 13.3354C5.03219 13.3198 5.0559 13.308 5.08043 13.2965C5.08668 13.2936 5.09328 13.2912 5.10012 13.2898C5.44389 13.2142 5.73411 13.0367 6.01998 12.8369C6.20454 12.7078 6.38662 12.5808 6.56635 12.456L6.56788 12.4549C6.81117 12.2859 7.04986 12.1205 7.28407 11.9587C7.88858 11.5431 8.49309 11.1275 9.09748 10.7116C9.45174 10.468 9.80589 10.2242 10.1599 9.98021C10.2177 9.94035 10.2745 9.91865 10.3451 9.92089C10.4306 9.92372 10.5299 9.91806 10.6305 9.91546C10.6305 9.86298 10.6301 9.75732 10.6296 9.6671C10.6293 9.58774 10.6296 9.57736 10.6296 9.52146L10.6904 9.52063L10.6939 9.01377C10.6828 9.01283 10.6259 9.01412 10.617 9.01401C10.6287 8.97096 10.6573 8.92568 10.6573 8.87992C10.6608 8.77437 10.659 8.66635 10.659 8.5608C10.6591 8.51375 10.6373 8.46657 10.6198 8.39711C10.5524 8.47613 10.4855 8.49523 10.4087 8.48686C10.3311 8.47848 10.2894 8.44629 10.2881 8.37022C10.2844 8.16974 10.2839 7.96926 10.2882 7.7689C10.2901 7.67963 10.336 7.64991 10.4426 7.6505C10.5484 7.65109 10.5871 7.68104 10.5918 7.77397C10.5953 7.84426 10.5925 7.9149 10.5925 8.00358C10.6253 7.97905 10.6704 7.93377 10.6858 7.91525C10.7277 7.87657 10.7384 7.66901 10.6734 7.57302C10.5435 7.38103 10.4122 7.18986 10.2815 6.99846C9.37556 5.67081 8.46962 4.34327 7.56356 3.01573C7.5526 2.99957 7.53609 2.98518 7.53043 2.96738C7.47064 2.77704 7.4125 2.58611 7.35188 2.38893C7.50224 2.28609 7.64729 2.18692 7.80084 2.08196C7.81641 2.11427 7.8282 2.13797 7.83964 2.1625C7.84259 2.16875 7.84483 2.17536 7.84624 2.1822C7.92136 2.52608 8.09826 2.81666 8.29768 3.10276C9.01009 4.12451 9.71166 5.15404 10.4174 6.1805C10.4416 6.216 10.467 6.25067 10.4917 6.28534C10.5643 6.27638 10.6332 6.26777 10.7164 6.25739C10.7289 6.13344 10.7417 6.00608 10.7548 5.87872C10.7838 5.5971 10.8168 5.3156 10.8998 5.04424C10.9421 4.90603 10.9997 4.77171 11.0605 4.64033C11.0879 4.58137 11.092 4.53278 11.0707 4.47311C11.0245 4.34374 10.9746 4.17239 10.9319 4.04172C10.9424 3.87791 10.9871 3.70161 11.1378 3.63368C11.2481 3.58391 11.3695 3.61328 11.4564 3.7134C11.5375 3.8068 11.5667 3.91954 11.5707 4.0403C11.572 4.07875 11.5709 4.11743 11.5709 4.15977C11.676 4.1442 11.7714 4.1212 11.8675 4.11814C12.0006 4.11401 12.1361 4.11189 12.267 4.13182C12.5243 4.17109 12.7252 4.30907 12.8735 4.52311C12.9891 4.6901 13.0592 4.87702 13.1132 5.07101C13.1235 5.10781 13.1333 5.14472 13.1603 5.18281C13.1642 5.15934 13.1714 5.13587 13.1714 5.11241C13.172 4.27569 13.1734 3.39145 13.1721 2.55427V2.4828H13.132V2.34188H13.193L13.2609 2.00401C13.2614 2.00165 13.2635 1.99988 13.266 1.99988H13.293C13.2953 1.99988 13.2974 2.00153 13.2979 2.00389L13.3691 2.34188H13.4268V2.48245H13.3852L13.3844 2.55556C13.3842 2.57526 13.3841 2.59613 13.3841 2.61854C13.384 3.47153 13.3838 4.3336 13.3847 5.18647H13.4298L13.4289 5.34308H13.3829C13.3829 5.34308 13.3767 5.77989 13.3756 5.91303C13.3756 5.92424 13.4207 5.90407 13.4339 5.9523C13.4377 5.96598 13.4386 6.34596 13.4387 6.3903C13.4781 6.47945 13.4888 6.43275 13.4918 6.68677C13.494 6.88301 13.4704 6.88501 13.4687 6.88737C13.4662 6.89044 13.4078 6.94079 13.3019 6.94421C13.2938 6.94445 13.2851 6.94445 13.276 6.94433C13.2828 7.25095 13.2894 7.56394 13.2983 7.87681C13.2989 7.89603 13.3183 7.91466 13.3505 7.93105C13.3518 7.88306 13.3519 7.83494 13.3546 7.78694C13.3607 7.68128 13.4006 7.64814 13.5168 7.6505C13.6243 7.65274 13.6567 7.68411 13.6605 7.79131C13.6616 7.82279 13.6608 7.85416 13.6608 7.88565V7.98235C13.7154 7.99238 13.7449 7.95523 13.778 7.9327C14.4667 7.46393 15.1547 6.99422 15.8428 6.52462C16.651 5.97318 17.4593 5.42162 18.2675 4.87006C18.2869 4.85685 18.305 4.83881 18.3266 4.83209C18.5133 4.77348 18.7006 4.71687 18.8963 4.65708C18.9995 4.8085 19.1001 4.95591 19.2089 5.11547Z" fill="currentColor"/>
</svg>
