<svg width="24" height="24" viewBox="0 0 24 24" fill="none" xmlns="http://www.w3.org/2000/svg">
  <path fill-rule="evenodd" clip-rule="evenodd" d="M3 12C3 7.032 7.032 3 12 3C16.968 3 21 7.032 21 12C21 16.968 16.968 21 12 21C7.032 21 3 16.968 3 12ZM10.9729 13.3983C10.957 13.6561 10.949 13.9704 10.949 14.3412H12.9395C12.9395 14.1263 12.9448 13.9436 12.9554 13.7931C12.966 13.6373 12.9926 13.495 13.035 13.366C13.0722 13.2371 13.1359 13.1108 13.2261 12.9872C13.3163 12.8637 13.4411 12.7213 13.6003 12.5601C13.8604 12.3291 14.1178 12.0927 14.3726 11.8509C14.6327 11.6038 14.8636 11.3432 15.0653 11.0692C15.267 10.8005 15.4315 10.5104 15.5589 10.1988C15.6863 9.8818 15.75 9.53257 15.75 9.15111C15.75 8.63533 15.6651 8.18133 15.4952 7.78912C15.3254 7.39691 15.0812 7.06649 14.7627 6.79785C14.439 6.53459 14.0435 6.3358 13.5764 6.20148C13.1093 6.06716 12.5812 6 11.992 6C11.4666 6 10.9782 6.06716 10.5271 6.20148C10.0759 6.33042 9.68312 6.52921 9.34873 6.79785C9.01433 7.06649 8.74894 7.40497 8.55255 7.8133C8.35616 8.21625 8.25531 8.69174 8.25 9.23976H10.4713C10.4766 8.99261 10.5218 8.78039 10.6067 8.60309C10.6969 8.42579 10.8137 8.28073 10.957 8.1679C11.095 8.05507 11.2542 7.97448 11.4347 7.92613C11.6152 7.8724 11.801 7.84553 11.992 7.84553C12.2362 7.84553 12.4512 7.8724 12.6369 7.92613C12.828 7.97985 12.9899 8.06044 13.1226 8.1679C13.25 8.2861 13.3482 8.43653 13.4172 8.61921C13.4862 8.79651 13.5207 9.00873 13.5207 9.25588C13.5207 9.46004 13.4756 9.6642 13.3854 9.86837C13.2951 10.0725 13.1783 10.2713 13.035 10.4647C12.8864 10.6635 12.7219 10.857 12.5414 11.045C12.3609 11.2277 12.1805 11.4023 12 11.5688C11.7505 11.7676 11.5568 11.9557 11.4188 12.133C11.2808 12.3049 11.1773 12.4929 11.1083 12.6971C11.0393 12.9066 10.9942 13.1404 10.9729 13.3983ZM10.965 15.8966C10.7367 16.133 10.6226 16.4285 10.6226 16.7831C10.6226 17.1269 10.7367 17.4171 10.965 17.6535C11.1932 17.8845 11.509 18 11.9124 18C12.3052 18 12.6184 17.8845 12.8519 17.6535C13.0908 17.4171 13.2102 17.1269 13.2102 16.7831C13.2102 16.4285 13.0908 16.133 12.8519 15.8966C12.6184 15.6548 12.3052 15.5339 11.9124 15.5339C11.509 15.5339 11.1932 15.6548 10.965 15.8966Z" fill="#898989"/>
</svg>
