<svg width="24" height="24" viewBox="0 0 24 24" fill="none" xmlns="http://www.w3.org/2000/svg">
  <path fill-rule="evenodd" clip-rule="evenodd" d="M12 19.5C16.1421 19.5 19.5 16.1421 19.5 12C19.5 7.85786 16.1421 4.5 12 4.5C7.85786 4.5 4.5 7.85786 4.5 12C4.5 16.1421 7.85786 19.5 12 19.5ZM12 21C16.9706 21 21 16.9706 21 12C21 7.02944 16.9706 3 12 3C7.02944 3 3 7.02944 3 12C3 16.9706 7.02944 21 12 21Z" fill="#898989"/>
  <path fill-rule="evenodd" clip-rule="evenodd" d="M11.25 12.2281V6H12.75V12.2281C12.75 12.9547 12.3991 13.6366 11.8078 14.059L8.93593 16.1103L8.06407 14.8897L10.9359 12.8384C11.133 12.6976 11.25 12.4703 11.25 12.2281Z" fill="#898989"/>
</svg>
