<svg xmlns="http://www.w3.org/2000/svg" width="24" height="24" viewBox="0 0 24 24" fill="none">
  <path d="M10.89 21.89C6.20978 21.3993 2.49075 17.6803 2 13L4.01718 15.0172C4.8793 17.2404 6.64966 19.0108 8.87286 19.8729L10.89 21.89Z" fill="#898989"/>
  <path d="M21.89 13C21.3993 17.6802 17.6802 21.3993 13 21.89L15.0171 19.8729C17.2404 19.0108 19.0107 17.2404 19.8729 15.0172L21.89 13Z" fill="#898989"/>
  <path d="M13 2C17.6802 2.49072 21.3993 6.20979 21.89 10.89L19.8729 8.87288C19.0107 6.64966 17.2404 4.8793 15.0172 4.01718L13 2Z" fill="#898989"/>
  <path d="M2 10.89C2.49075 6.20978 6.20981 2.49075 10.89 2.00002L8.8728 4.0172C6.64963 4.87932 4.8793 6.64964 4.01718 8.87282L2 10.89Z" fill="#898989"/>
  <path d="M11.9451 13.445C12.7735 13.445 13.4451 12.7734 13.4451 11.945C13.4451 11.1166 12.7735 10.445 11.9451 10.445C11.1166 10.445 10.4451 11.1166 10.4451 11.945C10.4451 12.7734 11.1166 13.445 11.9451 13.445Z" fill="#898989"/>
</svg>
