<svg width="20" height="20" viewBox="0 0 20 20" fill="none" xmlns="http://www.w3.org/2000/svg">
  <path d="M8.89001 19.89C4.20978 19.3993 0.490753 15.6803 0 11L2.01718 13.0172C2.8793 15.2404 4.64966 17.0108 6.87286 17.8729L8.89001 19.89Z" fill="#898989"/>
  <path d="M19.89 11C19.3993 15.6802 15.6802 19.3993 11 19.89L13.0171 17.8729C15.2404 17.0108 17.0107 15.2404 17.8729 13.0172L19.89 11Z" fill="#898989"/>
  <path d="M11 0C15.6802 0.490723 19.3993 4.20979 19.89 8.89003L17.8729 6.87288C17.0107 4.64966 15.2404 2.8793 13.0172 2.01718L11 0Z" fill="#898989"/>
  <path d="M0 8.89C0.490753 4.20978 4.20981 0.490753 8.89001 1.52588e-05L6.8728 2.0172C4.64963 2.87932 2.8793 4.64964 2.01718 6.87282L0 8.89Z" fill="#898989"/>
  <path d="M9.94507 11.445C10.7735 11.445 11.4451 10.7734 11.4451 9.94501C11.4451 9.11658 10.7735 8.44501 9.94507 8.44501C9.11664 8.44501 8.44507 9.11658 8.44507 9.94501C8.44507 10.7734 9.11664 11.445 9.94507 11.445Z" fill="#898989"/>
</svg>
