<svg width="24" height="24" viewBox="0 0 24 24" fill="none" xmlns="http://www.w3.org/2000/svg">
  <path fill-rule="evenodd" clip-rule="evenodd" d="M20.8709 12.8275L12.8275 20.8708C11.8995 21.7989 10.9714 20.8708 10.9714 20.8708L2.92804 12.8275C1.99997 11.8994 2.92804 10.9714 2.92804 10.9714L10.9714 2.92801C11.8995 1.99993 12.8275 2.92801 12.8275 2.92801L20.8709 10.9714C20.8709 10.9714 21.799 11.8994 20.8709 12.8275ZM3.85612 11.8994L11.8995 19.9428L19.9428 11.8994L11.8995 3.85609L3.85612 11.8994Z" fill="#898989"/>
  <path d="M10.0081 11.0001H13.0041L13 8.00001L17.5 12L13 16V13L10.0082 13.0001L9.9972 14.5C9.9972 14.5 9.9972 13.5 10 14.5H8C8 12.5 7.9972 14.5 7.9972 14.5C7.9972 14.5 7.9972 14.5 7.9972 14C7.99722 13.4946 8 13.5 8 13.5V13.0001C8 11.0001 10.0081 11.0001 10.0081 11.0001Z" fill="#898989"/>
</svg>
