<svg width="24" height="24" viewBox="0 0 24 24" fill="none" xmlns="http://www.w3.org/2000/svg">
  <path d="M20.4893 5H3.49818C2.4987 5 1.99896 5.5 1.99896 6.5L1.99994 17.5C1.99994 18.5 2.4987 19 3.49818 19H20.4893C21.4888 19 21.9885 18.5 21.9885 17.5V6.5C21.9885 5.5 21.4888 5 20.4893 5ZM13.0005 7H15.0005V9H13.0005V7ZM13.0005 11H15.0005V13H13.0005V11ZM9.00046 7H11.0005V9H9.00046V7ZM9.00046 11H11.0005V13H9.00046V11ZM5.00046 7H7.00046V9H5.00046V7ZM5.00046 11H7.00046V13H5.00046V11ZM17.0005 17H7.00046V15H17.0005V17ZM19.0005 13H17.0005V11H19.0005V13ZM19.0005 9H17.0005V7H19.0005V9Z" fill="#898989"/>
</svg>
