<svg width="24" height="24" viewBox="0 0 24 24" fill="none" xmlns="http://www.w3.org/2000/svg">
  <path d="M21 18.5C21 17 19.5 17 19.5 17H4.5C4.5 17 3 17 3 18.5C3 20 3 20 3 20H21C21 20 21 20 21 18.5Z" fill="currentColor"/>
  <path d="M7 14C8 14 17 14 17 14V15.5C17 15.5 8 15.5 7 15.5V14Z" fill="currentColor"/>
  <path fill-rule="evenodd" clip-rule="evenodd" d="M11.25 10V4L12.75 4V10H11.25Z" fill="currentColor"/>
  <path fill-rule="evenodd" clip-rule="evenodd" d="M15 11.1213L19.2427 6.87866L20.3033 7.93932L16.0607 12.182L15 11.1213Z" fill="currentColor"/>
  <path fill-rule="evenodd" clip-rule="evenodd" d="M8.24264 12.1213L4 7.87866L5.06066 6.818L9.3033 11.0606L8.24264 12.1213Z" fill="currentColor"/>
</svg>
