<svg width="24" height="24" viewBox="0 0 24 24" fill="none" xmlns="http://www.w3.org/2000/svg">
  <path d="M11.9997 20.8919C12.0767 20.7162 12.2037 20.7433 12.3462 20.7777C12.955 20.9245 13.5652 21.066 14.1742 21.2121C14.7581 21.3522 15.3413 21.4957 15.9247 21.6378C15.9473 21.6432 15.9701 21.648 15.9926 21.6544C16.0361 21.6668 16.0588 21.6479 16.0595 21.6057C16.0609 21.4969 16.0646 21.3879 16.0563 21.2797C16.054 21.2494 16.0185 21.2133 15.989 21.1945C15.4304 20.8368 14.8708 20.4806 14.3106 20.1253C13.7703 19.7824 13.2296 19.4399 12.688 19.0992C12.6292 19.0621 12.5909 19.0167 12.6051 18.9481C12.6234 18.8586 12.6373 18.7631 12.6798 18.6847C12.7714 18.5156 12.7957 18.3318 12.8192 18.1482C12.8708 17.7454 12.9155 17.3416 12.9618 16.9382C13.0079 16.5368 13.0468 16.1358 13.0423 15.7299C13.0334 14.9261 13.0407 14.1221 13.0415 13.3183C13.0415 13.3032 13.0437 13.2879 13.0456 13.2613C13.2984 13.2613 13.5487 13.2649 13.7991 13.2602C13.9904 13.2567 14.1817 13.241 14.3732 13.2357C14.3989 13.2349 14.4365 13.2578 14.449 13.2805C14.4723 13.3226 14.4791 13.3735 14.4974 13.4191C14.5037 13.4348 14.5149 13.4538 14.5369 13.4582C14.5569 13.4485 14.5613 13.4269 14.5619 13.4107C14.5647 13.3384 14.5632 13.2658 14.5632 13.1829C14.6013 13.1811 14.6338 13.1786 14.6663 13.1779C14.8764 13.1741 15.0863 13.1722 15.291 13.2294C15.3112 13.235 15.3453 13.2508 15.345 13.2612C15.3434 13.3349 15.3942 13.3307 15.4435 13.339C15.5554 13.3576 15.6664 13.381 15.7677 13.4006C15.7931 13.4908 15.8093 13.5481 15.8325 13.6305C15.8339 13.6357 15.8451 13.6586 15.8508 13.6646C15.8558 13.6699 15.8676 13.6708 15.8724 13.6654C15.876 13.6614 15.8838 13.6444 15.8846 13.6414C15.8925 13.6117 15.8978 13.6013 15.9011 13.5711C15.9051 13.5331 15.902 13.4944 15.902 13.4412C16.0227 13.4723 16.1315 13.4997 16.2399 13.5285C16.5827 13.619 16.9248 13.7118 17.2684 13.7989C17.3245 13.8132 17.3544 13.8409 17.3695 13.8912C17.3902 13.9606 17.4069 14.0312 17.4305 14.0995C17.4367 14.1175 17.4563 14.1373 17.4795 14.1434C17.4957 14.1329 17.5049 14.1071 17.506 14.0884C17.5094 14.0268 17.5069 13.9367 17.5069 13.863C17.7477 13.9078 17.9805 13.9791 18.2192 14.0234C18.2221 13.978 18.2249 13.9378 18.2281 13.8893C18.2649 13.9002 18.297 13.9084 18.3282 13.9189C18.8042 14.0783 19.28 14.2384 19.7559 14.3976C20.4236 14.6209 21.0915 14.8432 21.7593 15.0662C21.868 15.1024 21.8797 15.123 21.8676 15.2378C21.859 15.3185 21.853 15.3994 21.8458 15.4803C21.8526 15.4824 21.8595 15.4845 21.8663 15.4866C21.878 15.4687 21.8959 15.4522 21.9001 15.4327C21.9261 15.3148 21.9592 15.1972 21.9707 15.0777C21.9892 14.8844 21.997 14.6898 22 14.4958C22.0008 14.4437 21.9787 14.3828 21.9477 14.34C21.88 14.2465 21.8004 14.1617 21.7249 14.074C21.7142 14.0614 21.6943 14.0433 21.6802 14.0343C21.6042 13.9853 21.6051 13.9531 21.702 13.8891C21.632 13.8481 21.5712 13.8103 21.5085 13.776C20.5446 13.2506 19.5801 12.7261 18.6166 12.2002C17.9259 11.8234 17.2424 11.4325 16.5427 11.0733C16.2916 10.9443 16.033 10.8272 15.7836 10.693C15.7038 10.6501 15.6261 10.6028 15.5448 10.5633C15.4839 10.5337 15.4527 10.4953 15.4629 10.4245C15.4895 10.2401 15.5137 10.0554 15.5382 9.87091C15.575 9.59443 15.6624 9.3223 15.6363 9.04038C15.6163 8.82707 15.5767 8.61547 15.5399 8.40418C15.5277 8.33354 15.4282 8.26897 15.3534 8.26897C15.0838 8.26881 14.814 8.26897 14.5443 8.26912C14.4511 8.26912 14.3628 8.33509 14.3312 8.42627C14.2055 8.78895 14.1649 9.15645 14.2635 9.53328C14.2805 9.59801 14.2915 9.66569 14.2938 9.73228C14.2949 9.7634 14.2759 9.80556 14.2518 9.82361C14.2366 9.83497 14.1896 9.81848 14.1658 9.80152C13.8174 9.55444 13.4712 9.30441 13.1227 9.05765C13.082 9.02871 13.0692 8.99946 13.0694 8.9506C13.0728 7.94177 13.0742 6.93293 13.0762 5.92425C13.0768 5.63532 13.0252 5.35293 12.9796 5.06898C12.8948 4.53967 12.7826 4.01689 12.6458 3.49878C12.6026 3.33479 12.5284 3.17703 12.5405 3.0009C12.5413 2.98908 12.5357 2.97445 12.5282 2.96496C12.4 2.80019 12.3831 2.59108 12.304 2.40686C12.2647 2.31491 12.232 2.21518 12.1719 2.1377C12.1094 2.0571 12.0515 2.01276 11.9977 2H12.0023C11.9485 2.01276 11.8906 2.0571 11.8281 2.1377C11.768 2.21502 11.7353 2.31476 11.696 2.40686C11.6171 2.59108 11.6001 2.80019 11.4718 2.96496C11.4643 2.97445 11.4587 2.98923 11.4595 3.0009C11.4716 3.17687 11.3974 3.33479 11.3542 3.49878C11.2174 4.01689 11.1052 4.53967 11.0204 5.06898C10.975 5.35293 10.9233 5.63532 10.9238 5.92425C10.9258 6.93309 10.9272 7.94192 10.9306 8.9506C10.9308 8.99946 10.918 9.02871 10.8773 9.05765C10.5288 9.30441 10.1826 9.55444 9.83421 9.80152C9.81056 9.81832 9.76357 9.83497 9.74817 9.82361C9.72405 9.80572 9.70507 9.7634 9.70616 9.73228C9.70849 9.66553 9.71954 9.59801 9.7365 9.53328C9.83514 9.15645 9.79469 8.7891 9.66882 8.42627C9.63723 8.33509 9.54886 8.26928 9.45566 8.26912C9.18603 8.26897 8.91624 8.26881 8.6466 8.26897C8.57176 8.26897 8.47234 8.33354 8.46005 8.40418C8.42349 8.61547 8.38366 8.82722 8.36374 9.04038C8.33745 9.3223 8.42504 9.59443 8.46176 9.87091C8.48619 10.0556 8.51031 10.2403 8.53707 10.4245C8.54734 10.4953 8.51622 10.5337 8.45523 10.5633C8.37386 10.6028 8.29622 10.6501 8.2164 10.693C7.96699 10.8272 7.7084 10.9443 7.45728 11.0733C6.7576 11.4325 6.0741 11.8234 5.38345 12.2002C4.41973 12.7261 3.45539 13.2504 2.49152 13.776C2.42867 13.8103 2.36799 13.8481 2.29797 13.8891C2.39506 13.9531 2.39584 13.9854 2.31975 14.0343C2.30575 14.0433 2.28599 14.0614 2.2751 14.074C2.19964 14.1617 2.11998 14.2465 2.0523 14.34C2.02134 14.3828 1.99924 14.4435 2.00002 14.4958C2.00298 14.6899 2.01076 14.8846 2.02927 15.0777C2.04078 15.1972 2.07377 15.3148 2.09991 15.4327C2.10426 15.4522 2.12216 15.4687 2.13367 15.4866C2.14052 15.4845 2.14736 15.4824 2.15421 15.4803C2.14705 15.3994 2.14098 15.3185 2.13243 15.2378C2.12029 15.123 2.13196 15.1026 2.24072 15.0662C2.9085 14.8432 3.57644 14.6207 4.24407 14.3976C4.72017 14.2384 5.19581 14.0783 5.67175 13.9189C5.70302 13.9084 5.73492 13.9002 5.77195 13.8893C5.77522 13.9378 5.77786 13.978 5.78082 14.0234C6.01949 13.9791 6.25241 13.9078 6.4931 13.863C6.4931 13.9367 6.49061 14.0267 6.49404 14.0884C6.49513 14.1071 6.50431 14.1329 6.52049 14.1434C6.54367 14.1373 6.56312 14.1177 6.5695 14.0995C6.59315 14.0312 6.60979 13.9606 6.63049 13.8912C6.64558 13.8407 6.67545 13.8131 6.73162 13.7989C7.07516 13.7118 7.4173 13.6189 7.76006 13.5285C7.8685 13.4999 7.97726 13.4723 8.098 13.4412C8.098 13.4944 8.09489 13.5331 8.09893 13.5711C8.1022 13.6013 8.10749 13.6117 8.11542 13.6414C8.1162 13.6446 8.12398 13.6614 8.12756 13.6654C8.13238 13.6708 8.14421 13.6698 8.14919 13.6646C8.15494 13.6586 8.16615 13.6355 8.16755 13.6305C8.19073 13.5482 8.20691 13.491 8.23227 13.4006C8.33356 13.381 8.44465 13.3576 8.55652 13.339C8.60584 13.3307 8.6564 13.3349 8.655 13.2612C8.65485 13.2508 8.68877 13.2352 8.70899 13.2294C8.91375 13.1722 9.12379 13.1741 9.33368 13.1779C9.3662 13.1786 9.39856 13.1811 9.43684 13.1829C9.43684 13.2658 9.43528 13.3384 9.43808 13.4107C9.4387 13.4269 9.44306 13.4485 9.46313 13.4582C9.48507 13.4538 9.49627 13.4348 9.50265 13.4191C9.52085 13.3737 9.5277 13.3226 9.55104 13.2805C9.56364 13.2578 9.60129 13.235 9.62681 13.2357C9.81818 13.241 10.0094 13.2567 10.2009 13.2602C10.4513 13.2649 10.7016 13.2613 10.9544 13.2613C10.9565 13.2881 10.9585 13.3032 10.9585 13.3183C10.9593 14.1222 10.9666 14.9261 10.9577 15.7299C10.9532 16.1358 10.9921 16.5368 11.0382 16.9382C11.0845 17.3416 11.1292 17.7454 11.1808 18.1482C11.2043 18.3318 11.2286 18.5156 11.3202 18.6847C11.3627 18.7631 11.3764 18.8586 11.3949 18.9481C11.4091 19.0166 11.3706 19.0621 11.312 19.0992C10.7704 19.4401 10.2297 19.7825 9.68936 20.1253C9.12924 20.4806 8.56959 20.8368 8.01102 21.1945C7.98146 21.2135 7.94599 21.2494 7.94365 21.2797C7.93525 21.3879 7.93914 21.4969 7.94054 21.6057C7.94101 21.6479 7.96372 21.6668 8.00745 21.6544C8.02985 21.648 8.05272 21.6432 8.07528 21.6378C8.65874 21.4957 9.24188 21.3522 9.82581 21.2121C10.4348 21.066 11.045 20.9244 11.6538 20.7777C11.7959 20.7434 11.9227 20.7162 11.9997 20.8919Z" fill="currentColor"/>
</svg>
