<svg width="24" height="24" viewBox="0 0 24 24" fill="none" xmlns="http://www.w3.org/2000/svg">
  <path fill-rule="evenodd" clip-rule="evenodd" d="M3 17.25V19.5C3 20.6046 3.39543 21 4.5 21H6.75V19.5H4.5C4.5 19.5 4.5 19.2761 4.5 19V17.25H3ZM3 13.75H4.5V10.25H3V13.75ZM3 6.75H4.5V4.5C4.5 4.5 4.72386 4.5 5 4.5H6.75V3H4.5C3.39543 3 3 3.39543 3 4.5V6.75ZM10.25 3V4.5H13.75V3H10.25ZM17.25 3V4.5H19C19.2761 4.5 19.5 4.5 19.5 4.5V6.75H21V4.5C21 3.39543 20.6046 3 19.5 3H17.25ZM21 10.25H19.5V13.75H21V10.25ZM21 17.25H19.5V19C19.5 19.2761 19.5 19.5 19.5 19.5H17.25V21H19.5C20.6046 21 21 20.6046 21 19.5V17.25ZM13.75 21V19.5H10.25V21H13.75Z" fill="#898989"/>
  <path fill-rule="evenodd" clip-rule="evenodd" d="M11.6389 15.4466L6.54622 11.5076C6.38534 11.4285 6.24816 11.2966 6.15174 11.1283C6.05531 10.96 6.00391 10.7627 6.00391 10.5609C6.00391 10.3592 6.05531 10.1619 6.15174 9.99355C6.24816 9.82523 6.38534 9.69334 6.54622 9.61427L11.6418 5.58221C11.7523 5.52796 11.8711 5.5 11.9911 5.5C12.1112 5.5 12.23 5.52796 12.3404 5.58221L17.4577 9.61428C17.6186 9.69335 17.7557 9.82525 17.8522 9.99356C17.9486 10.1619 18 10.3592 18 10.5609C18 10.7627 17.9486 10.96 17.8522 11.1283C17.7557 11.2966 17.6186 11.4285 17.4577 11.5076L12.3375 15.4466C12.227 15.5008 12.1082 15.5288 11.9882 15.5288C11.8681 15.5288 11.7493 15.5008 11.6389 15.4466ZM7.50391 10.5534L11.9897 7L16.5 10.5534L11.9897 14L7.50391 10.5534Z" fill="#898989"/>
  <path d="M16.7588 13.1061L11.9894 16.8737L7.2446 13.1061C6.00391 12.5533 5.56856 14.0759 6.50398 14.5534L11.6404 18.4178C11.7509 18.4721 11.8697 18.5 11.9897 18.5C12.1098 18.5 12.2286 18.4721 12.339 18.4178L17.5 14.5534C18.516 14.0348 18 12.5533 16.7588 13.1061Z" fill="#898989"/>
</svg>
