<svg width="24" height="24" viewBox="0 0 24 24" fill="none" xmlns="http://www.w3.org/2000/svg">
  <path fill-rule="evenodd" clip-rule="evenodd" d="M11.6389 15.9466L3.54622 11.0076C3.38534 10.9285 3.24816 10.7966 3.15174 10.6283C3.05531 10.46 3.00391 10.2627 3.00391 10.0609C3.00391 9.85916 3.05531 9.66186 3.15174 9.49355C3.24816 9.32523 3.38534 9.19334 3.54622 9.11427L11.6418 4.08221C11.7523 4.02796 11.8711 4 11.9911 4C12.1112 4 12.23 4.02796 12.3404 4.08221L20.4577 9.11428C20.6186 9.19335 20.7557 9.32525 20.8522 9.49356C20.9486 9.66187 21 9.85918 21 10.0609C21 10.2627 20.9486 10.46 20.8522 10.6283C20.7557 10.7966 20.6186 10.9285 20.4577 11.0076L12.3375 15.9466C12.227 16.0008 12.1082 16.0288 11.9882 16.0288C11.8681 16.0288 11.7493 16.0008 11.6389 15.9466Z" fill="#898989"/>
  <path d="M19.7588 13.2325L11.9894 18L4.2446 13.2325C3.00391 12.6797 2.56856 14.2023 3.50398 14.6797L11.6404 19.5442C11.7509 19.5984 11.8697 19.6264 11.9897 19.6264C12.1098 19.6264 12.2286 19.5984 12.339 19.5442L20.5 14.6797C21.516 14.1611 21 12.6797 19.7588 13.2325Z" fill="#898989"/>
</svg>
