<svg width="24" height="24" viewBox="0 0 24 24" fill="none" xmlns="http://www.w3.org/2000/svg">
  <path d="M19.125 7.875C20.2296 7.875 21.125 6.97957 21.125 5.875C21.125 4.77043 20.2296 3.875 19.125 3.875C18.1358 3.875 17.3143 4.59317 17.1535 5.53656L10.2369 8.30322C9.89652 8.03502 9.46695 7.875 9 7.875C7.89543 7.875 7 8.77043 7 9.875C7 10.3419 7.16002 10.7715 7.42822 11.1119L4.72062 17.8809C3.68819 17.9597 2.875 18.8224 2.875 19.875C2.875 20.9796 3.77043 21.875 4.875 21.875C5.97957 21.875 6.875 20.9796 6.875 19.875C6.875 19.4571 6.74685 19.0692 6.5277 18.7483L9.2851 11.8548C10.1615 11.7298 10.8548 11.0365 10.9798 10.1601L17.8468 7.41331C18.1934 7.70161 18.6389 7.875 19.125 7.875Z" fill="#898989"/>
</svg>
