<svg width="24" height="24" viewBox="0 0 24 24" fill="none" xmlns="http://www.w3.org/2000/svg">
  <path d="M10.9393 13.0604L9.8786 11.9998L16.2426 5.63581L20.4852 9.87845L13.0606 17.3031C13.0606 17.3031 14.1212 18.3637 15.1819 17.3031L21.5459 10.9391C21.5459 10.9391 22.6065 9.87845 21.5459 8.81779L17.3032 4.57515C16.2426 3.51449 15.1819 4.57515 15.1819 4.57515L8.81794 10.9391C8.81794 10.9391 7.75728 11.9998 8.81794 13.0604L9.8786 14.1211L10.9393 13.0604Z" fill="#898989"/>
  <path d="M7.75728 18.3637L3.51464 14.1211L10.9393 6.69647C10.1582 5.91542 9.59899 5.91542 8.81794 6.69647L2.45398 13.0604C2.45398 13.0604 1.39332 14.1211 2.45398 15.1818L6.69662 19.4244C7.75728 20.4851 8.81794 19.4244 8.81794 19.4244L15.1819 13.0604C16.2426 11.9998 15.1819 10.9391 15.1819 10.9391L14.1212 9.87845L13.0606 10.9391L14.1212 11.9998L7.75728 18.3637Z" fill="#898989"/>
</svg>
