<svg width="24" height="25" viewBox="0 0 24 25" fill="none" xmlns="http://www.w3.org/2000/svg">
  <path d="M14 12.4997C14 13.6043 13.1046 14.4997 12 14.4997C10.8954 14.4997 10 13.6043 10 12.4997C10 11.3951 10.8954 10.4997 12 10.4997C13.1046 10.4997 14 11.3951 14 12.4997Z" fill="#898989"/>
  <path d="M5.63604 6.13574C4.00736 7.76442 3 10.0144 3 12.4997C3 14.985 4.00736 17.235 5.63604 18.8637L6.6967 17.803C5.33947 16.4458 4.5 14.5708 4.5 12.4997C4.5 10.4286 5.33947 8.55364 6.6967 7.1964L5.63604 6.13574Z" fill="#898989"/>
  <path d="M17.3033 7.1964L18.364 6.13574C19.9926 7.76442 21 10.0144 21 12.4997C21 14.985 19.9926 17.235 18.364 18.8637L17.3033 17.803C18.6605 16.4458 19.5 14.5708 19.5 12.4997C19.5 10.4286 18.6605 8.55364 17.3033 7.1964Z" fill="#898989"/>
  <path d="M8.11091 8.61062C7.11561 9.60592 6.5 10.9809 6.5 12.4997C6.5 14.0185 7.11561 15.3935 8.11091 16.3888L9.08318 15.4165C8.33671 14.67 7.875 13.6388 7.875 12.4997C7.875 11.3606 8.33671 10.3294 9.08318 9.58289L8.11091 8.61062Z" fill="#898989"/>
  <path d="M14.9168 9.58289L15.8891 8.61062C16.8844 9.60592 17.5 10.9809 17.5 12.4997C17.5 14.0185 16.8844 15.3935 15.8891 16.3888L14.9168 15.4165C15.6633 14.67 16.125 13.6388 16.125 12.4997C16.125 11.3606 15.6633 10.3294 14.9168 9.58289Z" fill="#898989"/>
</svg>
