<svg width="24" height="24" viewBox="0 0 24 24" fill="none" xmlns="http://www.w3.org/2000/svg">
  <path fill-rule="evenodd" clip-rule="evenodd" d="M12 19C12 19 18.5 13.5899 18.5 10C18.5 6.41015 15.5899 3.5 12 3.5C8.41015 3.5 5.5 6.41015 5.5 10C5.5 13.5899 12 19 12 19ZM12 21C12 21 20 14.4183 20 10C20 5.58172 16.4183 2 12 2C7.58172 2 4 5.58172 4 10C4 14.4183 12 21 12 21Z" fill="#898989"/>
  <path d="M14 10C14 11.1046 13.1046 12 12 12C10.8954 12 10 11.1046 10 10C10 8.89543 10.8954 8 12 8C13.1046 8 14 8.89543 14 10Z" fill="#898989"/>
</svg>
