<svg width="24" height="24" viewBox="0 0 24 24" fill="none" xmlns="http://www.w3.org/2000/svg">
  <path d="M18.2317 19.1907L17.8879 16.3467C19.7746 14.9968 21 12.8458 21 10.4159C21 6.32093 17.5176 3 13.2153 3C9.53017 3 6.44452 5.43895 5.64225 8.71489C5.56291 9.05688 5.88029 9.36287 6.20648 9.25487C6.84125 9.03888 7.52009 8.93088 8.21657 8.93088C11.6196 8.93088 14.3879 11.6128 14.3879 14.9068L15.8568 16.3467C16.4828 16.7337 18.3199 19.9377 18.2317 19.1907Z" fill="#898989"/>
  <path d="M13.0651 14.9066C13.0651 15.9776 12.6772 16.9676 12.0248 17.7506C11.152 18.8305 9.76787 19.5235 8.21623 19.5235L7.04082 19.5001C6.65291 19.7431 5.0336 20.8285 5.0865 20.3695L5.3069 18.5965C4.12554 17.7596 3.36735 16.4186 3.36735 14.9066C3.36735 13.3227 4.19607 11.9277 5.46559 11.0997C6.25023 10.5777 7.19356 10.2807 8.21623 10.2807C10.8963 10.2807 13.0651 12.3507 13.0651 14.9066Z" fill="#898989"/>
</svg>
