<svg width="24" height="24" viewBox="0 0 24 24" fill="none" xmlns="http://www.w3.org/2000/svg">
  <path d="M20.8343 4.83884C20.446 4.09911 19.5639 3.8332 18.8632 4.24174L14.5832 6.70024L6.34953 4.07736C6.24156 4.02901 6.12439 4 5.99804 4C5.511 4 5.11815 4.41338 5.11815 4.92587C5.11815 5.1942 5.22843 5.43594 5.40073 5.60516L5.40762 5.60999C5.44438 5.64625 5.48573 5.67768 5.52938 5.70669L10.0299 9.31588L7.43847 10.8026L4.04529 10.0532C3.9534 10.0097 3.85232 9.98791 3.74664 9.98791C3.33541 9.98791 3 10.3384 3 10.7736C3 10.9718 3.06892 11.1507 3.18379 11.2885L3.18609 11.2909C3.23203 11.3465 3.28487 11.3948 3.3446 11.4335L5.07221 13H9.51987L20.322 6.72683C20.9561 6.35455 21.1881 5.51088 20.8343 4.83884Z" fill="currentColor"/>
  <path d="M3.99416 17.1497C3.99416 16.3757 4 16.5 4 16.5C4 16.5 9.75645 18.8589 12 19.5C13.6439 18.9046 20 16.5 20 16.5C20 16.5 20 16.6933 20 17.1497C20 17.702 19.6289 18.0739 19 18.2497L12.5494 20.8285C12.1903 20.9311 11.8097 20.9311 11.4506 20.8285L4.97928 18.2497C4.41678 18.0427 3.99416 17.702 3.99416 17.1497Z" fill="currentColor"/>
  <path d="M3.99414 14.657C3.99414 13.8831 3.99998 14.0073 3.99998 14.0073C3.99998 14.0073 9.75643 16.3663 12 17.0073C13.6439 16.412 20 14.0073 20 14.0073C20 14.0073 20 14.2007 20 14.657C20 15.2093 19.6289 15.5813 19 15.7571L12.5494 18.3359C12.1903 18.4385 11.8097 18.4385 11.4505 18.3359L4.97926 15.7571C4.41676 15.55 3.99414 15.2093 3.99414 14.657Z" fill="currentColor"/>
</svg>
