<svg width="24" height="24" viewBox="0 0 24 24" fill="none" xmlns="http://www.w3.org/2000/svg">
  <path d="M12.75 4.65527L14.7173 7.07739H11.9575C11.5508 6.87482 11.0867 6.75952 10.5938 6.75952C8.98878 6.75952 7.68768 7.97689 7.6875 9.47827C7.6875 10.9798 8.98867 12.197 10.5938 12.197C11.2006 12.197 11.7639 12.0229 12.23 11.7253H15.0469V15.2117H11.9575C11.5508 15.0091 11.0867 14.8938 10.5938 14.8938C8.9888 14.8938 7.6877 16.1112 7.6875 17.6125C7.6875 19.1141 8.98867 20.3313 10.5938 20.3313C11.2006 20.3313 11.7639 20.1572 12.23 19.8596H14.0354L13.5469 21.4717L12 22.875H9.04688L7.64062 21.4717L6.04688 16.5168V7.48315L8.29688 4.65527L9.04688 1.125H12L12.75 4.65527Z" fill="currentColor"/>
  <path d="M10.5938 15.9463C11.5774 15.9463 12.3748 16.6924 12.375 17.6125C12.375 18.5328 11.5775 19.2788 10.5938 19.2788C9.60999 19.2788 8.8125 18.5328 8.8125 17.6125C8.81271 16.6924 9.61012 15.9463 10.5938 15.9463Z" fill="currentColor"/>
  <path d="M17.9531 18.8071H13.2048C13.3261 18.5755 13.4129 18.3251 13.4597 18.0623H17.9531V18.8071Z" fill="currentColor"/>
  <path d="M17.9531 17.0098H13.4275C13.3632 16.7444 13.2575 16.4938 13.1169 16.2642H17.9531V17.0098Z" fill="currentColor"/>
  <path d="M10.5938 7.81201C11.5774 7.81201 12.3748 8.55812 12.375 9.47827C12.375 10.3986 11.5775 11.1445 10.5938 11.1445C9.60999 11.1445 8.8125 10.3986 8.8125 9.47827C8.81268 8.55812 9.6101 7.81201 10.5938 7.81201Z" fill="currentColor"/>
  <path d="M17.9531 9.92798V10.6729H13.2048C13.3261 10.4412 13.4129 10.1909 13.4597 9.92798H17.9531Z" fill="currentColor"/>
  <path d="M17.9531 8.12988V8.87549H13.4275C13.3632 8.61014 13.2575 8.35949 13.1169 8.12988H17.9531Z" fill="currentColor"/>
</svg>
