<svg width="24" height="24" viewBox="0 0 24 24" fill="none" xmlns="http://www.w3.org/2000/svg">
  <path d="M13.73 15.9L17.27 15.67V14.01L13.73 13.2V4.40999C13.73 4.34999 13.73 3.28999 13.62 2.78999C13.46 2.06999 12.58 0.98999 12.14 0.98999C11.65 0.98999 10.82 2.09999 10.66 2.78999C10.53 3.35999 10.54 4.01999 10.54 4.32999C10.54 4.34999 10.54 4.35999 10.54 4.37999V13.19L7 14.02V15.66L10.54 15.89L10.61 17.99L10.94 20.39L9.06 21.5C9 21.56 9 22.5 9.06 22.54C9.92 22.62 10.79 22.61 11.64 22.73C11.65 22.87 11.62 23.01 11.79 23.03C11.88 23.04 12.49 23.04 12.55 23.03C12.63 23 12.62 22.81 12.65 22.73L12.72 22.7L15.22 22.57V21.51L13.31 20.42L13.68 18.02L13.75 15.92L13.73 15.9Z" fill="currentColor"/>
</svg>
