<svg width="24" height="24" viewBox="0 0 24 24" fill="none" xmlns="http://www.w3.org/2000/svg">
  <path d="M13.379 12.7283L16.166 12.5472V11.2403L13.379 10.6026V3.68239C13.379 3.63515 13.379 2.80063 13.2924 2.40698C13.1664 1.84014 12.4736 0.989868 12.1272 0.989868C11.7414 0.989868 11.088 1.86376 10.962 2.40698C10.8597 2.85574 10.8676 3.37534 10.8676 3.6194C10.8676 3.63515 10.8676 3.64302 10.8676 3.65877V10.5948L8.08057 11.2482V12.5394L10.8676 12.7204L10.9227 14.3737L11.1825 16.2632L9.70238 17.1371C9.65514 17.1843 9.65514 17.9244 9.70238 17.9559C10.3794 18.0189 11.0644 18.011 11.7336 18.1055C11.7414 18.2157 11.7178 18.3259 11.8517 18.3417C11.9225 18.3495 12.4028 18.3495 12.45 18.3417C12.513 18.318 12.5051 18.1684 12.5287 18.1055L12.5838 18.0818L14.5521 17.9795V17.145L13.0483 16.2868L13.3396 14.3973L13.3947 12.744L13.379 12.7283Z" fill="currentColor"/>
  <path d="M20.17 16.3806L22.957 16.1995V14.8927L20.17 14.255V7.33471C20.17 7.28747 20.17 6.45295 20.0834 6.05931C19.9574 5.49246 19.2646 4.64219 18.9182 4.64219C18.5324 4.64219 17.879 5.51608 17.753 6.05931C17.6507 6.50806 17.6585 7.02767 17.6585 7.27173C17.6585 7.28747 17.6585 7.29535 17.6585 7.31109V14.2471L14.8716 14.9005V16.1917L17.6585 16.3728L17.7137 18.0261L17.9735 19.9155L16.4934 20.7894C16.4461 20.8367 16.4461 21.5767 16.4934 21.6082C17.1704 21.6712 17.8554 21.6633 18.5246 21.7578C18.5324 21.868 18.5088 21.9782 18.6427 21.994C18.7135 22.0018 19.1938 22.0018 19.241 21.994C19.304 21.9704 19.2961 21.8208 19.3197 21.7578L19.3748 21.7342L21.343 21.6318V20.7973L19.8393 19.9392L20.1306 18.0497L20.1857 16.3964L20.17 16.3806Z" fill="currentColor"/>
  <path d="M6.34146 16.3806L9.12846 16.1995V14.8927L6.34146 14.255V7.33471C6.34146 7.28747 6.34146 6.45295 6.25486 6.05931C6.1289 5.49246 5.43609 4.64219 5.08968 4.64219C4.70391 4.64219 4.05046 5.51608 3.9245 6.05931C3.82215 6.50806 3.83002 7.02767 3.83002 7.27173C3.83002 7.28747 3.83002 7.29535 3.83002 7.31109V14.2471L1.04303 14.9005V16.1917L3.83002 16.3728L3.88513 18.0261L4.14494 19.9155L2.66484 20.7894C2.6176 20.8367 2.6176 21.5767 2.66484 21.6082C3.3419 21.6712 4.02684 21.6633 4.69604 21.7578C4.70391 21.868 4.68029 21.9782 4.81413 21.994C4.88498 22.0018 5.36523 22.0018 5.41247 21.994C5.47545 21.9704 5.46758 21.8208 5.4912 21.7578L5.5463 21.7342L7.51452 21.6318V20.7973L6.0108 19.9392L6.3021 18.0497L6.35721 16.3964L6.34146 16.3806Z" fill="currentColor"/>
</svg>
