<svg xmlns="http://www.w3.org/2000/svg" width="24" height="24" viewBox="0 0 24 24" fill="none">
  <path d="M19.02 6.28052C20.145 7.64852 20.838 9.31352 21 11.0775H19.146C18.966 9.79052 18.444 8.57552 17.634 7.56752L19.02 6.28052ZM12.9 3.02252C14.664 3.19352 16.329 3.87752 17.697 5.01152L16.41 6.29852C15.393 5.49752 14.178 4.99352 12.9 4.82252V3.02252ZM11.1 3.03152C9.336 3.21152 7.671 3.90452 6.303 5.02052L7.59 6.29852C8.607 5.50652 9.822 4.99352 11.1 4.83152V3.03152ZM5.034 6.28052L6.267 7.53152V7.56752C5.475 8.58452 4.962 9.79952 4.8 11.0775H3C3.189 9.31352 3.9 7.63952 5.034 6.28052ZM3 13.7775V18.2775L4.44 16.8375C6.042 19.3305 8.823 20.9775 12 20.9775C16.338 20.9775 19.983 17.8725 20.82 13.7775H18.975C18.174 16.8825 15.348 19.1775 12 19.1775C9.345 19.1775 6.951 17.7285 5.7 15.5775L7.5 13.7775H3ZM12 16.4775L13.404 13.3995L16.5 11.9775L13.404 10.5735L12 7.47752L10.587 10.5735L7.5 11.9775L10.587 13.3995L12 16.4775Z" fill="#898989"/>
</svg>
