<svg width="18" height="18" viewBox="0 0 18 18" fill="none" xmlns="http://www.w3.org/2000/svg">
  <path d="M16.02 3.28046C17.145 4.64846 17.838 6.31346 18 8.07746H16.146C15.966 6.79046 15.444 5.57546 14.634 4.56746L16.02 3.28046ZM9.9 0.0224609C11.664 0.193461 13.329 0.877461 14.697 2.01146L13.41 3.29846C12.393 2.49746 11.178 1.99346 9.9 1.82246V0.0224609ZM8.1 0.0314609C6.336 0.211461 4.671 0.904461 3.303 2.02046L4.59 3.29846C5.607 2.50646 6.822 1.99346 8.1 1.83146V0.0314609ZM2.034 3.28046L3.267 4.53146V4.56746C2.475 5.58446 1.962 6.79946 1.8 8.07746H0C0.189 6.31346 0.9 4.63946 2.034 3.28046ZM0 10.7775V15.2775L1.44 13.8375C3.042 16.3305 5.823 17.9775 9 17.9775C13.338 17.9775 16.983 14.8725 17.82 10.7775H15.975C15.174 13.8825 12.348 16.1775 9 16.1775C6.345 16.1775 3.951 14.7285 2.7 12.5775L4.5 10.7775H0ZM9 13.4775L10.404 10.3995L13.5 8.97746L10.404 7.57346L9 4.47746L7.587 7.57346L4.5 8.97746L7.587 10.3995L9 13.4775Z" fill="#898989"/>
</svg>
