<svg width="24" height="24" viewBox="0 0 24 24" fill="none" xmlns="http://www.w3.org/2000/svg">
  <path fill-rule="evenodd" clip-rule="evenodd" d="M12 2C8.41424 2 5 3.97459 5 8V16C5 19.3137 7.68629 22 11 22H13C16.3137 22 19 19.3137 19 16V8C19 3.97459 15.5858 2 12 2ZM17.5 16V10.9938C17.2733 11.0676 17.0006 11.1478 16.6819 11.2274C16.1046 11.3718 15.3772 11.5142 14.5 11.6138V10.1033C15.234 10.0129 15.84 9.89175 16.3181 9.77221C16.7896 9.65436 17.1374 9.53794 17.3617 9.45382C17.4147 9.43396 17.4608 9.41589 17.5 9.40002V8C17.5 6.46647 16.8737 5.40197 15.9327 4.68142C15.1101 4.05151 13.9928 3.64982 12.75 3.53442V4.99999L11.25 4.99996V3.53442C10.0072 3.64982 8.8899 4.05151 8.06729 4.68142C7.1263 5.40197 6.5 6.46647 6.5 8V9.39999C6.53924 9.41586 6.58536 9.43394 6.63838 9.45382C6.86269 9.53794 7.21052 9.65436 7.68194 9.77221C8.16007 9.89175 8.76603 10.0129 9.5 10.1033V11.6138C8.62285 11.5142 7.89549 11.3718 7.31814 11.2274C6.99948 11.1478 6.72676 11.0676 6.5 10.9938V16C6.5 18.4853 8.51472 20.5 11 20.5H13C15.4853 20.5 17.5 18.4853 17.5 16Z" fill="#898989"/>
  <path d="M10.5625 7.59375C10.5625 6.78258 11.2201 6.125 12.0312 6.125C12.8424 6.125 13.5 6.78258 13.5 7.59375V10.5312C13.5 11.3424 12.8424 12 12.0312 12C11.2201 12 10.5625 11.3424 10.5625 10.5312V7.59375Z" fill="#898989"/>
</svg>
