<svg width="24" height="24" viewBox="0 0 24 24" fill="none" xmlns="http://www.w3.org/2000/svg">
  <path fill-rule="evenodd" clip-rule="evenodd" d="M12 2C8.41424 2 5 3.97459 5 8V16C5 19.3137 7.68629 22 11 22H13C16.3137 22 19 19.3137 19 16V8C19 3.97459 15.5858 2 12 2ZM17.5 16V10.9938C17.2733 11.0676 17.0006 11.1478 16.6819 11.2274C15.6243 11.4918 14.0632 11.7498 12 11.7498C9.93685 11.7498 8.37579 11.4918 7.31814 11.2274C6.99948 11.1478 6.72676 11.0676 6.5 10.9938V16C6.5 18.4853 8.51472 20.5 11 20.5H13C15.4853 20.5 17.5 18.4853 17.5 16ZM17.5 8V9.40002C17.4608 9.41589 17.4147 9.43396 17.3617 9.45382C17.1374 9.53794 16.7896 9.65436 16.3181 9.77221C15.5017 9.97631 14.3126 10.1852 12.75 10.2374L12.75 3.53442C13.9928 3.64982 15.1101 4.05151 15.9327 4.68142C16.8737 5.40197 17.5 6.46647 17.5 8Z" fill="#898989"/>
</svg>
