<svg width="24" height="24" viewBox="0 0 24 24" fill="none" xmlns="http://www.w3.org/2000/svg">
  <path d="M11 8V12H13V8H11Z" fill="#898989"/>
  <path fill-rule="evenodd" clip-rule="evenodd" d="M5 8C5 3.97459 8.41424 2 12 2C15.5858 2 19 3.97459 19 8V16C19 19.3137 16.3137 22 13 22H11C7.68629 22 5 19.3137 5 16V8ZM15.9327 4.68142C16.8737 5.40197 17.5 6.46647 17.5 8V16C17.5 18.4853 15.4853 20.5 13 20.5H11C8.51472 20.5 6.5 18.4853 6.5 16V8C6.5 6.46647 7.1263 5.40197 8.06729 4.68142C9.05243 3.92706 10.4603 3.5 12 3.5C13.5397 3.5 14.9476 3.92706 15.9327 4.68142Z" fill="#898989"/>
  <path d="M12.5 10V8L14.5 8L12 5.5L9.5 8H11.5V10H12.5Z" fill="#898989"/>
  <path d="M11.5 9.5V11.5H9.5L12 14L14.5 11.5H12.5V9.5H11.5Z" fill="#898989"/>
</svg>
