<svg width="24" height="24" viewBox="0 0 24 24" fill="none" xmlns="http://www.w3.org/2000/svg">
  <path d="M5.8 20.2C5.305 20.2 4.88125 20.0238 4.52875 19.6713C4.17625 19.3188 4 18.895 4 18.4V4L5.5075 5.5075L6.9925 4L8.5 5.5075L10.0075 4L11.4925 5.5075L13 4L14.5075 5.5075L15.9925 4L17.5 5.5075L19.0075 4L20.4925 5.5075L22 4V18.4C22 18.895 21.8238 19.3188 21.4713 19.6713C21.1187 20.0238 20.695 20.2 20.2 20.2H5.8ZM5.8 18.4H12.1V13H5.8V18.4ZM13.9 18.4H20.2V16.6H13.9V18.4ZM13.9 14.8H20.2V13H13.9V14.8ZM5.8 11.2H20.2V8.5H5.8V11.2Z" fill="#898989"/>
</svg>
