<svg width="24" height="24" viewBox="0 0 24 24" fill="none" xmlns="http://www.w3.org/2000/svg">
  <path fill-rule="evenodd" clip-rule="evenodd" d="M3 12C3 16.9706 7.02944 21 12 21C16.9706 21 21 16.9706 21 12C21 7.02944 16.9706 3 12 3C7.02944 3 3 7.02944 3 12ZM7.08397 17.6643C8.4004 18.8078 10.1194 19.5 12 19.5C16.1421 19.5 19.5 16.1421 19.5 12C19.5 10.1194 18.8078 8.4004 17.6643 7.08397L7.08397 17.6643ZM6.05453 16.5724C5.07972 15.3068 4.5 13.7211 4.5 12C4.5 7.85786 7.85786 4.5 12 4.5C13.7211 4.5 15.3068 5.07972 16.5724 6.05453L6.05453 16.5724Z" fill="#898989"/>
</svg>
