<svg width="24" height="24" viewBox="0 0 24 24" fill="none" xmlns="http://www.w3.org/2000/svg">
  <path fill-rule="evenodd" clip-rule="evenodd" d="M6.3125 3H13L19 9.00001V19.3125C19 21 17.6875 21 17.6875 21H6.3125C5 21 5 19.3125 5 19.3125V4.6875C5 4.6875 5 3 6.3125 3ZM17.6875 19.3125L17.69 9.65385L12.69 4.69248L6.3125 4.6875V19.3125H17.6875Z" fill="#898989"/>
  <path fill-rule="evenodd" clip-rule="evenodd" d="M16 12H8V10.5H16V12Z" fill="#898989"/>
  <path fill-rule="evenodd" clip-rule="evenodd" d="M9.5 9.00001H8V7.50001H9.5V9.00001Z" fill="#898989"/>
  <path fill-rule="evenodd" clip-rule="evenodd" d="M16 15H8V13.5H16V15Z" fill="#898989"/>
  <path fill-rule="evenodd" clip-rule="evenodd" d="M16 18H8V16.5H16V18Z" fill="#898989"/>
</svg>
