<svg width="24" height="24" viewBox="0 0 24 24" fill="none" xmlns="http://www.w3.org/2000/svg">
  <path fill-rule="evenodd" clip-rule="evenodd" d="M17 4.51555C19.412 6.13007 21 8.87958 21 12C21 16.9706 16.9706 21 12 21C7.02944 21 3 16.9706 3 12C3 7.02944 7.02944 3 12 3C13.8387 3 15.5486 3.55137 16.9734 4.49778L17 4.5V4.51555ZM14 19.2304C13.3633 19.4061 12.6926 19.5 12 19.5C7.85786 19.5 4.5 16.1421 4.5 12C4.5 10.7004 4.83057 9.47793 5.41221 8.41221L12.5 15.5C12.5 15.5 12.5 17 14 17V19.2304ZM18.2411 16.1606C18.0476 16.0619 17.8048 16 17.5 16V14.5C17.5 14.5 17.5 13 16 13H12V11H13C14.5 11 14.5 9.5 14.5 9.5V8H15.5C17 8 17 6.5 17 6.5V6.40973C18.5344 7.78304 19.5 9.77875 19.5 12C19.5 13.5392 19.0364 14.9701 18.2411 16.1606Z" fill="#898989"/>
</svg>
