<svg width="24" height="24" viewBox="0 0 24 24" fill="none" xmlns="http://www.w3.org/2000/svg">
  <path fill-rule="evenodd" clip-rule="evenodd" d="M11.7617 1.13232C11.7989 1.13239 11.8293 1.13963 11.8591 1.13965C12.2645 1.23531 13.4642 2.20778 13.7942 2.52979C15.0166 3.71533 15.8787 5.26738 16.4412 6.7749C16.4412 6.7749 16.8936 8.02588 17.0718 9.35083C17.25 10.6758 17.0718 14.8689 17.0718 14.8689L16.7188 20.0793L14.4841 20.2551C14.1094 20.3576 14.3111 20.855 14.0491 21.0381C13.749 21.2502 12.7892 21.2505 12.3616 21.2505V21.7463H13.1973C13.2073 21.7477 13.5443 21.7964 13.5444 22.3008C13.5444 22.8736 13.1513 22.8752 13.1343 22.875H10.7202C10.4274 22.8746 10.3803 21.7466 10.7847 21.7463H11.6343V21.2651H10.7847C10.3799 21.2651 10.3813 21.2429 10.1116 21.0967C9.6843 20.8552 9.95338 20.3796 9.56372 20.2625L6.63916 20.1013C6.64663 14.3418 4.69636 7.36725 9.50366 2.61035C9.87129 2.24434 11.1615 1.12518 11.769 1.125L11.7617 1.13232ZM14.197 15.4673L16.1416 16.2847V13.6582L14.197 11.7605V15.4673ZM7.1936 13.325V16.1104L9.34912 15.3933V11.7451L7.1936 13.325ZM10.4741 15.3018H13.072V11.6169H10.4741V15.3018Z" fill="currentColor"/>
</svg>
