<svg width="18" height="18" viewBox="0 0 18 18" fill="none" xmlns="http://www.w3.org/2000/svg">
  <path d="M17.8153 15.1239C16.7957 17.5683 14.4051 17.9967 13.6239 17.9967C13.3945 17.9967 9.82195 18.1861 4.68636 13.3147C0.553368 9.39431 0.0483692 5.17852 0.00436924 4.37752C-0.0384307 3.59732 0.184969 1.64013 2.87736 0.185929C3.21096 0.00572923 3.87236 -0.0740706 4.04316 0.0967291C4.11896 0.172529 6.37876 3.89112 6.43816 4.01432C6.49756 4.13732 6.52736 4.25852 6.52736 4.37732C6.52736 4.54712 6.40636 4.75952 6.16416 5.01432C5.92216 5.26912 5.65896 5.50272 5.37436 5.71492C5.08976 5.92732 4.82656 6.15232 4.58436 6.39012C4.34236 6.62772 4.22136 6.82332 4.22136 6.97612C4.23776 7.37272 4.56276 8.79331 7.03856 10.9687C9.51475 13.1447 10.7076 13.7577 10.8222 13.8001C10.9369 13.8425 11.0323 13.8635 11.1087 13.8635C11.2617 13.8635 11.4571 13.7427 11.6949 13.5007C11.9325 13.2585 12.7319 12.1629 12.9867 11.9207C13.2415 11.6789 13.4539 11.5579 13.6239 11.5579C13.7427 11.5579 13.8637 11.5875 13.9867 11.6469C14.1099 11.7063 17.8333 13.8851 17.9045 13.9579C18.0977 14.1559 17.9613 14.7739 17.8153 15.1239Z" fill="#898989"/>
</svg>
