<svg xmlns="http://www.w3.org/2000/svg" width="24" height="24" viewBox="0 0 24 24" fill="none">
  <path d="M20.8153 18.1239C19.7957 20.5683 17.4051 20.9967 16.6239 20.9967C16.3945 20.9967 12.822 21.1861 7.68636 16.3147C3.55337 12.3943 3.04837 8.17852 3.00437 7.37752C2.96157 6.59732 3.18497 4.64013 5.87736 3.18593C6.21096 3.00573 6.87236 2.92593 7.04316 3.09673C7.11896 3.17253 9.37876 6.89112 9.43816 7.01432C9.49756 7.13732 9.52736 7.25852 9.52736 7.37732C9.52736 7.54712 9.40636 7.75952 9.16416 8.01432C8.92216 8.26912 8.65896 8.50272 8.37436 8.71492C8.08976 8.92732 7.82656 9.15232 7.58436 9.39012C7.34236 9.62772 7.22136 9.82332 7.22136 9.97612C7.23776 10.3727 7.56276 11.7933 10.0386 13.9687C12.5148 16.1447 13.7076 16.7577 13.8222 16.8001C13.9369 16.8425 14.0323 16.8635 14.1087 16.8635C14.2617 16.8635 14.4571 16.7427 14.6949 16.5007C14.9325 16.2585 15.7319 15.1629 15.9867 14.9207C16.2415 14.6789 16.4539 14.5579 16.6239 14.5579C16.7427 14.5579 16.8637 14.5875 16.9867 14.6469C17.1099 14.7063 20.8333 16.8851 20.9045 16.9579C21.0977 17.1559 20.9613 17.7739 20.8153 18.1239Z" fill="#898989"/>
</svg>
