<svg width="24" height="24" viewBox="0 0 24 24" fill="none" xmlns="http://www.w3.org/2000/svg">
  <path d="M15.3125 12.6661C15.3124 11.113 14.0527 9.85395 12.4996 9.85395C10.9465 9.8541 9.68757 11.1131 9.68742 12.6661C9.68742 14.2193 10.9464 15.4789 12.4996 15.4791V17.1665L12.268 17.1607C9.96713 17.044 8.12222 15.1986 8.00574 12.8976L7.99997 12.6661C8.00012 10.1811 10.0146 8.16665 12.4996 8.1665L12.7311 8.17227C15.1087 8.29263 16.9998 10.2586 17 12.6661L16.9942 12.8976C16.8738 15.2754 14.9072 17.1665 12.4996 17.1665V15.4791C14.0528 15.4791 15.3125 14.2193 15.3125 12.6661Z" fill="currentColor"/>
</svg>
