<svg width="24" height="24" viewBox="0 0 24 24" fill="none" xmlns="http://www.w3.org/2000/svg">
  <path fill-rule="evenodd" clip-rule="evenodd" d="M19.4533 9.26925L12.2939 4.06763C12.1186 3.94031 11.8814 3.94031 11.7061 4.06763L4.54668 9.26925C4.37144 9.39658 4.29811 9.62226 4.36505 9.82827L7.0997 18.2447C7.16664 18.4507 7.35862 18.5902 7.57523 18.5902H16.4248C16.6414 18.5902 16.8334 18.4507 16.9003 18.2447L19.635 9.82827C19.7019 9.62226 19.6286 9.39658 19.4533 9.26925ZM13.1756 2.8541C12.4746 2.34481 11.5254 2.34481 10.8244 2.8541L3.66501 8.05573C2.96403 8.56502 2.67071 9.46775 2.93846 10.2918L5.67312 18.7082C5.94087 19.5322 6.70878 20.0902 7.57523 20.0902H16.4248C17.2912 20.0902 18.0591 19.5322 18.3269 18.7082L21.0615 10.2918C21.3293 9.46775 21.036 8.56502 20.335 8.05573L13.1756 2.8541Z" fill="#898989"/>
  <path d="M14 3.375C14 4.47957 13.1046 5.375 12 5.375C10.8954 5.375 10 4.47957 10 3.375C10 2.27043 10.8954 1.375 12 1.375C13.1046 1.375 14 2.27043 14 3.375Z" fill="#898989"/>
  <path d="M19.125 18.875C19.125 19.9796 18.2296 20.875 17.125 20.875C16.0204 20.875 15.125 19.9796 15.125 18.875C15.125 17.7704 16.0204 16.875 17.125 16.875C18.2296 16.875 19.125 17.7704 19.125 18.875Z" fill="#898989"/>
  <path d="M8.5 18.875C8.5 19.9796 7.60457 20.875 6.5 20.875C5.39543 20.875 4.5 19.9796 4.5 18.875C4.5 17.7704 5.39543 16.875 6.5 16.875C7.60457 16.875 8.5 17.7704 8.5 18.875Z" fill="#898989"/>
  <path d="M22.375 9.28125C22.375 10.3858 21.4796 11.2812 20.375 11.2812C19.2704 11.2812 18.375 10.3858 18.375 9.28125C18.375 8.17668 19.2704 7.28125 20.375 7.28125C21.4796 7.28125 22.375 8.17668 22.375 9.28125Z" fill="#898989"/>
  <path d="M5.875 9.28125C5.875 10.3858 4.97957 11.2812 3.875 11.2812C2.77043 11.2812 1.875 10.3858 1.875 9.28125C1.875 8.17668 2.77043 7.28125 3.875 7.28125C4.97957 7.28125 5.875 8.17668 5.875 9.28125Z" fill="#898989"/>
</svg>
