<svg width="16" height="17" viewBox="0 0 16 17" fill="none" xmlns="http://www.w3.org/2000/svg">
  <path fill-rule="evenodd" clip-rule="evenodd" d="M4.88889 16.5H11.1111L16 11.6111V5.38889L11.1111 0.5H4.88889L0 5.38889V11.6111L4.88889 16.5ZM10.4898 15L14.5 10.9898V6.01021L10.4898 2H5.51021L1.5 6.01021V10.9898L5.51021 15H10.4898Z" fill="#898989"/>
  <path d="M7 4H9L8.75 9.99995L7.25 10L7 4Z" fill="#898989"/>
  <path d="M8 13C8.55229 13 9 12.5523 9 12C9 11.4477 8.55229 11 8 11C7.44771 11 7 11.4477 7 12C7 12.5523 7.44771 13 8 13Z" fill="#898989"/>
</svg>
