<svg xmlns="http://www.w3.org/2000/svg" width="24" height="25" viewBox="0 0 24 25" fill="none">
  <path fill-rule="evenodd" clip-rule="evenodd" d="M8.88889 20.5H15.1111L20 15.6111V9.38889L15.1111 4.5H8.88889L4 9.38889V15.6111L8.88889 20.5ZM14.4898 19L18.5 14.9898V10.0102L14.4898 6H9.51021L5.5 10.0102V14.9898L9.51021 19H14.4898Z" fill="#898989"/>
  <path d="M11 8H13L12.75 13.9999L11.25 14L11 8Z" fill="#898989"/>
  <path d="M12 17C12.5523 17 13 16.5523 13 16C13 15.4477 12.5523 15 12 15C11.4477 15 11 15.4477 11 16C11 16.5523 11.4477 17 12 17Z" fill="#898989"/>
</svg>
