<svg width="24" height="24" viewBox="0 0 24 24" fill="none" xmlns="http://www.w3.org/2000/svg">
  <path d="M22 10.7785C22 10.804 21.8644 10.8475 21.7893 10.8515C21.1738 10.8824 20.5575 10.9033 19.9416 10.9327C18.7224 10.9921 17.5039 11.0694 16.284 11.1111C15.4042 11.1416 14.5229 11.1301 13.6424 11.1291C13.5885 11.1291 13.5392 11.1567 13.5 11.1891C13.4439 11.2358 13.4083 11.3031 13.3997 11.3757L13.3486 11.6612C13.3486 11.6612 13.3253 11.7561 13.3098 11.7885C13.1419 12.1462 12.9672 12.1049 12.9607 12.2868L12.933 13.9026C12.8751 14.5027 12.768 15.0984 12.6813 15.6956C12.5897 16.3288 12.4962 16.9616 12.4063 17.5947C12.3696 17.8515 12.3398 18.1092 12.3042 18.389H12.5454C13.3483 18.389 14.1512 18.3911 14.954 18.3868C15.1187 18.3861 15.2593 18.4199 15.3682 18.55C15.6487 18.8851 15.7867 19.2817 15.8529 19.7056C15.8597 19.7484 15.7943 19.8261 15.7633 19.8455C15.7508 19.8588 15.3578 19.9692 15.1532 19.972C14.2249 19.985 13.2962 19.9764 12.3675 19.9789C12.247 19.9792 12.1266 20.0012 12 20.0137C11.8731 20.0012 11.753 19.9792 11.6325 19.9789C10.7038 19.9764 9.77514 19.985 8.8468 19.972C8.64222 19.9692 8.24924 19.8588 8.23665 19.8455C8.20573 19.8261 8.1403 19.7484 8.14713 19.7056C8.21328 19.2817 8.35135 18.8851 8.63179 18.55C8.74037 18.4199 8.88132 18.3861 9.04599 18.3868C9.84885 18.3911 10.6517 18.389 11.4546 18.389H11.6958C11.6602 18.1092 11.6304 17.8515 11.5937 17.5947C11.5038 16.9616 11.41 16.3288 11.3183 15.6956C11.232 15.0984 11.1249 14.5027 11.067 13.9026L11.0393 12.2868C11.0328 12.1049 10.8581 12.1462 10.6898 11.7885C10.6747 11.7561 10.651 11.6612 10.651 11.6612L10.5999 11.3757C10.5917 11.3031 10.5561 11.2358 10.5 11.1891C10.4608 11.1567 10.4115 11.1291 10.3576 11.1291C9.47708 11.1301 8.59584 11.1416 7.71603 11.1111C6.4961 11.0694 5.27761 10.9921 4.05803 10.9327C3.44249 10.9033 2.82624 10.8824 2.2107 10.8515C2.13555 10.8475 2 10.804 2 10.7785C1.99965 10.6886 2.02014 10.5732 2.0791 10.5121C2.53249 10.0447 2.98911 9.57978 3.46299 9.13323C3.5802 9.02321 3.75746 8.94339 3.91781 8.91858C4.83321 8.7762 5.7522 8.65611 6.6694 8.52596C7.27308 8.44003 7.87639 8.35122 8.47899 8.25774C8.52285 8.25127 8.58937 8.20021 8.5944 8.16318C8.63754 7.83995 8.67961 7.5142 8.71664 7.17048L7.63046 7.17192V7.08167L8.57031 7.07125C8.75152 7.06621 8.77741 7.01623 8.82882 6.86918C8.84033 6.83538 8.86981 6.74766 8.88887 6.71781C8.97695 6.57795 9.15025 6.60312 9.21857 6.75916C9.23583 6.79979 9.28149 6.89363 9.28976 6.91844C9.31025 6.97884 9.34513 7.01695 9.37749 7.04032C9.41128 7.06477 9.45299 7.07628 9.4947 7.07664L10.386 7.08167H10.4953L10.4932 7.17012H9.38719C9.41811 7.33767 9.45047 7.48616 9.47241 7.63645C9.49542 7.79573 9.51339 7.95572 9.52382 8.11608C9.52921 8.19985 9.54252 8.25127 9.64319 8.25055C10.0977 8.24767 10.5521 8.24947 11.0371 8.24947V8.02943C11.0371 7.27439 11.054 6.51899 11.0317 5.76466C11.0141 5.18004 11.1313 4.61556 11.2187 4.04568C11.2863 3.60416 11.3708 3.16588 11.4553 2.72724C11.5092 2.44679 11.5308 2.13866 11.8493 2.03008C11.8932 2.01534 11.9407 2.01138 12 1.99988C12.0593 2.01138 12.1068 2.01534 12.1503 2.03008C12.4692 2.13866 12.4908 2.44679 12.5447 2.72724C12.6292 3.16588 12.7137 3.60416 12.7813 4.04568C12.8687 4.61556 12.9855 5.18004 12.9683 5.76466C12.946 6.51899 12.9625 7.27439 12.9625 8.02943V8.24947C13.4479 8.24947 13.9023 8.24767 14.3568 8.25055C14.4575 8.25127 14.4708 8.19985 14.4762 8.11608C14.4866 7.95572 14.5046 7.79573 14.5276 7.63645C14.5492 7.48616 14.5815 7.33767 14.6128 7.17012H13.5068L13.5047 7.08167H13.6136L14.5049 7.07664C14.547 7.07628 14.5887 7.06477 14.6225 7.04032C14.6549 7.01695 14.6897 6.97884 14.7102 6.91844C14.7185 6.89363 14.7642 6.79979 14.7814 6.75916C14.8497 6.60312 15.023 6.57795 15.1111 6.71781C15.1298 6.74766 15.1597 6.83538 15.1712 6.86918C15.2222 7.01623 15.2485 7.06621 15.4297 7.07125L16.3695 7.08167V7.17192L15.2834 7.17048C15.3204 7.5142 15.3625 7.83995 15.4056 8.16318C15.4106 8.20021 15.4771 8.25127 15.521 8.25774C16.1236 8.35122 16.7266 8.44003 17.3302 8.52596C18.2478 8.65611 19.1668 8.7762 20.0822 8.91858C20.2425 8.94339 20.4198 9.02321 20.5366 9.13323C21.0105 9.57978 21.4675 10.0447 21.9209 10.5121C21.9799 10.5732 22.0004 10.6886 22 10.7785Z" fill="currentColor"/>
</svg>
