<svg width="24" height="24" viewBox="0 0 24 24" fill="none" xmlns="http://www.w3.org/2000/svg">
  <path fill-rule="evenodd" clip-rule="evenodd" d="M8.90784 9.50645L6.98142 13.3413H3.11059C3.04757 12.9002 3.00256 12.4591 3.00256 12C3.00256 7.03092 7.03543 2.99805 12.0045 2.99805C16.9736 2.99805 21.0065 7.03092 20.9974 12.009C20.9974 12.4681 20.9524 12.9092 20.8894 13.3503H17.0276L13.9759 6.0227L11.2844 13.9804L8.90784 9.50645ZM14.1647 11.1178L15.839 15.1417H20.43C19.1517 18.5624 15.866 21.0019 12.0042 21.0019C8.14236 21.0019 4.85665 18.5624 3.57837 15.1417H8.09735L8.96153 13.4223L11.6621 18.5084L14.1647 11.1178Z" fill="currentColor"/>
</svg>
