<svg width="24" height="24" viewBox="0 0 24 24" fill="none" xmlns="http://www.w3.org/2000/svg">
  <path d="M21 11.2339C20.8396 8.75406 19.7673 6.44558 17.9833 4.73186C16.2294 3.05847 13.9544 2.09073 11.549 2V3.5121C13.5635 3.60283 15.4677 4.41936 16.931 5.83066C18.4143 7.26212 19.3263 9.17744 19.4866 11.2339H21Z" fill="currentColor"/>
  <path d="M9.83518 10.9213C10.4265 10.3871 11.3285 10.3871 11.8998 10.9617H11.9098C12.4911 11.5363 12.4911 12.4536 11.9499 13.0484L16.8508 18.0081C15.3875 19.0161 12.3307 20.6189 8.4922 19.0464V22H3L5.2951 16.9193C2.49889 13.8447 2.43875 8.29028 4.9343 5.96164L9.83518 10.9213Z" fill="currentColor"/>
  <path d="M14.0546 8.86487C14.716 9.51004 15.147 10.3266 15.2873 11.2338H13.7539C13.6336 10.75 13.3831 10.3165 13.0123 9.96367C12.6114 9.57052 12.1103 9.32859 11.549 9.24794V7.72576C12.4811 7.8064 13.3731 8.20963 14.0546 8.86487Z" fill="currentColor"/>
  <path d="M16.0089 6.79848C17.2292 7.97557 17.9803 9.54423 18.1427 11.2239H16.6403C16.49 9.95374 15.8987 8.7743 14.9766 7.8872C14.0446 6.99002 12.8319 6.45574 11.549 6.36501V4.85291C13.2127 4.94364 14.7962 5.62912 16.0089 6.79848Z" fill="currentColor"/>
</svg>
