<svg width="24" height="24" viewBox="0 0 24 24" fill="none" xmlns="http://www.w3.org/2000/svg">
  <path fill-rule="evenodd" clip-rule="evenodd" d="M12 21C16.9706 21 21 16.9706 21 12C21 7.02944 16.9706 3 12 3C7.02944 3 3 7.02944 3 12C3 16.9706 7.02944 21 12 21ZM17.8072 16.7466C18.8652 15.4537 19.5 13.801 19.5 12C19.5 7.85786 16.1421 4.5 12 4.5C7.85786 4.5 4.5 7.85786 4.5 12C4.5 16.1421 7.85786 19.5 12 19.5C13.801 19.5 15.4536 18.8652 16.7465 17.8072L15.3226 16.3833C14.3996 17.0841 13.2483 17.5 12 17.5C8.96243 17.5 6.5 15.0376 6.5 12C6.5 8.96243 8.96243 6.5 12 6.5C15.0376 6.5 17.5 8.96243 17.5 12C17.5 13.2484 17.0841 14.3996 16.3833 15.3227L17.8072 16.7466ZM14.3381 15.3988C13.6736 15.8568 12.8681 16.125 12 16.125C9.72183 16.125 7.875 14.2782 7.875 12C7.875 9.72183 9.72183 7.875 12 7.875C14.2782 7.875 16.125 9.72183 16.125 12C16.125 12.8681 15.8568 13.6736 15.3988 14.3382L13.8417 12.7811C13.9436 12.5411 14 12.2772 14 12C14 10.8954 13.1046 10 12 10C10.8954 10 10 10.8954 10 12C10 13.1046 10.8954 14 12 14C12.2771 14 12.5411 13.9436 12.781 13.8418L14.3381 15.3988Z" fill="#898989"/>
</svg>
