<svg width="24" height="24" viewBox="0 0 24 24" fill="none" xmlns="http://www.w3.org/2000/svg">
  <path fill-rule="evenodd" clip-rule="evenodd" d="M5.5 4H18.5C20 4 20 5.5 20 5.5V18.5C20 20 18.5 20 18.5 20H5.5C4 20 4 18.5 4 18.5V5.5C4 5.5 4 4 5.5 4ZM18.5 18.5V5.5H5.5V18.5H18.5Z" fill="#898989"/>
  <path d="M21.125 5C21.125 6.10457 20.2296 7 19.125 7C18.0204 7 17.125 6.10457 17.125 5C17.125 3.89543 18.0204 3 19.125 3C20.2296 3 21.125 3.89543 21.125 5Z" fill="#898989"/>
  <path d="M21.125 19C21.125 20.1046 20.2296 21 19.125 21C18.0204 21 17.125 20.1046 17.125 19C17.125 17.8954 18.0204 17 19.125 17C20.2296 17 21.125 17.8954 21.125 19Z" fill="#898989"/>
  <path d="M6.875 5C6.875 6.10457 5.97957 7 4.875 7C3.77043 7 2.875 6.10457 2.875 5C2.875 3.89543 3.77043 3 4.875 3C5.97957 3 6.875 3.89543 6.875 5Z" fill="#898989"/>
  <path d="M6.875 19C6.875 20.1046 5.97957 21 4.875 21C3.77043 21 2.875 20.1046 2.875 19C2.875 17.8954 3.77043 17 4.875 17C5.97957 17 6.875 17.8954 6.875 19Z" fill="#898989"/>
</svg>
