<svg width="24" height="24" viewBox="0 0 24 24" fill="none" xmlns="http://www.w3.org/2000/svg">
  <path d="M20.4856 11.5013C20.3271 8.76139 18.8708 6.36956 16.7222 4.93135V4.91666L16.6971 4.91457C15.3514 4.02073 13.7365 3.5 12 3.5C7.30558 3.5 3.5 7.30558 3.5 12C3.5 16.6944 7.30558 20.5 12 20.5C13.011 20.5 13.9807 20.3235 14.8801 19.9997C14.5363 19.655 14.1672 19.2666 13.8036 18.8517C13.2277 19.0028 12.6233 19.0833 12 19.0833C8.08798 19.0833 4.91666 15.912 4.91666 12C4.91666 10.7726 5.22886 9.61805 5.77819 8.61153L11.5044 14.3378C11.5339 13.6265 11.7088 12.9533 12 12.3476V11.0556H12.8911C13.2966 10.6284 13.7756 10.2731 14.3076 10.0104C14.3611 9.79839 14.3611 9.63889 14.3611 9.63889V8.22222H15.3056C16.7222 8.22222 16.7222 6.80556 16.7222 6.80556V6.72031C17.7104 7.60478 18.4488 8.76261 18.8186 10.0749C19.4731 10.4217 20.0421 10.9107 20.4856 11.5013Z" fill="#898989"/>
  <path d="M17.5 14.7106C17.5 15.2919 17.0523 15.7632 16.5 15.7632C15.9477 15.7632 15.5 15.2919 15.5 14.7106C15.5 14.1292 15.9477 13.658 16.5 13.658C17.0523 13.658 17.5 14.1292 17.5 14.7106Z" fill="#898989"/>
  <path fill-rule="evenodd" clip-rule="evenodd" d="M16.4822 18.7494C16.4822 18.7494 18.9856 16.5 18.9856 14.5C18.9856 13.1193 17.8663 12 16.4856 12C15.1049 12 13.9856 13.1193 13.9856 14.5C13.9856 16.5 16.4822 18.7494 16.4822 18.7494ZM16.4856 20.5C16.4856 20.5 20.4856 17.5 20.4856 14.5C20.4856 12.2909 18.6947 10.5 16.4856 10.5C14.2765 10.5 12.4856 12.2909 12.4856 14.5C12.4856 17.5 16.4856 20.5 16.4856 20.5Z" fill="#898989"/>
</svg>
