<svg width="24" height="24" viewBox="0 0 24 24" fill="none" xmlns="http://www.w3.org/2000/svg">
  <path d="M14 6C14 7.10457 13.1046 8 12 8C10.8954 8 10 7.10457 10 6C10 4.89543 10.8954 4 12 4C13.1046 4 14 4.89543 14 6Z" fill="currentColor"/>
  <path fill-rule="evenodd" clip-rule="evenodd" d="M3.90775 10.7485C2.69742 11.3311 2.69742 13.0608 3.90775 13.6435L9.99995 16.2513C9.99221 16.2436 11.5 17 12 17C12.5 17 13.3371 16.5692 14 16.2513L20.133 13.6231C21.289 13.0254 21.289 11.3665 20.133 10.7688C17.8159 9.45223 13 7 13 7V12H11V7L3.90775 10.7485ZM7 12.5C7 12.5 8 12.5 8 12C8 11.5 7 11.5 7 11.5C7 11.5 6 11.5 6 12C6 12.5 7 12.5 7 12.5Z" fill="currentColor"/>
  <path d="M19.7627 15.1216L12.004 18.5L4.2446 15.1216C3.00391 14.5688 2.56856 16.0914 3.50398 16.5689L11.6507 19.9178C11.7611 19.972 11.88 20 12 20C12.12 20 12.2389 19.972 12.3493 19.9178L20.5039 16.5688C21.5199 16.0503 21.0039 14.5688 19.7627 15.1216Z" fill="currentColor"/>
</svg>
