<svg width="24" height="24" viewBox="0 0 24 24" fill="none" xmlns="http://www.w3.org/2000/svg">
  <path fill-rule="evenodd" clip-rule="evenodd" d="M6.58188 8.00537L7.64254 9.06603L4.63733 12.0712L7.64254 15.0764L6.58188 16.1371C6.58188 16.1371 3.93272 13.4879 3.39989 12.9551C2.86707 12.4223 2.86633 11.7209 3.39989 11.1873C3.93346 10.6537 6.58188 8.00537 6.58188 8.00537Z" fill="#898989"/>
  <path fill-rule="evenodd" clip-rule="evenodd" d="M17.4161 16.1317L16.3555 15.0711L19.3607 12.0659L16.3555 9.06066L17.4161 8C17.4161 8 20.0653 10.6492 20.5981 11.182C21.1309 11.7148 21.1317 12.4161 20.5981 12.9497C20.0646 13.4833 17.4161 16.1317 17.4161 16.1317Z" fill="#898989"/>
  <path fill-rule="evenodd" clip-rule="evenodd" d="M11.9973 14.0678C13.1019 14.0678 13.9973 13.1723 13.9973 12.0678C13.9973 10.9632 13.1019 10.0678 11.9973 10.0678C10.8928 10.0678 9.99732 10.9632 9.99732 12.0678C9.99732 13.1723 10.8928 14.0678 11.9973 14.0678ZM11.9973 15.5678C13.9303 15.5678 15.4973 14.0008 15.4973 12.0678C15.4973 10.1348 13.9303 8.56777 11.9973 8.56777C10.0643 8.56777 8.49732 10.1348 8.49732 12.0678C8.49732 14.0008 10.0643 15.5678 11.9973 15.5678Z" fill="#898989"/>
</svg>
