<svg width="24" height="24" viewBox="0 0 24 24" fill="none" xmlns="http://www.w3.org/2000/svg">
  <path fill-rule="evenodd" clip-rule="evenodd" d="M3 19.5L3.00005 19.5125L3 19.7591C3 20.421 3.5464 21 4.24183 21L4.48782 21L4.5 21L10.125 20.9975V21H13.875V19.5H11.9998L11.9991 12L4.5 12.0008V10.125H3V13.875H3.00239L3 19.5ZM11 18.05L8.2 13.5L7.08089 15.3186L7.3763 15.9247C7.55777 16.2971 7.40304 16.746 7.03069 16.9275C6.65834 17.1089 6.20939 16.9542 6.02792 16.5819L5.46141 15.4195L4 18.05H11Z" fill="#898989"/>
  <path d="M3 6.375H4.5V4.5L6.375 4.5V3H4.5C3.67157 3 3 3.67157 3 4.5V6.375Z" fill="#898989"/>
  <path d="M10.125 3V4.5H13.875V3H10.125Z" fill="#898989"/>
  <path d="M17.625 3V4.5H19.5V6.375H21V4.5C21 3.67157 20.3284 3 19.5 3H17.625Z" fill="#898989"/>
  <path d="M21 10.125H19.5V13.875H21V10.125Z" fill="#898989"/>
  <path d="M21 17.625H19.5V19.5H17.625V21H19.5C20.3284 21 21 20.3284 21 19.5V17.625Z" fill="#898989"/>
</svg>
