<svg width="24" height="24" viewBox="0 0 24 24" fill="none" xmlns="http://www.w3.org/2000/svg">
  <path d="M2 17.9688V15.9688H4V17.9688H2ZM6 17.9688V15.9688H12C12 16.3281 12 16.5469 12 16.9688C12 17.3906 12 17.6562 12 17.9688H6ZM2 13.9688V11.9688H4V13.9688H2ZM6 13.9688V11.9688H12C12 12.2812 12 12.6406 12 12.9531C12 13.3438 12 13.5781 12 13.9688H6ZM2 9.96875V7.96875H4V9.96875H2ZM6 9.96875V7.96875H21.75V9.96875H6ZM2 5.96875V3.96875H4V5.96875H2ZM6 5.96875V3.96875H21.75V5.96875H6Z" fill="#898989"/>
  <path d="M21.7794 14.8077L14.397 12.05C14.3444 12.0302 14.2872 12.026 14.2322 12.0378C14.1772 12.0496 14.1268 12.077 14.0869 12.1167C14.047 12.1564 14.0193 12.2068 14.007 12.2618C13.9948 12.3168 13.9986 12.3742 14.0179 12.4271L16.7833 19.84C16.8048 19.8974 16.8436 19.9467 16.8943 19.981C16.945 20.0152 17.0052 20.0328 17.0663 20.0311C17.1274 20.0295 17.1865 20.0088 17.2354 19.9719C17.2842 19.935 17.3204 19.8838 17.3388 19.8253L18.1293 17.2473L20.8095 19.8695C20.8646 19.9244 20.9391 19.9552 21.0167 19.9552C21.0944 19.9552 21.1689 19.9244 21.2239 19.8695L21.9145 19.1771C21.9693 19.1219 22 19.0472 22 18.9694C22 18.8916 21.9693 18.8169 21.9145 18.7617L19.2431 16.1513L21.7794 15.3646C21.8371 15.3445 21.8872 15.307 21.9226 15.2571C21.9581 15.2072 21.9771 15.1474 21.9771 15.0862C21.9771 15.0249 21.9581 14.9652 21.9226 14.9153C21.8872 14.8654 21.8371 14.8278 21.7794 14.8077Z" fill="#898989"/>
</svg>
