<svg width="24" height="24" viewBox="0 0 24 24" fill="none" xmlns="http://www.w3.org/2000/svg">
  <path fill-rule="evenodd" clip-rule="evenodd" d="M13.3113 13.2581L8.02426 3C5.13904 4.3648 3.80063 9.76296 6.25778 12.8439C8.02379 15.0583 9.9987 15.7414 11.6577 15.8288C11.5276 16.2871 11.458 16.7709 11.458 17.271C11.458 17.9244 11.5769 18.5501 11.7942 19.1275H4.49999C3 19.1275 3 20.209 3 20.6275H12.6647C13.6315 21.7969 15.0932 22.542 16.729 22.542C19.6401 22.542 22 20.1821 22 17.271C22 14.3599 19.6401 12 16.729 12C15.425 12 14.2315 12.4735 13.3113 13.2581ZM17.9565 14.2031H15.5021V16.0435H13.6611V18.4979H15.5021V20.3391H17.9565V18.4979H19.7971V16.0435L17.9565 16.0435V14.2031Z" fill="#898989"/>
  <path d="M12.2592 7.13389L13.9235 6.27946L15.2093 8.77378L13.545 9.62821L12.2592 7.13389Z" fill="#898989"/>
  <path d="M4.49999 18.6275L6 13.6275C6.83333 15.1275 9 16.1275 9 16.1275V18.6275H4.49999Z" fill="#898989"/>
</svg>
