<svg width="18" height="18" viewBox="0 0 18 18" fill="none" xmlns="http://www.w3.org/2000/svg">
  <path fill-rule="evenodd" clip-rule="evenodd" d="M15.2334 7.1777L17.0945 7.73326C17.1581 7.76039 17.2119 7.80634 17.2486 7.86493C17.2854 7.92352 17.3033 7.99195 17.3 8.06103V9.95548C17.2997 10.0276 17.2763 10.0978 17.2334 10.1557C17.1904 10.2137 17.1301 10.2564 17.0611 10.2777L15.1889 10.8333C15.0588 11.2749 14.8819 11.7014 14.6611 12.1055L15.5834 13.8277C15.6175 13.8921 15.6301 13.9658 15.6191 14.0378C15.608 14.1099 15.5741 14.1765 15.5222 14.2277L14.1945 15.5555C14.1432 15.6073 14.0766 15.6413 14.0046 15.6523C13.9325 15.6633 13.8588 15.6508 13.7945 15.6166L12.0667 14.6944C11.6642 14.9128 11.2396 15.0879 10.8 15.2166L10.2445 17.0944C10.2232 17.1633 10.1805 17.2236 10.1225 17.2666C10.0645 17.3096 9.99439 17.3329 9.92225 17.3333H8.04447C7.97233 17.3329 7.90217 17.3096 7.84422 17.2666C7.78626 17.2236 7.74353 17.1633 7.72225 17.0944L7.16669 15.2221C6.72337 15.0941 6.295 14.919 5.88891 14.6999L4.17225 15.6166C4.10787 15.6508 4.03418 15.6633 3.96212 15.6523C3.89007 15.6413 3.82348 15.6073 3.77225 15.5555L2.44447 14.2277C2.39262 14.1765 2.35867 14.1099 2.34766 14.0378C2.33665 13.9658 2.34917 13.8921 2.38336 13.8277L3.29447 12.0833C3.06262 11.6733 2.87633 11.2393 2.73891 10.7888L0.888913 10.2333C0.819982 10.212 0.759642 10.1692 0.716676 10.1113C0.67371 10.0533 0.65036 9.98318 0.650024 9.91103V8.03326C0.65036 7.96111 0.67371 7.89096 0.716676 7.83301C0.759642 7.77505 0.819982 7.73232 0.888913 7.71103L2.7278 7.15548C2.86373 6.6974 3.05006 6.25581 3.28336 5.83881L2.38336 4.17214C2.34917 4.10777 2.33665 4.03408 2.34766 3.96202C2.35867 3.88997 2.39262 3.82338 2.44447 3.77214L3.79447 2.45548C3.8457 2.40363 3.91229 2.36968 3.98435 2.35867C4.0564 2.34766 4.13009 2.36018 4.19447 2.39437L5.86114 3.29437C6.27989 3.06069 6.72337 2.87435 7.18336 2.73881L7.73891 0.905478C7.7602 0.836546 7.80293 0.776207 7.86088 0.733241C7.91884 0.690275 7.98899 0.666925 8.06113 0.666589H9.93891C10.0106 0.664982 10.081 0.686169 10.1399 0.727101C10.1988 0.768033 10.2432 0.826598 10.2667 0.894367L10.8222 2.73326C11.2784 2.86953 11.7181 3.05584 12.1334 3.28881L13.8278 2.38326C13.8922 2.34907 13.9659 2.33655 14.0379 2.34756C14.11 2.35857 14.1766 2.39252 14.2278 2.44437L15.5556 3.7777C15.6074 3.82893 15.6414 3.89552 15.6524 3.96758C15.6634 4.03964 15.6509 4.11332 15.6167 4.1777L14.7056 5.88326C14.9277 6.29442 15.1047 6.72843 15.2334 7.1777ZM9 14C11.7614 14 14 11.7614 14 9C14 6.23858 11.7614 4 9 4C6.23858 4 4 6.23858 4 9C4 11.7614 6.23858 14 9 14Z" fill="#898989"/>
</svg>
