<svg xmlns="http://www.w3.org/2000/svg" width="24" height="24" viewBox="0 0 24 24" fill="none">
  <path fill-rule="evenodd" clip-rule="evenodd" d="M18.2334 10.1777L20.0945 10.7333C20.1581 10.7604 20.2119 10.8063 20.2486 10.8649C20.2854 10.9235 20.3033 10.992 20.3 11.061V12.9555C20.2997 13.0276 20.2763 13.0978 20.2334 13.1557C20.1904 13.2137 20.1301 13.2564 20.0611 13.2777L18.1889 13.8333C18.0588 14.2749 17.8819 14.7014 17.6611 15.1055L18.5834 16.8277C18.6175 16.8921 18.6301 16.9658 18.6191 17.0378C18.608 17.1099 18.5741 17.1765 18.5222 17.2277L17.1945 18.5555C17.1432 18.6073 17.0766 18.6413 17.0046 18.6523C16.9325 18.6633 16.8588 18.6508 16.7945 18.6166L15.0667 17.6944C14.6642 17.9128 14.2396 18.0879 13.8 18.2166L13.2445 20.0944C13.2232 20.1633 13.1805 20.2236 13.1225 20.2666C13.0645 20.3096 12.9944 20.3329 12.9222 20.3333H11.0445C10.9723 20.3329 10.9022 20.3096 10.8442 20.2666C10.7863 20.2236 10.7435 20.1633 10.7222 20.0944L10.1667 18.2221C9.72337 18.0941 9.295 17.919 8.88891 17.6999L7.17225 18.6166C7.10787 18.6508 7.03418 18.6633 6.96212 18.6523C6.89007 18.6413 6.82348 18.6073 6.77225 18.5555L5.44447 17.2277C5.39262 17.1765 5.35867 17.1099 5.34766 17.0378C5.33665 16.9658 5.34917 16.8921 5.38336 16.8277L6.29447 15.0833C6.06262 14.6733 5.87633 14.2393 5.73891 13.7888L3.88891 13.2333C3.81998 13.212 3.75964 13.1692 3.71668 13.1113C3.67371 13.0533 3.65036 12.9832 3.65002 12.911V11.0333C3.65036 10.9611 3.67371 10.891 3.71668 10.833C3.75964 10.7751 3.81998 10.7323 3.88891 10.711L5.7278 10.1555C5.86373 9.6974 6.05006 9.25581 6.28336 8.83881L5.38336 7.17214C5.34917 7.10777 5.33665 7.03408 5.34766 6.96202C5.35867 6.88997 5.39262 6.82338 5.44447 6.77214L6.79447 5.45548C6.8457 5.40363 6.91229 5.36968 6.98435 5.35867C7.0564 5.34766 7.13009 5.36018 7.19447 5.39437L8.86114 6.29437C9.27989 6.06069 9.72337 5.87435 10.1834 5.73881L10.7389 3.90548C10.7602 3.83655 10.8029 3.77621 10.8609 3.73324C10.9188 3.69027 10.989 3.66692 11.0611 3.66659H12.9389C13.0106 3.66498 13.081 3.68617 13.1399 3.7271C13.1988 3.76803 13.2432 3.8266 13.2667 3.89437L13.8222 5.73326C14.2784 5.86953 14.7181 6.05584 15.1334 6.28881L16.8278 5.38326C16.8922 5.34907 16.9659 5.33655 17.0379 5.34756C17.11 5.35857 17.1766 5.39252 17.2278 5.44437L18.5556 6.7777C18.6074 6.82893 18.6414 6.89552 18.6524 6.96758C18.6634 7.03964 18.6509 7.11332 18.6167 7.1777L17.7056 8.88326C17.9277 9.29442 18.1047 9.72843 18.2334 10.1777ZM12 17C14.7614 17 17 14.7614 17 12C17 9.23858 14.7614 7 12 7C9.23858 7 7 9.23858 7 12C7 14.7614 9.23858 17 12 17Z" fill="#898989"/>
</svg>
