<svg width="24" height="24" viewBox="0 0 24 24" fill="none" xmlns="http://www.w3.org/2000/svg">
  <path fill-rule="evenodd" clip-rule="evenodd" d="M17.75 17.0622C19.1429 15.6225 20 13.6614 20 11.5C20 7.08172 16.4183 3.5 12 3.5C7.58172 3.5 4 7.08172 4 11.5C4 13.6614 4.85712 15.6225 6.25 17.0622V20.25H17.75V17.0622ZM17.1238 15.5C17.1238 15.5 16.9418 15.7457 16.25 16.5009V18.75H14.5V17H13V18.75H11V17H9.5V18.75H7.75V16.5009C7.02344 15.6992 6.87616 15.5 6.87616 15.5C6.01389 14.397 5.5 13.0085 5.5 11.5C5.5 7.91015 8.41015 5 12 5C15.5899 5 18.5 7.91015 18.5 11.5C18.5 13.0085 17.9861 14.397 17.1238 15.5Z" fill="currentColor"/>
  <path d="M12 12L13.75 15H10.25L12 12Z" fill="currentColor"/>
  <path d="M10 12C10 12.8284 9.32843 13.5 8.5 13.5C7.67157 13.5 7 12.8284 7 12C7 11.1716 7.67157 10.5 8.5 10.5C9.32843 10.5 10 11.1716 10 12Z" fill="currentColor"/>
  <path d="M17 12C17 12.8284 16.3284 13.5 15.5 13.5C14.6716 13.5 14 12.8284 14 12C14 11.1716 14.6716 10.5 15.5 10.5C16.3284 10.5 17 11.1716 17 12Z" fill="currentColor"/>
</svg>
