<svg width="19" height="17" viewBox="0 0 19 17" fill="none" xmlns="http://www.w3.org/2000/svg">
  <path d="M0.542327 5.9542L8.64922 9.9466C8.75967 10.0008 8.87848 10.0288 8.99852 10.0288C9.11857 10.0288 9.23738 10.0008 9.34783 9.9466L17.4577 5.9542C17.6186 5.87512 17.7558 5.74323 17.8522 5.57492C17.9486 5.40661 18 5.2093 18 5.00754C18 4.80579 17.9486 4.60848 17.8522 4.44017C17.7558 4.27186 17.6186 4.13996 17.4577 4.06089L9.3508 0.0822076C9.24035 0.0279613 9.12154 0 9.0015 0C8.88145 0 8.76264 0.0279613 8.65219 0.0822076L0.542327 4.06089C0.381447 4.13996 0.244265 4.27186 0.147842 4.44017C0.0514196 4.60848 1.14385e-05 4.80579 1.14385e-05 5.00754C1.14385e-05 5.2093 0.0514196 5.40661 0.147842 5.57492C0.244265 5.74323 0.381447 5.87512 0.542327 5.9542Z" fill="#898989"/>
  <path d="M16.7588 8.05275L8.9997 11.8737L1.24063 8.05275C-5.48363e-05 7.49997 -0.435404 9.02254 0.500018 9.50001L8.65071 13.4178C8.76116 13.4721 8.87997 13.5 9.00002 13.5C9.12006 13.5 9.23887 13.4721 9.34932 13.4178L17.4999 9.49999C18.5159 8.98141 17.9999 7.49996 16.7588 8.05275Z" fill="#898989"/>
  <path d="M16.7954 11.2725L9.03636 15.0935L1.27729 11.2725C0.036605 10.7198 -0.398744 12.2423 0.536677 12.7198L8.68737 16.6376C8.79782 16.6919 8.91663 16.7198 9.03668 16.7198C9.15672 16.7198 9.27553 16.6919 9.38598 16.6376L17.5366 12.7198C18.5526 12.2012 18.0366 10.7198 16.7954 11.2725Z" fill="#898989"/>
</svg>
