<svg width="24" height="24" viewBox="0 0 24 24" fill="none" xmlns="http://www.w3.org/2000/svg">
  <path d="M21 12.8889V17.3333C21 18.8444 16.7438 20 11.867 20C10.6256 20 9.38424 19.9111 8.3202 19.7333V17.3333L4.7734 16.4444V18.9333C3.62069 18.4889 3 17.9556 3 17.3333V11.1111C3 10.2222 4.7734 9.33333 6.5468 9.33333C11.867 9.33333 13.6404 14.2222 18.0739 14.2222C19.8473 14.2222 21 12.8889 21 12.8889ZM5.6601 8L9.2069 8.88889V6.22222L5.6601 5.33333V8ZM17.1872 6.66667L20.734 7.55556V4.88889L17.1872 4V6.66667ZM21 10.4889C21 9.6 20.2906 8 17.8079 8C15.3251 8 13.1084 10.4 13.0197 10.5778C14.6158 11.7333 15.8571 12.8889 18.0739 12.8889C21 12.8889 21 10.4889 21 10.4889Z" fill="currentColor"/>
</svg>
