<svg width="24" height="24" viewBox="0 0 24 24" fill="none" xmlns="http://www.w3.org/2000/svg">
  <path d="M8.99637 15.9103C10.4107 17.3248 11.8196 15.9158 11.8196 15.9158L17.8908 9.84434L16.6589 8.61247L10.4275 14.8439L7.41675 11.8331L6.16769 13.0819C6.61364 13.5212 7.05545 13.9645 7.67042 14.5816C8.03794 14.9504 8.46731 15.3812 8.99637 15.9103Z" fill="#898989"/>
  <path fill-rule="evenodd" clip-rule="evenodd" d="M21 12.5C21 17.4706 16.9706 21.5 12 21.5C7.02944 21.5 3 17.4706 3 12.5C3 7.52944 7.02944 3.5 12 3.5C16.9706 3.5 21 7.52944 21 12.5ZM19.5 12.5C19.5 16.6421 16.1421 20 12 20C7.85786 20 4.5 16.6421 4.5 12.5C4.5 8.35786 7.85786 5 12 5C16.1421 5 19.5 8.35786 19.5 12.5Z" fill="#898989"/>
</svg>
