<svg width="24" height="24" viewBox="0 0 24 24" fill="none" xmlns="http://www.w3.org/2000/svg">
  <path fill-rule="evenodd" clip-rule="evenodd" d="M19.9653 12.75C19.6102 16.5697 16.5697 19.6102 12.75 19.9653V22H11.25V19.9653C7.43032 19.6102 4.38984 16.5697 4.03469 12.75H2V11.25H4.03469C4.38984 7.43032 7.43032 4.38984 11.25 4.03469V2H12.75V4.03469C16.5697 4.38984 19.6102 7.43032 19.9653 11.25H22V12.75H19.9653ZM11.25 5.5428V7.5H12.75V5.5428C15.7405 5.88638 18.1136 8.2595 18.4572 11.25H16.5V12.75H18.4572C18.1136 15.7405 15.7405 18.1136 12.75 18.4572V16.5H11.25V18.4572C8.2595 18.1136 5.88638 15.7405 5.5428 12.75H7.5V11.25H5.5428C5.88638 8.2595 8.2595 5.88638 11.25 5.5428Z" fill="currentColor"/>
</svg>
