<svg width="24" height="24" viewBox="0 0 24 24" fill="none" xmlns="http://www.w3.org/2000/svg">
  <path d="M18.7229 9.69849L12.5646 15.9106C12.5646 15.9106 12.5288 15.9464 12.463 16.0009L20.6845 15.9999V17.9999L3.30176 18.002V16.002L9.82042 16.0012C9.79092 15.9741 9.76141 15.9458 9.7319 15.9163C9.67695 15.8613 9.64068 15.8262 9.60759 15.7942C9.54943 15.7379 9.50113 15.6911 9.37859 15.5628L8.67185 14.8557C8.66153 14.846 8.31848 14.5022 8.31848 14.5022L3.01794 9.19887L4.43142 7.78465C5.19582 8.54944 6.13768 9.48891 7.07982 10.4287C8.02515 11.3716 8.97076 12.3148 9.73768 13.0821C9.77493 13.1032 11.1512 14.4963 11.1512 14.4963L17.2237 8.19849H14.3286V6.19849H20.7219V12.6985L18.7229 12.6985V9.69849Z" fill="currentColor"/>
</svg>
