<svg width="24" height="24" viewBox="0 0 24 24" fill="none" xmlns="http://www.w3.org/2000/svg">
  <path fill-rule="evenodd" clip-rule="evenodd" d="M6.62598 13.5C7.4544 13.5 8.12598 12.8284 8.12598 12C8.12598 11.1716 7.4544 10.5 6.62598 10.5C5.79755 10.5 5.12598 11.1716 5.12598 12C5.12598 12.8284 5.79755 13.5 6.62598 13.5ZM12.626 19.5C13.4544 19.5 14.126 18.8284 14.126 18C14.126 17.1716 13.4544 16.5 12.626 16.5C11.7975 16.5 11.126 17.1716 11.126 18C11.126 18.8284 11.7975 19.5 12.626 19.5ZM18.626 13.5C19.4544 13.5 20.126 12.8284 20.126 12C20.126 11.1716 19.4544 10.5 18.626 10.5C17.7975 10.5 17.126 11.1716 17.126 12C17.126 12.8284 17.7975 13.5 18.626 13.5ZM12.626 7.5C13.4544 7.5 14.126 6.82843 14.126 6C14.126 5.17157 13.4544 4.5 12.626 4.5C11.7975 4.5 11.126 5.17157 11.126 6C11.126 6.82843 11.7975 7.5 12.626 7.5ZM12.626 9C14.2828 9 15.626 7.65685 15.626 6C15.626 4.34315 14.2828 3 12.626 3C10.9691 3 9.62598 4.34315 9.62598 6C9.62598 7.65685 10.9691 9 12.626 9ZM6.62598 15C8.28283 15 9.62598 13.6569 9.62598 12C9.62598 10.3431 8.28283 9 6.62598 9C4.96912 9 3.62598 10.3431 3.62598 12C3.62598 13.6569 4.96912 15 6.62598 15ZM12.626 21C14.2828 21 15.626 19.6569 15.626 18C15.626 16.3431 14.2828 15 12.626 15C10.9691 15 9.62598 16.3431 9.62598 18C9.62598 19.6569 10.9691 21 12.626 21ZM21.626 12C21.626 13.6569 20.2828 15 18.626 15C16.9691 15 15.626 13.6569 15.626 12C15.626 10.3431 16.9691 9 18.626 9C20.2828 9 21.626 10.3431 21.626 12Z" fill="#898989"/>
</svg>
