<svg width="24" height="24" viewBox="0 0 24 24" fill="none" xmlns="http://www.w3.org/2000/svg">
  <path d="M4.7219 18.5408L11.157 7.04077L13.8085 11.7318L15.1203 11.1164L12.0504 5.47001C11.648 4.82615 10.703 4.84799 10.3308 5.50975L3.15702 18.5408C2.78206 19.2074 3.10215 20.0408 3.86698 20.0408H15.4945C14.9561 19.6286 14.4939 19.1188 14.1188 18.5408L4.7219 18.5408Z" fill="#898989"/>
  <path d="M11.9069 10.4999L10.4069 10.5L10.6569 15.0407H11.6569L11.9069 10.4999Z" fill="#898989"/>
  <path d="M10.4069 16.7907C10.4069 16.7907 10.3972 16.0407 11.1569 16.0407C11.8972 16.0407 11.9069 16.7907 11.9069 16.7907C11.9069 16.7907 11.8972 17.5407 11.1569 17.5407C10.4166 17.5407 10.4069 16.7907 10.4069 16.7907Z" fill="#898989"/>
  <path d="M17.5 11L14 12.7273V14.8182C14 17.2148 15.35 19.4559 17.5 20C19.65 19.4559 21 17.2148 21 14.8182V12.7273L17.5 11Z" fill="#898989"/>
</svg>
