<svg width="24" height="24" viewBox="0 0 24 24" fill="none" xmlns="http://www.w3.org/2000/svg">
  <path d="M15 8.5V9.5H16.5V8.5H15Z" fill="#898989"/>
  <path d="M15 10.5V11.5H16.5V10.5H15Z" fill="#898989"/>
  <path d="M15 12.5V13.5H16.5V12.5H15Z" fill="#898989"/>
  <path d="M15 14.5V15.5H16.5V14.5H15Z" fill="#898989"/>
  <path fill-rule="evenodd" clip-rule="evenodd" d="M20 12C20 10.8954 20.8954 10 22 10V7C22 6.44772 21.5523 6 21 6H3C2.44772 6 2 6.44772 2 7V10C3.10457 10 4 10.8954 4 12C4 13.1046 3.10457 14 2 14V17C2 17.5523 2.44772 18 3 18H21C21.5523 18 22 17.5523 22 17V14C20.8954 14 20 13.1046 20 12ZM3.5 8.83682V7.5H20.5V8.83682C19.3175 9.39855 18.5 10.6038 18.5 12C18.5 13.3962 19.3175 14.6015 20.5 15.1632V16.5H3.5V15.1632C4.68247 14.6015 5.5 13.3962 5.5 12C5.5 10.6038 4.68247 9.39855 3.5 8.83682Z" fill="#898989"/>
</svg>
