<svg width="24" height="24" viewBox="0 0 24 24" fill="none" xmlns="http://www.w3.org/2000/svg">
  <path fill-rule="evenodd" clip-rule="evenodd" d="M12 19.5C7.85786 19.5 4.5 16.1421 4.5 12C4.5 7.85786 7.85786 4.5 12 4.5C16.1421 4.5 19.5 7.85786 19.5 12C19.5 16.1421 16.1421 19.5 12 19.5ZM12 21C7.02944 21 3 16.9706 3 12C3 7.02944 7.02944 3 12 3C16.9706 3 21 7.02944 21 12C21 16.9706 16.9706 21 12 21Z" fill="#898989"/>
  <path fill-rule="evenodd" clip-rule="evenodd" d="M12.75 12.2281V7H11.25V12.2281C11.25 12.9547 11.6009 13.6366 12.1922 14.059L15.0641 16.1103L15.9359 14.8897L13.0641 12.8384C12.867 12.6976 12.75 12.4703 12.75 12.2281Z" fill="#898989"/>
</svg>
