<svg width="24" height="24" viewBox="0 0 24 24" fill="none" xmlns="http://www.w3.org/2000/svg">
  <path d="M14.2608 10.2942L15.4312 11.4646L12.0013 14.8945L10.8309 13.7241L14.2608 10.2942Z" fill="#898989"/>
  <path fill-rule="evenodd" clip-rule="evenodd" d="M15.3114 3.65517V2L8.69075 2V3.65517L11.1724 3.65517V5.48914C6.99037 5.90436 3.72415 9.43282 3.72415 13.7241C3.72415 18.2948 7.42938 22 12 22C16.5706 22 20.2759 18.2948 20.2759 13.7241C20.2759 11.7372 19.5757 9.91378 18.4085 8.48723L20.0669 6.82879L18.8966 5.65841L17.2382 7.31672C16.012 6.31304 14.4924 5.65443 12.8276 5.48914V3.65517H15.3114ZM12 20.3448C15.6565 20.3448 18.6207 17.3806 18.6207 13.7241C18.6207 10.0676 15.6565 7.10345 12 7.10345C8.34351 7.10345 5.37932 10.0676 5.37932 13.7241C5.37932 17.3806 8.34351 20.3448 12 20.3448Z" fill="#898989"/>
</svg>
