<svg width="24" height="24" viewBox="0 0 24 24" fill="none" xmlns="http://www.w3.org/2000/svg">
  <path d="M17.5028 10.5C16.5028 10.5 14.0028 10.5 14.0028 10.5C14.0028 10.5 14.0028 8 14.0028 7H11.0028C11.0028 8 11.0028 10.5 11.0028 10.5C11.0028 10.5 8.50275 10.5 7.50275 10.5L7.50276 13.5C8.50276 13.5 11.0028 13.5 11.0028 13.5C11.0028 13.5 11.0028 16 11.0028 17H14.0028C14.0028 16 14.0028 13.5 14.0028 13.5C14.0028 13.5 16.5027 13.5 17.5027 13.5L17.5028 10.5Z" fill="#898989"/>
  <path fill-rule="evenodd" clip-rule="evenodd" d="M5.78898 7.22846L6.84964 8.28912L3.13733 12.0014L6.84964 15.7137L5.78898 16.7744C5.78898 16.7744 2.43272 13.4181 1.8999 12.8853C1.36707 12.3525 1.36633 11.6512 1.8999 11.1176C2.43346 10.5839 5.78898 7.22846 5.78898 7.22846Z" fill="#898989"/>
  <path fill-rule="evenodd" clip-rule="evenodd" d="M18.2757 16.7745L17.2151 15.7138L20.9274 12.0015L17.2151 8.28919L18.2757 7.22852C18.2757 7.22852 21.632 10.5848 22.1648 11.1176C22.6977 11.6504 22.6984 12.3518 22.1648 12.8854C21.6313 13.419 18.2757 16.7745 18.2757 16.7745Z" fill="#898989"/>
</svg>
