<svg width="24" height="24" viewBox="0 0 24 24" fill="none" xmlns="http://www.w3.org/2000/svg">
  <path fill-rule="evenodd" clip-rule="evenodd" d="M14.7787 19.4047C17.5401 19.4047 19.7787 17.1661 19.7787 14.4047C19.7787 11.6432 17.5401 9.40466 14.7787 9.40466C12.0173 9.40466 9.77869 11.6432 9.77869 14.4047C9.77869 17.1661 12.0173 19.4047 14.7787 19.4047ZM14.7787 20.9047C18.3685 20.9047 21.2787 17.9945 21.2787 14.4047C21.2787 10.8148 18.3685 7.90466 14.7787 7.90466C11.1888 7.90466 8.27869 10.8148 8.27869 14.4047C8.27869 17.9945 11.1888 20.9047 14.7787 20.9047Z" fill="#898989"/>
  <path d="M3.45178 3.70599L8.39691 8.60729L5.7527 10.1339L3.779 9.15807L2.72131 9.76872L4.77682 12.1076L5.77462 15.0571L6.83228 14.4465L6.97401 12.2493L7.74092 11.8065C8.79771 8.94493 11.5499 6.90467 14.7787 6.90467C15.2095 6.90467 15.6319 6.94101 16.0429 7.01077C16.7665 6.54567 17.7636 5.28984 17.4691 4.77973C17.1637 4.25089 15.4702 4.52353 14.743 4.94335L11.57 6.77532L4.50946 3.09534L3.45178 3.70599Z" fill="#898989"/>
  <path fill-rule="evenodd" clip-rule="evenodd" d="M13.601 10.6555L15.101 10.6573L15.0967 14.2622L17.8535 16.793L16.8391 17.898L13.5959 14.9207L13.601 10.6555Z" fill="#898989"/>
</svg>
