<svg width="24" height="24" viewBox="0 0 24 24" fill="none" xmlns="http://www.w3.org/2000/svg">
  <path fill-rule="evenodd" clip-rule="evenodd" d="M8.93777 4.60693C7.9942 4.99733 7.11018 5.57604 6.34316 6.34306C5.57613 7.11008 4.99742 7.99411 4.60703 8.93768L5.99307 9.51115C6.30941 8.74658 6.77866 8.02888 7.40382 7.40372C8.02897 6.77856 8.74667 6.30932 9.51124 5.99298L8.93777 4.60693ZM4.60703 15.0622L5.99308 14.4887C6.30941 15.2533 6.77866 15.971 7.40382 16.5961C8.02898 17.2213 8.74667 17.6905 9.51125 18.0069L8.93778 19.3929C7.9942 19.0025 7.11018 18.4238 6.34316 17.6568C5.57613 16.8898 4.99742 16.0057 4.60703 15.0622ZM15.0622 19.3929L14.4888 18.0069C15.2533 17.6905 15.971 17.2213 16.5962 16.5961C17.2214 15.971 17.6906 15.2533 18.0069 14.4887L19.393 15.0622C19.0026 16.0057 18.4239 16.8898 17.6569 17.6568C16.8898 18.4238 16.0058 19.0025 15.0622 19.3929ZM19.393 8.93768L18.0069 9.51115C17.6906 8.74658 17.2214 8.02888 16.5962 7.40372C15.971 6.77856 15.2533 6.30932 14.4888 5.99298L15.0622 4.60693C16.0058 4.99733 16.8898 5.57604 17.6569 6.34306C18.4239 7.11009 19.0026 7.99411 19.393 8.93768Z" fill="currentColor"/>
  <path d="M14 12.0031C14 13.1076 13.1046 14.0031 12 14.0031C10.8954 14.0031 10 13.1076 10 12.0031C10 10.8985 10.8954 10.0031 12 10.0031C13.1046 10.0031 14 10.8985 14 12.0031Z" fill="currentColor"/>
</svg>
