<svg width="24" height="24" viewBox="0 0 24 24" fill="none" xmlns="http://www.w3.org/2000/svg">
  <path fill-rule="evenodd" clip-rule="evenodd" d="M13.0027 16.8809C13.0009 16.9232 13 16.9658 13 17.0086C13 18.6663 14.3431 20.0102 16 20.0102C17.6569 20.0102 19 18.6663 19 17.0086C19 15.3509 17.6569 14.007 16 14.007C15.3095 14.007 14.6734 14.2405 14.1664 14.6328L14.9981 9.23898C15.5291 9.71527 16.2307 10.005 17 10.005C18.6569 10.005 20 8.66111 20 7.0034C20 5.34568 18.6569 4.00183 17 4.00183C15.3431 4.00183 14 5.34568 14 7.0034C14 7.07255 14.0023 7.14116 14.0069 7.20915C13.7877 7.07711 13.5433 7.0034 13.2857 7.0034L10.7143 7.00339C10.4567 7.00339 10.2123 7.07711 9.99306 7.20915C9.99766 7.14116 10 7.07255 10 7.00339C10 5.34568 8.65685 4.00183 7 4.00183C5.34315 4.00183 4 5.34568 4 7.00339C4 8.66111 5.34315 10.005 7 10.005C7.76926 10.005 8.4709 9.71527 9.00188 9.23898L9.83363 14.6328C9.3266 14.2405 8.69055 14.007 8 14.007C6.34314 14.007 5 15.3509 5 17.0086C5 18.6663 6.34314 20.0102 8 20.0102C9.65685 20.0102 11 18.6663 11 17.0086C11 16.9658 10.9991 16.9232 10.9973 16.8809C11.1768 16.9636 11.3701 17.0086 11.5714 17.0086H12.4286C12.6299 17.0086 12.8232 16.9636 13.0027 16.8809ZM15.1733 15.7561C15.4103 15.5992 15.6945 15.5078 16 15.5078C16.8284 15.5078 17.5 16.1797 17.5 17.0086C17.5 17.8375 16.8284 18.5094 16 18.5094C15.2018 18.5094 14.5492 17.8855 14.5026 17.0986L13.6646 16.6794C13.2941 16.4941 13.1438 16.0434 13.329 15.6727C13.5143 15.302 13.9647 15.1517 14.3352 15.337L15.1733 15.7561ZM8 15.5078C7.17157 15.5078 6.5 16.1797 6.5 17.0086C6.5 17.8375 7.17157 18.5094 8 18.5094C8.79832 18.5094 9.45099 17.8854 9.49736 17.0983L10.3353 16.6791C10.7058 16.4937 10.856 16.043 10.6707 15.6723C10.4855 15.3017 10.035 15.1514 9.66447 15.3368L8.8265 15.756C8.58951 15.5992 8.30541 15.5078 8 15.5078ZM5.5 7.00339C5.5 6.17454 6.17157 5.50261 7 5.50261C7.79827 5.50261 8.4509 6.12651 8.49736 6.91354L10.3353 7.83301C10.7058 8.01834 10.856 8.46909 10.6707 8.83976C10.4855 9.21044 10.035 9.36068 9.66452 9.17535L7.82662 8.25592C7.58961 8.41282 7.30547 8.50418 7 8.50418C6.17157 8.50418 5.5 7.83225 5.5 7.00339ZM15.5026 6.91355C15.5491 6.12652 16.2017 5.50261 17 5.50261C17.8284 5.50261 18.5 6.17454 18.5 7.0034C18.5 7.83225 17.8284 8.50418 17 8.50418C16.6945 8.50418 16.4104 8.41282 16.1734 8.25593L14.3353 9.17536C13.9648 9.36068 13.5143 9.21042 13.3291 8.83974C13.1439 8.46905 13.294 8.01832 13.6645 7.83299L15.5026 6.91355Z" fill="currentColor"/>
</svg>
