<svg width="24" height="24" viewBox="0 0 24 24" fill="none" xmlns="http://www.w3.org/2000/svg">
  <path fill-rule="evenodd" clip-rule="evenodd" d="M6.27387 4.98626C6.26967 4.98854 6.2655 4.99083 6.26135 4.99314L5.30778 3.84648L4.15447 4.80559L5.62331 6.57185V17.7198C5.62331 17.7198 5.62331 19.0531 6.95664 19.0531H16.0029L17.5778 20.947L18.7311 19.9879L17.9538 19.0531H17.9581L16.8506 17.7198H16.8449L9.08318 8.38636H9.09806L8.2899 7.4134V7.43245L7.23524 6.16424H7.25232L6.27387 4.98626ZM6.95664 17.7198V8.17517L14.894 17.7198H6.95664Z" fill="#898989"/>
  <path fill-rule="evenodd" clip-rule="evenodd" d="M18.5122 17.3727V6.16424H17.1788V8.38636H11.048L8.09479 4.8309H10.5567C10.7625 3.81656 11.6593 3.0531 12.7344 3.0531C13.8095 3.0531 14.7063 3.81656 14.9122 4.8309H18.5122C19.8455 4.8309 19.8455 6.16424 19.8455 6.16424V17.7198C19.8455 18.1317 19.7183 18.4163 19.5425 18.613L18.5122 17.3727ZM12.7344 6.16429C13.2253 6.16429 13.6233 5.76632 13.6233 5.2754C13.6233 4.78448 13.2253 4.38651 12.7344 4.38651C12.2435 4.38651 11.8455 4.78448 11.8455 5.2754C11.8455 5.76632 12.2435 6.16429 12.7344 6.16429Z" fill="#898989"/>
</svg>
