<svg width="24" height="24" viewBox="0 0 24 24" fill="none" xmlns="http://www.w3.org/2000/svg">
  <path fill-rule="evenodd" clip-rule="evenodd" d="M21 5.70177V19C18.5863 17.6374 14.4483 17.0996 12 19C9.51252 17.0691 5.55656 17.5583 3 19V5.65733C5.30283 4.30432 9.59453 3.47191 12 4.99991C14.4658 3.67502 18.7587 4.09406 21 5.70177ZM12 6.49991C14.1241 5.18092 17.2744 5.27249 19.5 6.49991V16.9999C17.4931 16.2447 13.8869 16.3198 12 17.4999V6.49991Z" fill="#898989"/>
  <path d="M13.51 9.26799C15.4511 8.44569 16.7279 8.77276 18 9.09041V7.53802C16.6375 7.26855 15.3943 7.01739 13.51 7.62646V9.26799Z" fill="#898989"/>
  <path d="M13.51 12.1265C15.3734 11.3959 16.7717 11.7837 18 12.0904V10.538C16.6858 10.2781 15.3182 9.9625 13.51 10.5042V12.1265Z" fill="#898989"/>
  <path d="M13.51 15.1265C15.3734 14.3959 16.7717 14.7836 18 15.0903V13.5379C16.6858 13.278 15.3182 12.9625 13.51 13.5042V15.1265Z" fill="#898989"/>
</svg>
