<svg width="24" height="24" viewBox="0 0 24 24" fill="none" xmlns="http://www.w3.org/2000/svg">
  <path d="M11 9.49976H13L12.75 14.9997L11.25 14.9998L11 9.49976Z" fill="#898989"/>
  <path d="M12 17.9998C12.5523 17.9998 13 17.552 13 16.9998C13 16.4475 12.5523 15.9998 12 15.9998C11.4477 15.9998 11 16.4475 11 16.9998C11 17.552 11.4477 17.9998 12 17.9998Z" fill="#898989"/>
  <path fill-rule="evenodd" clip-rule="evenodd" d="M11.1738 3.96873C11.5461 3.30697 12.491 3.28514 12.8934 3.92899L21 18.9998C21.4163 19.6658 20.9813 20.4998 20.1959 20.4998H3.70999C2.94517 20.4998 2.62508 19.6664 3.00004 18.9998L11.1738 3.96873ZM4.56492 18.9998L12 5.49976L19.5 18.9998L4.56492 18.9998Z" fill="#898989"/>
</svg>
