<svg width="24" height="24" viewBox="0 0 24 24" fill="none" xmlns="http://www.w3.org/2000/svg">
  <path fill-rule="evenodd" clip-rule="evenodd" d="M6.76335 10.8181H7.98477L6.04001 20.3056H4V22H20V20.3056H17.9389L15.9941 10.8181H17.2156V4.66154L12.0002 2L6.76335 4.66131V10.8181ZM14.528 11.8427L12 14.4248L9.4692 11.8399L9.6711 10.8181H14.2918L14.528 11.8427ZM10.84 15.6159L9.07966 13.8218L8.14772 18.3515L10.84 15.6159ZM12 16.8078L15.4168 20.3056H8.58323L12 16.8078ZM15.8734 18.3515L13.1811 15.6159L14.9414 13.8218L15.8734 18.3515ZM15.5 6H13.9831V7.5H15.5V6ZM10.0384 6H8.5V7.5H10.0384V6Z" fill="#898989"/>
</svg>
