<svg width="24" height="24" viewBox="0 0 24 24" fill="none" xmlns="http://www.w3.org/2000/svg">
  <path d="M7.1943 13.8984C7.18999 15.2996 7.94676 16.372 9.05888 16.7856L4.381 16.7708C2.56643 16.7708 2.00659 15.072 2.00022 14.2969C2.00022 12.2732 3.65857 10.6326 5.70455 10.6318C6.51124 8.71867 8.29402 7 10.5208 7C11.1734 7 12.559 7.25193 13.7498 8.36263C12.0552 8.50004 11.085 9.64122 10.7319 10.4556C8.98346 10.4556 7.1943 11.6499 7.1943 13.8984Z" fill="currentColor"/>
  <path d="M10.706 16.7682C9.11781 16.6106 7.88251 15.4023 7.88251 13.9349C7.88251 12.361 9.30395 11.0849 11.0576 11.0843C11.7491 9.5963 13.3855 8.5504 15.2942 8.5504C17.4863 8.5504 19.3194 9.93008 19.7741 11.7746C21.0465 12.0207 22 13.0363 22 14.2517C22 15.6511 20.7359 16.7856 19.1765 16.7856H10.706V16.7682Z" fill="currentColor"/>
</svg>
