<svg width="24" height="25" viewBox="0 0 24 25" fill="none" xmlns="http://www.w3.org/2000/svg">
  <path fill-rule="evenodd" clip-rule="evenodd" d="M14.2249 5.65239L12 3.5L9.77508 5.65239L6.70993 5.21885L6.17508 8.26795L3.44049 9.71885L4.8 12.5L3.44049 15.2812L6.17508 16.7321L6.70993 19.7812L9.77508 19.3476L12 21.5L14.2249 19.3476L17.2901 19.7812L17.8249 16.7321L20.5595 15.2812L19.2 12.5L20.5595 9.71885L17.8249 8.26795L17.2901 5.21885L14.2249 5.65239ZM10.8753 7.43762L13.1253 7.4375L12.7503 13.9466H11.2502L10.8753 7.43762ZM12.0003 15.393C10.8607 15.393 10.8753 16.4778 10.8753 16.4778C10.8753 16.4778 10.8898 17.5627 12.0003 17.5627C13.1107 17.5627 13.1253 16.4778 13.1253 16.4778C13.1253 16.4778 13.1107 15.393 12.0003 15.393Z" fill="#898989"/>
</svg>
