<svg width="24" height="24" viewBox="0 0 24 24" fill="none" xmlns="http://www.w3.org/2000/svg">
  <path d="M14.3478 18.4507C14.0678 19.3407 13.3378 20.0707 12.4478 20.3507C10.9378 20.8307 9.50777 20.1207 8.85777 18.9307C8.50777 18.2807 9.02777 17.5007 9.76777 17.5007H9.77777C10.1178 17.5007 10.4578 17.6607 10.6178 17.9607C10.7878 18.2807 11.1178 18.5007 11.5078 18.5007C12.0578 18.5007 12.5078 18.0507 12.5078 17.5007C12.5078 16.9507 12.0578 16.5007 11.5078 16.5007H3.99777C3.44777 16.5007 2.99777 16.0507 2.99777 15.5007C2.99777 14.9507 3.44777 14.5007 3.99777 14.5007H11.4978C13.4578 14.5007 14.9978 16.4007 14.3478 18.4507ZM16.9078 6.17075C16.6178 4.91075 15.5878 3.88075 14.3278 3.59075C12.5678 3.19075 10.9578 4.12075 10.3078 5.57075C9.99777 6.24075 10.4778 7.00075 11.2078 7.00075C11.5978 7.00075 11.9578 6.78075 12.1078 6.43075C12.3378 5.88075 12.8678 5.50075 13.4978 5.50075C14.3278 5.50075 14.9978 6.17075 14.9978 7.00075C14.9978 7.83075 14.3278 8.50075 13.4978 8.50075H3.99777C3.44777 8.50075 2.99777 8.95075 2.99777 9.50075C2.99777 10.0507 3.44777 10.5007 3.99777 10.5007H13.4978C15.6978 10.5007 17.4278 8.46075 16.9078 6.17075ZM17.3978 11.5007H3.99777C3.44777 11.5007 2.99777 11.9507 2.99777 12.5007C2.99777 13.0507 3.44777 13.5007 3.99777 13.5007H17.4978C18.3278 13.5007 18.9978 14.1707 18.9978 15.0007C18.9978 15.6307 18.6178 16.1607 18.0678 16.3907C17.7078 16.5407 17.4978 16.9007 17.4978 17.2907C17.4978 18.0207 18.2578 18.5007 18.9278 18.2007C20.3578 17.5607 21.2778 15.9907 20.9278 14.2707C20.5878 12.6307 19.0678 11.5007 17.3978 11.5007Z" fill="#898989"/>
</svg>
